<svg xmlns="http://www.w3.org/2000/svg" width="729.106" height="842.024" viewBox="0 0 729.106 842.024">
  <path id="Path_4" data-name="Path 4" d="M308.654,1025.838a78.959,78.959,0,0,0,0-78.981l-56.9-98.647a39.332,39.332,0,0,1-5.281-19.711h0a39.422,39.422,0,0,1,5.281-19.734l11.381-19.734a26.266,26.266,0,0,0,0-26.312h0l-22.761,39.468a52.351,52.351,0,0,0-7.056,26.312h0a52.509,52.509,0,0,0,7.056,26.312l56.9,98.624a65.734,65.734,0,0,1,0,65.8l-26.562,46.023,7.6,13.156Zm30.386,157.825,7.6-13.156-26.585-46.023a65.848,65.848,0,0,1,0-65.8l56.9-98.647a52.624,52.624,0,0,0,0-52.624L354.2,867.944h0a26.357,26.357,0,0,0,0,26.312L365.58,913.99a39.445,39.445,0,0,1,0,39.468l-56.9,98.624a78.959,78.959,0,0,0,0,78.981Zm-182.271,0,7.6-13.156-26.585-46.023a65.848,65.848,0,0,1,0-65.8l56.9-98.647a52.624,52.624,0,0,0,0-52.624l-22.761-39.468h0a26.357,26.357,0,0,0,0,26.312l11.381,19.734a39.445,39.445,0,0,1,0,39.468l-56.9,98.624a78.959,78.959,0,0,0,0,78.981Zm364.542,0,7.6-13.156-26.585-46.023a65.848,65.848,0,0,1,0-65.8l56.9-98.647a52.623,52.623,0,0,0,0-52.624L536.47,867.944h0a26.357,26.357,0,0,0,0,26.312l11.381,19.734a39.445,39.445,0,0,1,0,39.468l-56.9,98.624a78.958,78.958,0,0,0,0,78.981Zm-30.386-157.825a78.958,78.958,0,0,0,0-78.981l-56.9-98.647a39.33,39.33,0,0,1-5.281-19.711h0a39.422,39.422,0,0,1,5.281-19.734L445.4,789.032a26.267,26.267,0,0,0,0-26.312l-22.761,39.468a52.352,52.352,0,0,0-7.056,26.312h0a52.509,52.509,0,0,0,7.056,26.312l56.9,98.624a65.734,65.734,0,0,1,0,65.8l-26.471,46.023,7.6,13.156Zm53.193-381.5L570.7,690.362a65.8,65.8,0,0,1,0,65.8L528.959,828.5h0l-15.227,26.244a52.555,52.555,0,0,0,0,52.646l22.761,39.445a26.267,26.267,0,0,0,0-26.312l-11.381-19.734a39.4,39.4,0,0,1,0-39.445L544.118,828.5h0l37.966-65.757a78.913,78.913,0,0,0,0-78.958l-30.363-52.6Zm-144.305-65.8a78.935,78.935,0,0,0-10.47,39.49h0a78.943,78.943,0,0,0,10.588,39.5l56.9,98.617a39.445,39.445,0,0,1,0,39.468l-11.381,19.734a26.312,26.312,0,0,0-3.505,13.156h0a26.63,26.63,0,0,0,3.528,13.156l7.6-13.156h0l15.182-26.312a52.623,52.623,0,0,0,0-52.624l-56.9-98.624a66.006,66.006,0,0,1-8.968-32.913h0a66.007,66.007,0,0,1,8.809-32.912l26.585-46.023-7.6-13.156Zm273.384,447.3a78.959,78.959,0,0,0,0-78.981l-56.9-98.647a39.331,39.331,0,0,1-5.281-19.711h0a39.422,39.422,0,0,1,5.281-19.734l11.38-19.734a26.266,26.266,0,0,0,0-26.312l-22.761,39.468a52.35,52.35,0,0,0-7.056,26.312h0a52.509,52.509,0,0,0,7.056,26.312l56.9,98.624a65.734,65.734,0,0,1,0,65.8l-26.653,46.023,7.6,13.156ZM35.271,578.537a78.934,78.934,0,0,0-10.584,39.49h0a78.943,78.943,0,0,0,10.588,39.5l56.9,98.617a39.445,39.445,0,0,1,0,39.468L80.793,815.343A26.584,26.584,0,0,0,77.265,828.5h0a26.4,26.4,0,0,0,3.528,13.156h0L88.4,828.5h0l15.182-26.312a52.624,52.624,0,0,0,0-52.624l-56.9-98.647a65.848,65.848,0,0,1,0-65.8l26.585-46.023-7.6-13.156Zm91.044,447.3a78.958,78.958,0,0,0,0-78.981l-56.9-98.647A39.332,39.332,0,0,1,64.132,828.5h0a39.422,39.422,0,0,1,5.281-19.734l11.381-19.734a26.266,26.266,0,0,0,0-26.312L58.032,802.188A52.351,52.351,0,0,0,50.976,828.5h0a52.51,52.51,0,0,0,7.079,26.244l56.9,98.624a65.734,65.734,0,0,1,0,65.8L88.418,1065.26l7.6,13.156Zm53.238-381.5,26.562,46.023a65.734,65.734,0,0,1,0,65.8L164.372,828.5h0L149.19,854.743a52.555,52.555,0,0,0,0,52.646l22.761,39.445a26.266,26.266,0,0,0,0-26.312l-11.381-19.734a39.4,39.4,0,0,1,0-39.445l18.983-32.89h0L217.519,762.7a78.913,78.913,0,0,0,0-78.958l-30.363-52.556Zm37.988-65.8a78.958,78.958,0,0,0,0,78.981l56.9,98.624a39.445,39.445,0,0,1,0,39.468l-11.381,19.734a26.584,26.584,0,0,0-3.528,13.156h0a26.631,26.631,0,0,0,3.528,13.156h0l7.6-13.156h0l15.182-26.312a52.624,52.624,0,0,0,0-52.624l-56.9-98.647a65.848,65.848,0,0,1,0-65.8l26.585-46.023-7.6-13.156ZM453.073,407.556H441.966a26.313,26.313,0,0,0,3.505,13.156Zm26.562,124.958a65.734,65.734,0,0,1,0,65.8l-26.562,46.023,7.6,13.156,30.363-52.6a78.913,78.913,0,0,0,0-78.958l-56.9-98.647a39.423,39.423,0,0,1-5.281-19.734H415.7a52.35,52.35,0,0,0,7.056,26.312ZM456.874,545.67a39.445,39.445,0,0,1,0,39.468l-11.381,19.734a26.334,26.334,0,0,0-3.528,13.156h0a26.312,26.312,0,0,0,3.505,13.156l22.761-39.445a52.669,52.669,0,0,0,0-52.646l-57.039-98.6a66.007,66.007,0,0,1-8.809-32.913H389.342a78.943,78.943,0,0,0,10.588,39.5Zm-72.813-73.314,4.325,7.511a65.734,65.734,0,0,1,0,65.8l-56.9,98.624a52.669,52.669,0,0,0,0,52.646l22.761,39.445a26.221,26.221,0,0,0,0-26.289l-11.381-19.734a39.445,39.445,0,0,1,0-39.468l56.9-98.647a78.912,78.912,0,0,0,0-78.958l-15.728-27.313h0L369.4,420.62l-7.6,13.156Zm-52.6,14.112,22.761,39.445a26.221,26.221,0,0,0,0-26.289L342.841,479.89a39.445,39.445,0,0,1,0-39.468l18.983-32.89H346.642l-15.182,26.312a52.624,52.624,0,0,0,0,52.646Zm182.271,0,22.761,39.468a26.267,26.267,0,0,0,0-26.312l-11.38-19.734a39.445,39.445,0,0,1,0-39.468l19.005-32.867H528.936l-15.182,26.312a52.623,52.623,0,0,0-.023,52.624Zm56.9,59.179-56.9,98.624a52.669,52.669,0,0,0,0,52.646l22.761,39.445a26.221,26.221,0,0,0,0-26.289L525.112,690.34a39.445,39.445,0,0,1,0-39.468l56.9-98.647a78.913,78.913,0,0,0,0-78.958l-30.363-52.6-7.534,13.2L570.7,479.89a65.848,65.848,0,0,1-.023,65.8ZM460.516,446.978l22.761-39.468h-15.2l-15,26.357Zm178.47,98.669a39.4,39.4,0,0,1,0,39.445l-11.381,19.734a26.334,26.334,0,0,0-3.528,13.156h0a26.312,26.312,0,0,0,3.505,13.156l22.761-39.445a52.669,52.669,0,0,0,0-52.646l-56.9-98.624a66.008,66.008,0,0,1-8.809-32.912h-13.2a78.943,78.943,0,0,0,10.588,39.5ZM490.948,499.67l30.409,52.578,7.6-13.156-26.63-46.023a65.848,65.848,0,0,1,0-65.8l11.381-19.711H498.6l-7.579,13.133A78.958,78.958,0,0,0,490.948,499.67Zm-182.271,0,30.363,52.578,7.6-13.156-26.585-46.023a65.848,65.848,0,0,1,0-65.8l11.381-19.711H316.256l-7.579,13.133a78.958,78.958,0,0,0,0,78.981ZM616.248,637.761a39.513,39.513,0,0,1,0-39.468l11.381-19.734a26.267,26.267,0,0,0,0-26.312l-22.761,39.468a52.578,52.578,0,0,0,0,52.624l56.9,98.647a65.734,65.734,0,0,1,0,65.8L650.389,828.5h0l-15.227,26.244,7.6,13.133,22.761-39.445h0L673.1,815.3a78.958,78.958,0,0,0,0-78.981ZM582.106,973.214a78.958,78.958,0,0,0,0-78.981l-30.363-52.578-7.625,13.088,26.562,46.046a65.734,65.734,0,0,1,0,65.8l-56.9,98.624a52.51,52.51,0,0,0,0,52.624l22.761,39.468a26.267,26.267,0,0,0,0-26.312l-11.381-19.734a39.445,39.445,0,0,1,0-39.468Zm37.988-434.122L612.4,525.936l-30.363,52.6a78.958,78.958,0,0,0,0,78.981l56.9,98.624a39.445,39.445,0,0,1,0,39.468L627.56,815.344a26.314,26.314,0,0,0-3.505,13.156h0a26.631,26.631,0,0,0,3.528,13.156l7.6-13.156h0l15.182-26.312a52.623,52.623,0,0,0,0-52.624l-56.9-98.624a65.893,65.893,0,0,1,0-65.825ZM399.79,973.214a78.958,78.958,0,0,0,0-78.981L384.062,866.92h0l-14.635-25.356-7.6,13.179,22.238,38.694h0l4.325,7.511a65.734,65.734,0,0,1,0,65.8l-56.9,98.624a52.51,52.51,0,0,0,0,52.624l22.761,39.468a26.267,26.267,0,0,0,0-26.312l-11.381-19.734a39.445,39.445,0,0,1,0-39.468ZM680.8,828.5h0l-7.579,13.133a78.913,78.913,0,0,0,0,78.958l30.363,52.51,7.6-13.156L684.6,913.922a65.848,65.848,0,0,1,0-65.8l11.38-19.711h0L741.5,749.5a52.669,52.669,0,0,0,0-52.646L718.741,657.4h0a26.358,26.358,0,0,0,0,26.312l11.381,19.734a39.4,39.4,0,0,1,0,39.445ZM445.357,1052.1l22.761-39.445a52.624,52.624,0,0,0,0-52.624l-56.9-98.647a65.757,65.757,0,0,1-8.809-32.89h0a66.007,66.007,0,0,1,8.786-32.935l26.585-46.023-7.6-13.156-30.363,52.624a78.935,78.935,0,0,0-10.47,39.49h0a78.8,78.8,0,0,0,10.584,39.468l56.9,98.647a39.445,39.445,0,0,1,0,39.468l-11.381,19.734a26.288,26.288,0,0,0-3.528,13.156h0A26.266,26.266,0,0,0,445.357,1052.1Zm-182.271,0,11.381-19.529h0l11.381-19.916a52.624,52.624,0,0,0,0-52.624l-56.9-98.647a65.757,65.757,0,0,1-8.809-32.89h0a66.008,66.008,0,0,1,8.786-32.935l26.585-46.023-7.6-13.156-30.363,52.6a78.935,78.935,0,0,0-10.584,39.49h0a78.8,78.8,0,0,0,10.584,39.468l56.9,98.647a39.445,39.445,0,0,1,0,39.468l-11.38,19.734a26.289,26.289,0,0,0-3.528,13.156h0A26.266,26.266,0,0,0,263.087,1052.1ZM673.219,499.67l30.363,52.578,7.6-13.156L684.6,493.069a65.848,65.848,0,0,1,0-65.8l11.38-19.711H680.8l-7.579,13.133a78.958,78.958,0,0,0,0,78.981Zm22.761-13.179,22.761,39.468a26.267,26.267,0,0,0,0-26.312L707.36,479.913a39.445,39.445,0,0,1,0-39.468l18.983-32.89H711.184L696,433.867a52.624,52.624,0,0,0,0,52.624Zm-53.17-39.468,22.761-39.468H650.412l-15.25,26.312Zm18.96,85.491a65.734,65.734,0,0,1,0,65.8l-26.608,46.023,7.6,13.156,30.363-52.6a78.913,78.913,0,0,0,0-78.958l-56.9-98.647a39.424,39.424,0,0,1-5.281-19.734H597.789a52.351,52.351,0,0,0,7.056,26.312ZM635.162,407.556H624.055a26.312,26.312,0,0,0,3.505,13.156Zm15.182,605.1a52.624,52.624,0,0,0,0-52.624l-56.9-98.647a65.759,65.759,0,0,1-8.809-32.89h0a66.008,66.008,0,0,1,8.831-32.935l26.585-46.023L612.4,736.385l-30.363,52.6A78.934,78.934,0,0,0,571.431,828.5h0a78.8,78.8,0,0,0,10.584,39.468l56.9,98.647a39.445,39.445,0,0,1,0,39.468l-11.38,19.734a26.286,26.286,0,0,0-3.528,13.156h0a26.266,26.266,0,0,0,3.528,13.133h0ZM445.357,578.56a26.267,26.267,0,0,0,0-26.312L422.6,591.716a52.351,52.351,0,0,0-7.056,26.312h0a52.351,52.351,0,0,0,7.056,26.312l56.9,98.647a65.734,65.734,0,0,1,0,65.8L468.118,828.5h0l-15.045,26.244,7.6,13.133,22.761-39.445h0l7.579-13.133a78.958,78.958,0,0,0,0-78.981l-56.9-98.624a39.513,39.513,0,0,1,0-39.468Zm-75.931,52.624-7.6,13.156,22.238,38.512h0l4.325,7.511a65.734,65.734,0,0,1,0,65.8l-4.325,7.511h0L346.643,828.5h0l-15.182,26.244a52.555,52.555,0,0,0,0,52.646l22.761,39.445a26.266,26.266,0,0,0,0-26.312l-11.381-19.734a39.4,39.4,0,0,1,0-39.445l18.983-32.89h0l22.238-38.512h0l15.728-27.313a78.913,78.913,0,0,0,0-78.958l-15.728-27.313h0ZM217.519,973.214a78.958,78.958,0,0,0,0-78.981l-30.363-52.578-7.6,13.088,26.562,46.046a65.734,65.734,0,0,1,0,65.8l-56.9,98.624a52.51,52.51,0,0,0,0,52.624l22.761,39.468a26.266,26.266,0,0,0,0-26.312l-11.381-19.734a39.445,39.445,0,0,1,0-39.468ZM498.6,828.5h0l-7.579,13.133a78.913,78.913,0,0,0,0,78.958l30.341,52.51,7.6-13.156-26.63-46.023a65.848,65.848,0,0,1,0-65.8l11.381-19.711h0L559.231,749.5a52.669,52.669,0,0,0,0-52.646L536.47,657.4h0a26.357,26.357,0,0,0,0,26.312l11.381,19.734a39.4,39.4,0,0,1,0,39.445ZM491.016,631.16a78.958,78.958,0,0,0,0,78.981l30.341,52.578,7.6-13.156-26.585-46.023a65.848,65.848,0,0,1,0-65.8l56.9-98.624a52.669,52.669,0,0,0,0-52.646l-22.761-39.445h0a26.357,26.357,0,0,0,0,26.312L547.9,493.069a39.4,39.4,0,0,1,0,39.445ZM316.325,828.5h0l-7.579,13.133a78.913,78.913,0,0,0,0,78.958L339.04,973.1l7.6-13.156-26.585-46.023a65.848,65.848,0,0,1,0-65.8l11.38-19.711h0L376.96,749.5a52.669,52.669,0,0,0,0-52.646L354.2,657.4h0a26.357,26.357,0,0,0,0,26.312L365.58,703.45a39.4,39.4,0,0,1,0,39.445ZM103.6,1012.659a52.624,52.624,0,0,0,0-52.624L46.7,861.389a65.757,65.757,0,0,1-8.809-32.89h0a66.008,66.008,0,0,1,8.763-32.935l26.585-46.023-7.6-13.156L35.271,789.009A78.936,78.936,0,0,0,24.687,828.5h0a78.8,78.8,0,0,0,10.584,39.468l56.9,98.647a39.445,39.445,0,0,1,0,39.468l-11.381,19.734a26.265,26.265,0,0,0-3.528,13.133h0a26.267,26.267,0,0,0,3.528,13.133h0ZM80.838,578.56a26.266,26.266,0,0,0,0-26.312L58.077,591.716a52.578,52.578,0,0,0,0,52.624l56.9,98.647a65.734,65.734,0,0,1,0,65.8L103.6,828.5h0L88.418,854.743l7.6,13.133,22.761-39.445h0l7.579-13.133a78.958,78.958,0,0,0,0-78.981l-56.9-98.624a39.422,39.422,0,0,1-5.3-19.666h0a39.422,39.422,0,0,1,5.281-19.734ZM133.986,828.5h0l-7.579,13.133a78.913,78.913,0,0,0,0,78.958l30.363,52.51,7.6-13.156-26.585-46.023a65.848,65.848,0,0,1,0-65.8l11.381-19.711h0L194.689,749.5a52.669,52.669,0,0,0,0-52.646L171.928,657.4h0a26.358,26.358,0,0,0,0,26.312l11.381,19.734a39.4,39.4,0,0,1,0,39.445ZM126.406,631.16a78.958,78.958,0,0,0,0,78.981l30.363,52.578,7.6-13.156-26.585-46.023a65.848,65.848,0,0,1,0-65.8l56.9-98.624a52.67,52.67,0,0,0,0-52.646l-22.761-39.445h0a26.357,26.357,0,0,0,0,26.312l11.381,19.734a39.4,39.4,0,0,1,0,39.445Zm182.271,0a78.958,78.958,0,0,0,0,78.981L339.04,762.72l7.6-13.156-26.585-46.023a65.848,65.848,0,0,1,0-65.8l56.9-98.624a52.669,52.669,0,0,0,0-52.646L354.2,447.023h0a26.357,26.357,0,0,0,0,26.312l11.381,19.734a39.4,39.4,0,0,1,0,39.445Zm-45.522-52.6a26.266,26.266,0,0,0,0-26.312l-22.761,39.468a52.578,52.578,0,0,0,0,52.624l56.9,98.647a65.734,65.734,0,0,1,0,65.8L285.916,828.5h0l-15.227,26.244,7.6,13.133,22.761-39.445h0l7.579-13.133a78.958,78.958,0,0,0,0-78.981l-56.9-98.624a39.513,39.513,0,0,1,0-39.468ZM612.4,1157.465l-30.363,52.6a78.8,78.8,0,0,0-10.607,39.354h13.156a65.756,65.756,0,0,1,8.877-32.776l26.585-46.023Zm-30.386-52.646-30.363-52.6-7.534,13.042,26.562,46.023a65.734,65.734,0,0,1,0,65.8l-41.767,72.335h15.2l37.966-65.734a78.958,78.958,0,0,0-.023-78.981Zm-91.044,52.624-56.9-98.646a39.468,39.468,0,0,1,0-39.445l11.381-19.734a26.266,26.266,0,0,0,0-26.312l-22.761,39.445a52.624,52.624,0,0,0,0,52.646l56.9,98.624a65.734,65.734,0,0,1,0,65.8l-11.381,19.711h15.2l7.579-13.133a78.913,78.913,0,0,0-.068-79.072ZM559.254,1118l-22.761-39.468h0a26.357,26.357,0,0,0,0,26.312l11.381,19.734a39.445,39.445,0,0,1,0,39.468L498.6,1249.42h15.182l45.522-78.913a52.624,52.624,0,0,0-.023-52.624Zm68.283,65.78-22.761,39.445a52.512,52.512,0,0,0-7.056,26.312h13.156a39.333,39.333,0,0,1,5.281-19.711l11.381-19.734a26.266,26.266,0,0,0,.091-26.426ZM650.3,1170.6l-56.9-98.624a65.848,65.848,0,0,1,0-65.8l26.585-46.023L612.4,946.88l-30.363,52.6a78.912,78.912,0,0,0,0,78.958l56.9,98.646a39.4,39.4,0,0,1,0,39.445l-11.381,19.734a26.4,26.4,0,0,0-3.528,13.156h11.13l15.182-26.289a52.669,52.669,0,0,0,.068-52.646Zm22.761-13.156-56.9-98.646a39.468,39.468,0,0,1,0-39.445l11.381-19.734a26.266,26.266,0,0,0,0-26.312l-22.761,39.445a52.623,52.623,0,0,0,0,52.646l56.9,98.624a65.734,65.734,0,0,1,0,65.8L650.3,1249.534h15.2l7.579-13.133a78.912,78.912,0,0,0,.114-79.072Zm-296.054-39.559-22.761-39.468h0a26.357,26.357,0,0,0,0,26.312l11.381,19.734a39.446,39.446,0,0,1,0,39.468l-49.369,85.491h15.182l45.522-78.913a52.623,52.623,0,0,0,.046-52.624Zm22.761-13.179-15.728-27.313h0L369.4,1052.013l-7.6,13.156,22.238,38.512h0l4.325,7.511a65.734,65.734,0,0,1,0,65.8l-4.325,7.511h0l-37.4,64.915h15.182l22.238-38.512h0L399.79,1183.6a78.959,78.959,0,0,0,0-78.89Zm30.409,52.76-30.363,52.487a78.8,78.8,0,0,0-10.47,39.468H402.5a65.757,65.757,0,0,1,8.695-32.776l26.585-46.023Zm37.965,13.133-56.9-98.624a65.847,65.847,0,0,1,0-65.8l26.585-46.023-7.6-13.156-30.409,52.487a78.8,78.8,0,0,0-10.47,39.49h0a78.8,78.8,0,0,0,10.584,39.468l56.9,98.647a39.4,39.4,0,0,1,0,39.445l-11.381,19.734a26.4,26.4,0,0,0-3.528,13.156h11.153l15.182-26.289a52.67,52.67,0,0,0-.114-52.647Zm-22.761,13.179-22.761,39.445a52.511,52.511,0,0,0-7.056,26.312h13.156A39.331,39.331,0,0,1,434,1229.823l11.381-19.734a26.266,26.266,0,0,0-.023-26.426ZM718.764,867.944h0a26.357,26.357,0,0,0,0,26.312l11.381,19.734a39.446,39.446,0,0,1,0,39.468l-56.9,98.624a78.959,78.959,0,0,0,0,78.981l30.363,52.6,7.6-13.156-26.585-46.023a65.848,65.848,0,0,1,0-65.8l56.9-98.647a52.623,52.623,0,0,0,0-52.624ZM696,696.963l22.761,39.445a26.221,26.221,0,0,0,0-26.289l-11.38-19.734a39.445,39.445,0,0,1,0-39.468l41.22-71.4V553.2L696,644.248A52.669,52.669,0,0,0,696,696.963ZM278.291,447.023l22.761-39.468h-15.2l-15.182,26.312Zm440.473,0h0a26.357,26.357,0,0,0,0,26.312l11.381,19.734a39.4,39.4,0,0,1,0,39.445l-56.9,98.647a78.958,78.958,0,0,0,0,78.981L703.6,762.72l7.6-13.156-26.585-46.023a65.848,65.848,0,0,1,0-65.8l56.9-98.624a52.669,52.669,0,0,0,0-52.646Zm15.2-26.312-7.6,13.156L748.6,472.356V446.067ZM711.207,828.5,696,854.743a52.555,52.555,0,0,0,0,52.646l22.761,39.445a26.266,26.266,0,0,0,0-26.312l-11.38-19.734a39.4,39.4,0,0,1,0-39.445l18.983-32.89h0L748.6,789.942V763.7l-37.419,64.8Zm15.182,236.715,22.238,38.512v-26.244L733.991,1052.1Zm0,184.16,22.238-38.512V1184.6l-37.442,64.823Zm0-394.609L748.6,893.437V867.011l-14.635-25.356Zm-7.6,223.6h0a26.357,26.357,0,0,0,0,26.312l11.381,19.734a39.445,39.445,0,0,1,0,39.468L680.8,1249.42H695.98l45.522-78.913a52.624,52.624,0,0,0,0-52.624Zm-410.132,78.958-56.9-98.647a39.467,39.467,0,0,1,0-39.445L263.132,999.5a26.267,26.267,0,0,0,0-26.312l-22.761,39.445a52.624,52.624,0,0,0,0,52.647l56.9,98.624a65.734,65.734,0,0,1,0,65.8l-11.381,19.711h15.2l7.579-13.133a78.913,78.913,0,0,0-.023-78.958ZM696,1117.884l22.761,39.468a26.266,26.266,0,0,0,0-26.312l-11.381-19.734a39.445,39.445,0,0,1,0-39.468l41.22-71.424V974.148L696,1065.192a52.51,52.51,0,0,0,0,52.692Zm30.363-473.431L748.6,682.965V656.539l-14.635-25.356ZM126.406,499.67l30.363,52.578,7.6-13.156-26.585-46.023a65.848,65.848,0,0,1,0-65.8l11.381-19.711H133.986l-7.579,13.133a78.958,78.958,0,0,0,0,78.981ZM88.418,407.556H77.31a26.311,26.311,0,0,0,3.505,13.156Zm7.6,39.468,22.761-39.468H103.6L88.418,433.867ZM35.248,473.312,19.52,446v26.357l4.325,7.511a65.734,65.734,0,0,1,0,65.8l-4.325,7.511v26.312L35.248,552.18a78.913,78.913,0,0,0,0-78.867Zm79.664,59.179a65.734,65.734,0,0,1,0,65.8L88.418,644.339l7.6,13.156,30.363-52.6a78.913,78.913,0,0,0,0-78.958l-56.9-98.647A39.423,39.423,0,0,1,64.2,407.556H51a52.35,52.35,0,0,0,7.056,26.312ZM92.151,545.647a39.445,39.445,0,0,1,0,39.468L80.77,604.849a26.335,26.335,0,0,0-3.482,13.179h0a26.311,26.311,0,0,0,3.505,13.156l22.761-39.445a52.669,52.669,0,0,0,0-52.646l-56.9-98.6a66.007,66.007,0,0,1-8.809-32.913H24.687a78.943,78.943,0,0,0,10.588,39.5ZM263.018,420.689l7.6-13.156H259.6a26.313,26.313,0,0,0,3.505,13.156Zm34.142,111.8a65.734,65.734,0,0,1,0,65.8L270.6,644.316l7.6,13.156,30.363-52.6a78.913,78.913,0,0,0,0-78.958l-56.9-98.647a39.423,39.423,0,0,1-5.281-19.734H233.224a52.35,52.35,0,0,0,7.056,26.312ZM149.213,486.468l22.761,39.445h0a26.221,26.221,0,0,0,0-26.289L160.593,479.89a39.445,39.445,0,0,1,0-39.468l18.983-32.89h-15.2L149.19,433.844a52.624,52.624,0,0,0,0,52.647Zm125.3,59.179a39.445,39.445,0,0,1,0,39.468l-11.381,19.734a26.334,26.334,0,0,0-3.528,13.179h0a26.312,26.312,0,0,0,3.505,13.156l11.381-19.529h0l11.381-19.916a52.669,52.669,0,0,0,0-52.646l-56.9-98.624a66.007,66.007,0,0,1-8.809-32.913H207a78.943,78.943,0,0,0,10.588,39.5Zm-68.283,0-56.9,98.624a52.669,52.669,0,0,0,0,52.646l22.761,39.445a26.221,26.221,0,0,0,0-26.289l-11.381-19.734a39.445,39.445,0,0,1,0-39.468l56.9-98.647a78.913,78.913,0,0,0,0-78.958l-30.454-52.555-7.6,13.156,26.562,46.023a65.734,65.734,0,0,1,0,65.8ZM35.248,1104.705,19.52,1077.392v26.289l4.325,7.511a65.734,65.734,0,0,1,0,65.8l-4.325,7.511v26.312L35.248,1183.5a78.958,78.958,0,0,0,0-78.8Zm182.271,0-30.363-52.6-7.6,13.156,26.562,46.023a65.734,65.734,0,0,1,0,65.8l-41.744,72.335h15.182l37.966-65.734a78.958,78.958,0,0,0,0-78.981ZM35.248,683.784,19.52,656.471v26.312l4.325,7.511a65.734,65.734,0,0,1,0,65.8l-4.325,7.511v26.312l15.728-27.313a78.913,78.913,0,0,0,0-78.822ZM247.9,1157.465l-30.363,52.6a78.8,78.8,0,0,0-10.584,39.468h13.156a65.77,65.77,0,0,1,8.815-32.9l26.578-46.011Zm15.182,26.312-22.761,39.445a52.511,52.511,0,0,0-7.056,26.312h13.156a39.33,39.33,0,0,1,5.281-19.711l11.381-19.734a26.267,26.267,0,0,0,0-26.426Zm-136.7-26.449-56.9-98.647a39.354,39.354,0,0,1-5.281-19.734h0a39.33,39.33,0,0,1,5.281-19.711L80.861,999.5a26.266,26.266,0,0,0,0-26.312L58.1,1012.637a52.509,52.509,0,0,0-7.056,26.312h0a52.532,52.532,0,0,0,7.056,26.334l56.9,98.624a65.734,65.734,0,0,1,0,65.8l-11.381,19.711h15.2l7.579-13.133a78.913,78.913,0,0,0-.023-78.958Zm68.283-39.445-22.761-39.468h0a26.357,26.357,0,0,0,0,26.312l11.381,19.734a39.445,39.445,0,0,1,0,39.468l-49.3,85.491h15.182l45.522-78.913a52.623,52.623,0,0,0,.046-52.624Zm-91.044,52.6-56.9-98.624a65.848,65.848,0,0,1,0-65.8L73.3,960.036,65.7,946.88l-30.432,52.6a78.912,78.912,0,0,0,0,78.958l56.9,98.647a39.4,39.4,0,0,1,0,39.445l-11.381,19.734a26.4,26.4,0,0,0-3.528,13.156H88.4l15.182-26.289a52.669,52.669,0,0,0,.023-52.647ZM35.339,894.233,19.611,866.92v26.517l4.325,7.511a65.734,65.734,0,0,1,0,65.8l-4.325,7.511v26.153L35.339,973.1a78.958,78.958,0,0,0-.091-78.867ZM285.87,1170.485l-56.9-98.624a65.848,65.848,0,0,1,0-65.8l26.585-46.023-7.6-13.156-30.363,52.6a78.912,78.912,0,0,0,0,78.958l56.9,98.646a39.4,39.4,0,0,1,0,39.445l-11.381,19.734a26.4,26.4,0,0,0-3.505,13.156h11.13l15.182-26.289A52.669,52.669,0,0,0,285.87,1170.485ZM80.816,1183.663l-22.761,39.445A52.509,52.509,0,0,0,51,1249.42H64.155a39.331,39.331,0,0,1,5.281-19.711l11.38-19.734a26.267,26.267,0,0,0,0-26.312Zm-15.182-26.2-30.363,52.487a78.8,78.8,0,0,0-10.584,39.468H37.843a65.757,65.757,0,0,1,8.809-32.776l26.585-46.023Z" transform="translate(-19.52 -407.51)" fill="#e3ac00"/>
</svg>
