<svg xmlns="http://www.w3.org/2000/svg" width="619.442" height="619.44" viewBox="0 0 619.442 619.44">
  <path id="Path_87" data-name="Path 87" d="M94.238,327.722c-11.567-2.759-3.1-18.3,6.237-12.606C105.956,319.5,100.891,329.99,94.238,327.722Zm-12.1-9.582c7.125-10.584-16.632-13.4-15.441-3.326C67.382,322.694,80.1,320.8,82.142,318.139Zm239.4-13.759c-8.259-5.575-19.486,12.077-6.558,14.364C322.907,319.973,324.949,307.385,321.547,304.38Zm94.291,7.144c6.067-7.239-3.118-14.647-8.826-6.256a21.809,21.809,0,0,1-6.01,4.819c-9,4.5.4,12.531,8.77,6.256a17.88,17.88,0,0,0,6.067-4.744Zm55.547-2.948c-4.649-11.34-19.807,1.172-9.242,7.56,5.349,3.572,12.4-1.323,9.242-7.484Zm13.967-8.958c-2.986-9.11-14.194-4.366-8.24,4.12,3.78,5.405,5.67,18.125,13.324,11.775,4.99-3.232-2.948-10.867-5.16-15.819Zm101.983,6.8c-9.053-7.56-18.9,2.873-7.257,9.034C588.658,319.765,596.974,312.28,587.335,306.422ZM60.408,310.2a5.935,5.935,0,0,0-6.861-8.316c-9.034,3.478-16.14,18.446.416,13,3.421-1.342,5.311-2.7,6.369-4.668ZM194.6,285.632c-1.418-8.732-19.3-.113-20.79,6.048-4.026,6.842.454,27.386,10.433,21.149,5.538-5.67-14.137-18.6,2-20.6,6.369-.794,9.11-2.967,8.184-6.615Zm257.038,12.7c-7.333-6.577-17.426,9.45-8.807,13.816,8.807,3.459,12.871-9.885,8.675-13.835Zm-246.511,2.457c-5.859-3.024-18.39-6.558-14.364,4.158.756,3.515,9.034,3.912,12.682,5.368C212.23,314.095,215.1,303.133,205.124,300.789Zm153.315-1.247c-10.206-.888-15.12,7.258-3.515,9.9a27.723,27.723,0,0,0,6.955.907C370.4,308.727,367.53,298.446,358.439,299.542ZM86.017,297.52c-5.67,7.333,5.122,12.965,11.34,9.45C105.2,299.863,92.821,292.209,86.017,297.52Zm131.732,1.455c-3.364,6.294,6.2,11.17,11.453,8.675C238.368,300.789,221.869,290.735,217.749,298.975Zm346.906-2.287c-3.666-3.78-4.649-5.991-5.67-12.266a6.312,6.312,0,0,0-11.812-2.306c-4.328,4.706,8.864,12.833,9.3,17.255,1.89,6.766,5.084,10.7,10.773,7.409C570.325,304.248,569.89,302.245,564.655,296.688Zm59.119-.454c-5.8-4.687-19.542,2.646-10.357,9.072,5.349,4.026,16.575-2.929,10.319-9.072ZM274.618,249.7c-3.251-1.7-6.785.907-6.785,5.027.68,9.752,17.652,3.364,15.725,17.577,0,4.46-.832,6.9-4.063,11.737-3.78,4.366-3.345,17.142.51,19.656,5.424,2.722,8.278-.473,6.653-7.749-.7-4.045-.662-4.5,1.134-10.6C297.26,260.306,293.291,264.88,274.618,249.7Zm117.444,41.674c-9.318,2.381-1.758,17.577,6.142,12.4,6.35-4.1.567-14.988-6.142-12.4ZM42.6,295.649c-6.086-11.037-18.3,2.287-8.788,7.9,5.594,3.289,11.6-2.8,8.788-7.9Zm261.517-25.458c-3.137,0-4.12,1.569-6.634,10.47-11.586,28.5,16.2,27.046,7.56,13.476C296.5,284.158,319.6,276.522,304.121,270.191ZM433.3,290.98c-6.01-6.9-15.384,4.763-9.45,10.886,6.161,5.84,15.46-5.953,9.45-10.867Zm159.647-.265c-9.185,2.551,0,14.8,7.125,11.85,9.129-3.515-.132-14.912-7.068-11.831ZM528.689,268.66c8.732-8.354,1.984-13.1-4.574-10.281-2.306,2.344-3.78,8.5-6.672,10.924-2.476,2.495-2.551,2.722-3.024,7.919.151,5.046-5.1,21.9-1.455,23.549,5.027,3.78,11.132-.359,8.788-8.467-1.474-9.9.227-15.668,6.993-23.625ZM69.423,289.449c-8.373,1.531-6.766,12.077.662,12.134,12.625.189,10.735-15.12-.6-12.077Zm434.45-19.656c-6.01-2.022-10.225,2.929-6.5,10.187,1.474,5.046.907,5.575-2.155,9.866-10.565,11.038,10.7,17.426,9.072,1.89C503.779,286.1,510.677,271.438,503.873,269.794ZM381.913,289.9c-3.534-11.869-21.527,1.89-10.055,7.56C377.3,299.542,382.914,295.271,381.913,289.9Zm78.907-6.142c-8.2,6.5-1.72,20.053,7.314,12.323C473.936,291.264,468.984,279.262,460.819,283.761ZM317.672,282.57c-5.783,1.247-7.768,10.168-2.06,13.135,11.6,6.256,14.269-15.687,2.06-13.135Zm-267.357-4.9c-12.644-3.005-3.78,13.589,1.039,16.518C63.243,298.219,56.382,279.64,50.315,277.675Zm354.429,6.313c-3.1,4.536,3.78,14.345,9.072,9.733,9.337-6.69-3.081-20.072-9.072-9.733Zm-197.428-2.911c-6.483.17-8.845,8.543-1.758,11.529C218.391,298.408,220.054,280.415,207.316,281.077Zm144.584.51c-10.792,8.864,1.455,14.628,8.959,8.41C366.679,283.591,357.985,276.654,351.9,281.587Zm-115.459.586c-4.423-11.869-22.377,0-9.45,6.842C233.606,292.02,238.349,288.6,236.441,282.173Zm212.094-5.084c-7.409-3.893-13.872,7.428-7.314,12.379C448.478,293.7,456.926,280.51,448.535,277.089Zm27.291,3.874c-.132,5.67,7.56,10.376,11.718,6.6C497.353,277.921,478.132,269.189,475.826,280.963ZM9,279.924V289c6.8,1.644,3.1,11.51,5.046,15.951,3.874,5.368,11.113-.17,9.337-6.917.265-5.1-7.447-15.933-11.869-17.312h0Zm0-19.5v12.228c7.371,3.648,13.23-3.4,8.051-9.752A7.39,7.39,0,0,0,9,260.419Zm0-60.876v14.685c3.61-2.873,5.368-6.88,3.289-11.548A4.423,4.423,0,0,0,9,199.543Zm0-16.556v8.864c1.1-1.493,1.021-7.5,0-8.864ZM9,157.3V173.31c5.424-.567,10-8.637,7.825-12.587C16.069,159.154,12.553,155.62,9,157.3Zm0-34.36v14.553c4.063-1.474,6.88-4.12,6.5-8.448C15.048,124.246,12.78,121.94,9,122.942ZM9,86.276v13.23c4.763-1.1,6.35-7.673,3.307-11.227a6.369,6.369,0,0,0-3.307-2Zm0-33V63.956c5.1.094,10.565-.246,11.34-4.668C21.115,53.939,14.027,51.671,9,53.277ZM9,35.266V46.492a9.45,9.45,0,0,0,3.326-2.022C15.747,41.389,12.78,36.759,9,35.266ZM9,21.771V27.2c13.608,13.419,20.96-13.608,3.78-8.089A11.434,11.434,0,0,0,9,21.771ZM9,310.75V323a9.979,9.979,0,0,0,4.441-7.56C13.385,312.2,11.419,310.258,9,310.75ZM628.253,289v-9.072c-2.551-1.758-21.678-2.173-23.587.85-3.78,5.462,2.816,10.489,10.282,6.9A15.763,15.763,0,0,1,628.272,289Zm-530.594-1.89c8.826-10.47-17.634-14.4-17.01-4.612.17,8.014,14.5,7.182,17.029,4.706Zm145.378-8.486c0,9.828,8.221,8.032,9.355,7.56,12.153-6.917-6.01-21.81-9.337-7.465Zm-206.2-1.947c-7.711-7.22-22.283.189-9.45,9C33.022,288.051,40.317,281.1,36.839,276.673Zm306.423-2.533c-5.67-5.953-16.821,4.234-11.34,9.677C336.761,289.412,348.025,279.414,343.262,274.141Zm55.4.662c-5.405-6.974-23.114.132-12.228,8.373,3.761,2.1,17.331-.586,12.228-8.448ZM597.3,281c8.3-15.366-24.211-11.34-11.34,1.247,2.608,2.173,8.259,1.55,11.34-1.323ZM59.614,274.916a8.6,8.6,0,0,0,13.381,5.67C83.711,271.948,58.763,264.88,59.614,274.916Zm214.456-5.33c-7.787-8.089-16.14,6.691-7.806,11.567C273.087,285.726,278.19,273.2,274.07,269.586Zm149.006-.832c-5.878,5.67-1.077,16.405,6.842,12.927C436.836,278.563,430.164,262.423,423.076,268.754ZM110,268.924c-5.254-1.115-8.032,1-6.955,5.33a13.627,13.627,0,0,0,7.012,6.634c11.6,3.931,12.134-10.735-.057-11.964Zm286.786-13.967c-1.342-1.512-4.99-.756-10.3.435-8.581.416-14.988,5.141-18.635,14.194-3.78,5.67-2.986,8.9,1.89,9.677,14.61-2.155-2-18.9,25.156-14.836,3.326-.737,4.46-6.577,1.89-9.469ZM183.5,266.3c-5.122-5.443-13.494,4.63-9.677,9.866,4.933,5.009,15.611-3.421,9.677-9.9Zm16.122-18.9c-5.122,1.38-4.29,9.166-6.445,14.1-2.268,6.407-1.89,13.079,1.058,15.12,5.878,3.156,9.45-2.287,6.728-8.826-1.455-4.12-.813-6.048,3.383-9.639,7.05-5.027,1-12.1-4.725-10.811Zm17.01,13.816c-8.278-3.534-10.584,12.568-3.024,13.8,10.206,2.249,10.678-11.472,3.005-13.854Zm107.729,2.022c-6.142-2.608-14.685,5.878-6.6,11.756,6.048,4.007,15.422-9.015,6.5-11.812Zm148.647,2.854c.832-1.228-19.051-2.646-19.278-.189-4.29,7.768,7.862,10.83,13.854,8.486,4.838-.51,8.845-4.838,5.33-8.354Zm-106.2-14.118c-.643-8.07.151-25.571-10.036-27.443-5.991,0-6.634,4.252-2.646,8.845,7.069,9.62,5.179,20.79-1.569,29.559-10.849,11.907,5.67,14.8,8.146,3.78,1.4-4.366,6.483-10.13,6.01-14.8Zm47.476,8.618a16.574,16.574,0,0,1-.888-8.165c1.247-8.089-4.234-9.148-8.429-6.124-4.99,5.084,4.725,12.209-.095,18.692-1.777,3.875-1.588,5.821.756,7.654,6.577,4.253,11.85-5.065,8.562-12.115Zm191.474-.737c-1.89-5.5-.85-18.352-9.6-11.34-3.024,3.156-1.058,8.089.359,11.586,7.919,15.29,16.348,12.927,19.75,11.151,7.276-5.991-9.223-8.448-10.6-11.453Zm22.68,12.852V260.476a7.069,7.069,0,0,0-4.026,4.347c-1.8,3.648.718,6.464,3.856,7.825ZM235.477,257.981c-7.843-.6-8.656,10.244-2.23,12.89,10,3.893,12.587-12.89,2.06-12.946Zm-74.995-.113c-4.971,1.418-6.124,9.79-1.436,12.077,9.355,4.328,15.951-16.594,1.266-12.134Zm315.627-15.422c-2.646-.7-7.56,5.008-9.563,5.953-7.333,3.175-18.012-7.843-24.683.132-5.972,4.725-9.185,27.272,3.629,20.28,3.081-2.287.151-7.39-.246-10.678-.4-9.6,17.577,2.533,26.932-2.079,6.709-2.835,14.232-12.153,3.761-13.665ZM50.2,258.416c-1.588-.775-2.948-.85-6.785.869-5.67,4.479-13.079-5.519-17.841-3.118-9.45,12,17.01,11.85,23.587,13.381C59.047,270.361,56.079,261.421,50.2,258.416Zm48.44,9.45c6.615-12.417-29.786-11.926-18.5.661,3.8,2.173,15.8,2.117,18.5-.6Zm382.438-8.6c-6.936,6.634,4.593,10.754,9.6,8.2,11.113-6.1-2.306-17.482-9.6-8.146Zm-232.6.907c0,8.3,7.56,6.558,8.713,6.1,14.8-7.919-6.747-21-8.713-6.048Zm338.061-4.668c-9.034-5.859-19.939,5.519-8.165,11.019,5.065,1.474,14-4.971,8.165-10.962ZM350.01,245.413c-.661-5.67-3.459-14.7-8.807-11.718-4.007,1.89,0,10.981-.189,15.006,1.418,4.612-13.438,12.531-5.67,16.537C342.979,270.039,351.238,250.176,350.01,245.413Zm-207.048,4.158c-10.735.662-5.557,12.871-.3,14.061C151.3,265.22,152.866,250.591,142.962,249.571Zm162.765,2.8c-5.008-2.041-9.733-7.749-14.761-10.452-5.67-3.383-7.144-5.67-6.52-10.281.756-5.5.756-20.525-.359-22.434-4.177-7.012-13.476-4.46-8.845,5.5,4.952,8.335-4.5,25.364,5.67,30.24,10.792,4.007,19.864,22.151,26.365,18.333C312.626,260.23,313.571,254.749,305.727,252.368ZM502.021,254.9c-3.062,6.124,7.087,12.682,11.132,7.258,8.958-7.768-7.087-16.821-11.094-7.258Zm-430.1,6.842c5.046-6.275-13.948-14.421-15.12-23.4-1.89-6.2-8.524-11.34-10.244-3.515-.038,3.4,4.026,13.022,5.916,14.742,3.78,2.911,8.562,9.261,11.075,12.36a7.182,7.182,0,0,0,8.373-.189ZM422,245.791c-3.289,3.591-1.7,16.613,4.215,15.5C434.416,258.832,433.434,237.853,422,245.791Zm-247.588.491c-6.8,6.048,4.139,14.628,10.149,11.775,8.921-5.065-4.423-17.331-10.149-11.794ZM626.458,229.9c-1.153-10.017-12.682-7.314-11.529,4.045,0,5.557-4.687,13.23-3.289,15.838.6,10.943,16.575,10.981,10.282-1.89-5.065-7.484,4.252-11.945,4.536-18.012Zm-294.516,10.83c-.132-3.062.794-8.221-2.117-10.338-6.974-5.1-11.189,1-6.917,7.371,2.306,4.9,2.041,6.086-2.211,10.055-8.392,6.993,2.344,10.055,7.258,6.955,4.234-4.4,3.837-4.2,3.988-14.061Zm-110.3,2.06c-3.478-1.625-5.443-7.371-7.749-9.62-7.125-4.082-12.379,5.67-3.78,9.866,5.67,3.459,8.051,17.426,16.443,11.227,4.063-4.46,2.173-7.239-4.914-11.491Zm368.4-4.914c-6.785-3.478-9.714-.813-19.712,3.213-17.936,8.845-24.57,6.747-41.958.813-5.5,0-19.75-17.482-21.659-5.235,0,4.271,1.569,6.086,7.56,8.3,10.792,3.194,20.072,10.943,33.264,10.111,18.257,1.531,25.458-9.979,39.236-8.448,4.347.189,5.764-5.8,3.269-8.769Zm-574.309-.907c-3.307,0-5.046,2.117-5.349,6.539-.283,4.045,1.55,8.392,4.082,9.639,12.134,5.027,8.467-17.52,1.266-16.2Zm62.955,2.778c-6.048-7.787-20.79-22.226-13.23-31.487,3.081-4.385,3.194-8.3-2.476-8.77-6.728-.151-9.355,10.187-7.56,17.785,1.72,12.455,11.548,20.676,21.187,33.415,7.995,5.8,12.852-2.022,2.079-10.962Zm-49.347-5.67c-3.61,1.89,2.079,17.407,6.161,17.652,16.726,5.765,1.115-27.461-6.161-17.6Zm215.231,5.254c-13.362-3.251-12.379,16.689,0,11.7,5.273-2.551,6.35-9.563,0-11.642Zm-120.6.321c-5.349.643-18.56-16.9-24.759-26.705-2.627-4.857,6.445-25.553,1.89-31.185-2.1-6.5-35.418-17.01-35.664-11.056-2.589,3.44,2.759,9.337,7.106,8.675,13.23-1.663,27.443,4.838,19.807,19.694-6.6,12.909.416,19.713,4.2,24.286,9.015,13.23,13.589,20.336,29.314,27.443,10.943,2.741,8.108-8.788-1.89-11.094Zm35.267-2.136c-11.34-.151-5.368,17.9,3.988,12.4,6.275-2.533,2.533-12.606-3.988-12.342Zm226.893.416c-2.306,1.172-10.584,1.115-11.964,3.194-1.777,2.173-2.192,6.861.964,8.675,4.347,1.89,10.017-4.706,16.9-3.78,15.762-.227,9.469-14.345-5.9-8.032Zm108.372-1.89c-13.381,2.041-5.33,19.448,3.931,11.793,4.876-3.5,1.966-12-3.931-11.793ZM266.926,212.527c-.359-7.069-10.168-8.958-11.189-1.7,1.172,4.857,7.39,15.12,5.424,19.845-1.361,4.215-9.45,13.438-2.7,15.838a5.84,5.84,0,0,0,8.448-2.8C269.421,236.341,269.194,219.331,266.926,212.527Zm46.607,22.793c-3.1-3.005-26.46-16.878-20.242-1.758,4.026,3.175,12.285,8.108,15.97,11.737C314.648,248.853,316.727,238.458,313.533,235.32ZM137.1,228.365c-16.878-7.258-23.776-19.75-18.9-34.284,2.608-6.275,1.1-10.584-4.838-11.529-3.213,0-3.931,1.569-3.931,8.751.416,6.955-3.118,15.309-1,20.374,3.988,6.086,10.225,17.955,19.2,20.79,6.464,1.191,9.847,9.79,15.007,9.9,10.263-2.249,4.574-10.754-5.538-14Zm62.01,9.62c5.67-15.12-25.779-6.5-10.848,3.27a7.56,7.56,0,0,0,10.848-3.27Zm231.353-3.1a7.106,7.106,0,0,0,10.867,5.368C454.167,232.145,432.073,222.015,430.466,234.886Zm180.191-17.01c-.491-7.409-15.12-7.56-11.34,2.419,1.285,4.5,1.247,4.838-1.134,9.733-6.747,11.812,10.867,16.537,8.769,1.455-.378-3.856,3.515-10.263,3.78-13.7Zm-158.192,14.1c-3.194,6.747,9.166,11.132,12.984,7.144,7.5-7.617-9.337-17.085-12.909-7.239ZM423.4,234.753c2.57-5.386-11.586-10.338-16.178-6.218-3.421,3.213-1.4,7.56,4.479,9.752s10.6.473,11.775-3.629ZM216.067,217.384c-.964-.907-2.929-1.89-11.245-2.306-14.345-.718-18.673-.813-21.716,0-9.337,3.062-21.98,14.7-11.85,22.548,13.23,5.557-5.349-24.06,33.623-13.1,8.032,2.646,14.988-.7,11.264-7.239Zm362.348,2.665c-9.866,3.61-22.264,11.964-32.886,10.338-12.247-3.307-27.121-7.239-26.176-22.415,1.777-10-5.821-14.553-8.807-4.536-2.627,5.8,1.777,12.531,3.307,18.012,3.78,9.3,25.118,17.785,36.08,17.331,7.182,2.306,23.341-10.943,34.114-10.13,16.518.567,6.143-16.5-5.556-8.694Zm-346.85,4.385c-13.4-5.065-12.757,12.3-1.512,12.852C236.384,236.039,236.327,227.061,231.564,224.434Zm255.148,4.536c-1.323-12.323-19.561-4.574-11.548,5.008,4.12,4.1,11.586.85,11.586-5.008ZM245.3,213.982c-8.373,1.172-4.29,14.515-.246,18.3,13.419,7.579,6.709-18.5.284-18.3Zm127.725,3.024c-8.864,1.89-2.022,20.563,7.069,14.534,6.9-4.555-1.417-14.723-7.031-14.534Zm-350.082,1.21c-9.62-5.424-14.1,9.318-4.479,12.058a6.438,6.438,0,1,0,4.517-12.058Zm127.9-1.89c-10.376-2.608-21.659-7.56-15.914-18.56a8.883,8.883,0,0,0,1.115-5.2c-11.68-14.1-15.328,18.068-5.084,23.1,4.952,5.462,13.7,4.971,19.41,11.34,3.383,3.307,4.234,3.78,6.161,3.78,10.433-1.909,1.361-13.476-5.651-14.383Zm237.25-9.053c-6.8-3.213-12.4-16.348-18.389-13.1-5.008,3.345,0,12.039,9.922,17.01,14.723,4.479,5.424,23.1,19.467,17.293,4.46-4.971-3.912-16.707-10.962-21.13Zm114.193,8.278c-8.184-5.273-13.23,9.733-5.216,13.438C507.275,233.033,507.956,219.936,502.286,215.551Zm-69.778,95.236c-9.166-3.383-17.539,10.546-4.252,12.7,7.692,1.4,11.983-10.206,4.271-12.776ZM43.549,213.945c-9.45-3.081-12.965,8.543-4.9,12.247C49.03,231.559,50.882,216.364,43.549,213.945Zm289.356,0c-7.22,3.213-2.438,8.959,2.967,11.34C352.259,231.635,345.8,209.333,332.905,213.945Zm-24.192-1.455c-6.653-1.058-20.79-6.842-17.01,4.744.756,1.89,4.687,2.533,9.563,2.457,5.216-.813,11.151,5.783,15.12,5.67,12.19-2.873,1.607-13.381-7.673-12.871Zm116.291,0c-4.423-.624-11.548-3.572-15.422-3.78a5.084,5.084,0,0,0-3.251,9.129c4.366,3.137,13.665-.661,17.539,4.2,2.892,2.192,3.629,2.476,5.67,2.192,8.751-2.835,5.991-11.434-4.536-11.812Zm17.69-.737c-2.287,4.725-1.361,9.715,2.155,11.6,14.817,6.709,7.182-27.839-2.155-11.586Zm26.2-5.216c-.491-2.665-.907-4.819-2.306-5.67-9.714-3.78-7.031,10.017-5.538,15.687.189,5.179,4.9,7.447,8.769,4.5,3.515-3.5-.567-9.563-.926-14.591Zm101.492-2.155c-9.639,3.78-20.185,14.8-31.506,6.88-3.364-2.57-4.555-5.67-4.441-11.964-.567-12.738-6.369-13.551-3.553-30.637,1.361-9.337-.094-13.7-7.125-11-4.763,2.419-.794,13.759-1.323,18.786-.7,11.812,4.026,20.053,4.838,29.748,0,10.282,4.517,11,14.213,14.912,8.543,4.347,19.883-2.986,28.236-5.821,9.639-2.1,9.639-11.378.6-10.981Zm-210.374,1.21c-13.7,1.644-11.056,16.481.907,12.1a6.1,6.1,0,1,0-.907-12.171ZM235.8,212.83c2.1-4.555-1.134-8.543-6.936-7.787-9.828,0-10.773,9.96-2.117,11.34C231.016,217.309,234.475,215.929,235.8,212.83Zm-20.676-14.1c-.3-2-27.707.132-33.434.68-6.634-.794-32.13,11.51-16.632,17.01,14.439-6.9,6.974-10.414,32.47-9.45,17.331.113,22.491.435,17.577-8.24Zm272.158,9.809c-1.625-2.211-1.493-12.776-3.553-14.024-11.17-3.156-7.768,14.912-3.78,20.469C484.161,218.613,490.946,214.965,487.279,208.539Zm140.993,5.67V199.524c-4.422-1.115-6.823,6.464-9.185,9.658-5.2,7.56,2.552,10.565,7.806,6.331.132-.113,1.191-1.134,1.38-1.285ZM26.256,185.141c.926-12-1.493-14.515-8.07-8.883-4.517,8.486,2.173,20.487,2.646,29.5a6.842,6.842,0,0,0,6.388,6.407C39.24,212.225,23.477,196.746,26.256,185.141ZM592.7,197.729c-6.294-4.063-14.988,9.45-6.6,12.644,10.206,5.727,11.794-8.807,6.6-12.644Zm-268.737-2.495c-5.349,1.1-8.354,10.149-2.967,13.23,10.678,7.087,13.324-14.118,2.967-13.23Zm179.719,5.8c-2.646-17.445-17.8-3.61-7.56,6.823C499.867,210.013,503.684,206.536,503.684,201.036Zm-346.51-10.055c-1.512,8.221-14.817,3.289-15.12,10.338-.227,4.158,3.912,6.615,7.957,6.6,6.275-.246,6.048-7.862,12.852-10.206C177.379,192.682,162.448,178.734,157.175,190.981ZM46.686,196.519c-5.538-5.405-5.953-6.917-3.478-12.776,1.89-4.612,1.89-6.709-.095-9.072-2.948-4.252-9.166-.113-9,4.366v11.7c.737,4.063,5.084,15.12,7.56,15.517,7.012,4.082,10.792-5.462,5.008-9.715Zm291.643,3.062c-3.78,6.861,4.819,10.6,8.864,4.1,2.627-3.78,5.235-5.443,8.392-5.443,15.97-1.077,4.441-21.754-17.256,1.361Zm88.187-4.158c-4.612-.983-10.111-7.258-14.5-2.249-2.495,5.859.17,8.373,9.45,9.847,4.649.151,14.931,6.974,17.445,3.345,6.275-8.316-7.239-9.715-12.4-10.924Zm-185.048-.246c-4.139,5.67,2.249,15.687,8.656,9.6C259.309,197.672,249.9,185.557,241.468,195.177Zm367.81-2.306c-10.546-1.89-9,14.78.548,13.57C616.856,204.4,616.592,195.517,609.278,192.871Zm-217.972-6.445c-2.079-4.1-5.67-5.008-8.618-2.117-7.881,4.838,16.292,24.456,20.166,20.79,10.754-8.259-9.677-10.168-11.548-18.692Zm151.747,10.225c-4.177,7.239,4.252,11.34,11.794,7.05C572.952,194.553,551.18,189.091,543.053,196.651Zm-240.689-2.665c-4.593,4.423-14.572-5.991-18.5-2.8-3.081,3.081-1.323,8.845,3.685,10.735,4.574,2.174,9.45-1.512,14.288.926,14.458,7.352,12.814-15.328.529-8.807ZM273.6,199.222c11.038-16.764-26.006-10.641-8.6.907C268.929,201.905,271.2,201.679,273.6,199.222ZM76.265,186.993c-11.718,1.89-2.23,16.67,6.1,13.022C89.457,195.668,84.732,185.141,76.265,186.993Zm379.074,2.986c-1.493-2.476-1.89-2.646-13.022-6.558-18.56-5.67-14.723-7.39-19.335-18.371a8.807,8.807,0,0,0-10.6-2.419c-6.124,4.309,3.78,8.94,5.953,12.89,2.1,9.45,6.029,11.793,17.01,13.721,7.73.113,10.206,6.955,13.967,11.038C454.469,202.321,458.57,195.29,455.339,189.98ZM232.7,188.316c-5.9-6.067-20.487,1.89-10.962,8.259,6.124,3.27,17.615-1.682,10.962-8.259Zm348.1-2.173c-5.311-5.783-18.786,5.519-10.584,10.716,6.766,3.421,15.838-5.764,10.584-10.716ZM54,180.473c-4.668,1.89-4.687,10.036.548,12.72C69.234,198.541,65.7,176.05,54,180.416Zm412.376.813c-6.275,3.5-4.12,14.25,3.27,12.1C479.852,188.77,479,175.956,466.376,181.286Zm48.781,4.649c-1.04-3.043-.7-20.582-2.627-22.075-4.99-4.063-11.094,2.419-7.73,8.656,3.78,6.048-3.478,15.819,3.667,20.072C514,195.593,516.82,192.059,515.157,185.935Zm113.115,5.916v-8.864c-2.7-6.067-13.4-3.78-14.515,1.606.68,5.67,8.448,10.981,13.778,8.108a3.192,3.192,0,0,0,.737-.85ZM196.845,181.531c-7.05,5.386-15.838-1.89-21.414,1.625-5.67,8.07,2.57,10.508,11.926,8.165,5.5-1.077,25.628-1.89,25.118-3.61C218.127,178.753,203.026,177.166,196.845,181.531Zm139.689-1.89c-6.653-3.591-10,9.015-5.254,11.7,6.577,3.95,14.137-7.919,5.254-11.6Zm-13.23-1.72c-5.481-12.171-18.2,8.6-7.428,11.926,5.594,1.38,7.9-7.843,7.352-11.831Zm268.378-.737c-5.273,5.424-3.289,12.342,3,13.116,16.405-2.173,3.478-20.506-3.118-13.022Zm-439.648.567c-5.481-6.653-16.424,4.5-10.886,10.489C145.589,193.344,157.666,183.648,152.034,177.751Zm400.223-30.429c-8.108-3.289-12.209,5.859-12.89,13.23,0,4.479-2.7,26.252.907,27.272,6.407,4.9,9.11-1.172,7.56-6.842a98.149,98.149,0,0,1-.208-20.79C549.2,156.565,557.454,149.817,552.257,147.323ZM398.526,176.2c-3.685,4.517,1.418,9.752,5.67,11.34C421.224,191.473,406.35,164.068,398.526,176.2Zm98.563-2.06c-3.043-6.974-13.967,4.479-13.362,8.713,1.8,15.233,18.2,1.228,13.362-8.713ZM291.912,180.3c-.68,5.67,7.39,7.787,10.886,5.519C311.983,175.124,294.69,167.735,291.912,180.3Zm272.857-13.778c4.347-7.031-.851-12.852-6.577-9.11-6.142,5.368-4.555,25.4-1.285,28.35,5.481,3.459,10.943-4.574,7.258-10.508C562.6,171.647,562.765,170.513,564.769,166.525Zm-195.16,4.536c-6.407,0-8.618,8.807-3.44,13.608C376.375,192.493,379.569,170.872,369.609,171.061Zm-97.6,1.021a122.4,122.4,0,0,1-20.506,3.78c-4.347.265-13.419-3.553-15.706-.586-2.23,2.211-.983,6.936,2.287,8.713,1.607.756,3.156.85,6.539.246,5.2-1.361,11.189,1.89,16.254-1.134,6.048-3.364,9-4.045,14.515-.869C292.8,191.227,283.86,166.714,272.01,172.082ZM133.021,171.7c-5.67-5.878-16.462,3.251-9.166,9.847,5.594,5.746,14.666-4.914,9.166-9.941Zm221.941,9.185c8.6-11.7-20.79-15.252-8.977.359a6.672,6.672,0,0,0,8.977-.454Zm98.6-11.68c-14.893,1.134-13.986-11.453-20.979-19.391-5.273-2.74-11.34-1.739-16.821-3.213-7.012-2.684-10.527,3.345-5.935,7.56.888,1.285,4.271,1.21,8.618.794,13.23-2.8,10.811,13.967,19.2,18.257,3.988,1.89,10.905,3.78,14.326,5.33,11,5.141,15.441-10.886,1.588-9.431Zm-280.719,2.873c-4.971-11.094-23.247-1.04-11.189,6.5C167.759,181.3,174.9,177.109,172.843,172.082Zm48.195-5.1c-5.67,2.022-7.692,13.23.775,12.474,12.493.3,8.2-13.173-.775-12.4Zm357.207-2.8c-6.369-1.172-9.45,12.852-1.72,13.57,10.319,2.1,11.718-14.194,1.7-13.494ZM115.2,171.4c1.89-8.354-12.531-7.106-18.087-11.51-6.086-4.8-17.237-4.517-25.1-7.976-7.56-3.78-13.06-2.4-9.79,5.046,6.048,7.806,12.757,1.89,24.06,7.447,14.439,4.158,14.25,6.5,21.886,11.926,3.062,1.285,6.445-1.1,7.05-4.857Zm280-17.085a20.977,20.977,0,0,0-2.986,4.536c-1.436,4.1-14.666,11.491-9,16.443,7.182,6.2,8.543-7.239,15.12-9.45C409.941,162.632,402.211,148.891,395.2,154.316Zm226.477-11.661c-1.342-.113-13.57,6.52-12.833,13.419.189,6.294-7.56,14.024-2.117,18.371a4.952,4.952,0,0,0,5.821,1.077c7.995-4.4-3.78-16.084,9.091-21.716,6.407-2.514,6.256-10.338.038-11.151ZM191.591,164.673c-5.67-4.215-18.276,6.842-8.108,10.338C191.724,178.715,200.512,170.494,191.591,164.673Zm280.341,7.9a8.883,8.883,0,0,0,7.56,0C498.506,156.357,451.256,159.381,471.933,172.573Zm156.339.737V157.3c-4.347,1.436-8.637,14.761-1.266,15.876A4.138,4.138,0,0,0,628.272,173.31ZM50.58,158.36c-5.386,0-6.18,9.733-1.1,13.23C63.091,177.94,61.523,159.286,50.58,158.36Zm288.033,6.653a17.615,17.615,0,0,0-7.447-6.955c-6.785-1.7-9.053,11.794-1.89,13.967,4.9,2.211,11.189-2.495,9.318-7.012ZM212.495,137.495c-.907-2.684-.529-10.244-1.4-15.933-.624-6.388-8.959-13.419-5.878-20.015,1.512-5.67.832-8.108-2.06-9.45-6.861-1.4-7.56,0-6.88,10.641a25.213,25.213,0,0,0,3.213,13.665c7.22,9.45,3.156,14.5,4.9,23.984,1.7,2.608,3.969,6.5,4.063,9.034,3.043,7.995-12.474,15.12-6.218,21.338,3.78,2.136,6.88,1.021,9.45-4.479C220.678,153.673,218.07,149.666,212.495,137.495Zm73.483,21.357c-5.122,2.7-4.479,9.6,1.455,10.395C301.135,171.4,298.716,151.934,285.977,158.852Zm19.542,1.115c-5.67,4.782.68,13.23,8.713,8.788,8.5-5.575-.832-17.369-8.713-8.883Zm-270.268-6.35c-4.593.151-15.687,10.716-7.919,15.12,6.88,3.345,20.7-14.383,7.919-15.214Zm116.5-45.794c-9.828,18.749,1.417,22.283,2.362,37.138.51,17.01-10.716,10.168-16.8,17.237-2.457,6.256,4.914,8.713,10.678,5.8,36.722-20.2-9.015-45.36,16.689-62.18C177.454,97.295,158.989,86.371,151.75,107.822ZM276.489,143.94C270.1,159.06,251.22,163.8,236.8,155.676c-8.581-4.328-12.8-3.78-12.4,1.682,4.687,10.678,30.24,11.34,39.69,8.9,13.948-3.78,9.752-7.692,18.711-14.345,8.694-3.95-.85-12.531-6.294-7.938ZM591.739,149.4c-4.706,3.213-2.419,23.209,5.424,17.01C600.565,161.535,604.647,142.333,591.739,149.4Zm-232.468,7.371c-11.34-3.081-15.819-5.67-15.838-13.457-1.663-8.127,10.867-13.23,11.491-19.183-4.612-21.111-24.116,19.41-19.3,25.76,6.728,10.244,18.522,15.12,24.381,16.84,6.2-.321,6.2-8.977-.737-9.885ZM492.533,133.2c-9.45-15.384,13.23-23.625-2.608-45.36-13.041-20.3-1.663-19.9-.246-37.459-.548-10.395.359-18.03,5.273-23.474,12.3-12.285-3.213-21.527-6.728-7.087-5.462,15.857-9.11,15.12-6.728,33.113-.416,2.722-1.039,3.78-4.952,9.45-6.218,10.3,4.952,25.5,9.45,35.116,6.426,9.752-13.135,28.01-1.285,38.631,11.34,9.6-.737,25.76,8.165,29.068,3.931,1.455,7.9-2.608,7.05-9.053-2.079-15.063-2.419-15.366-7.39-22.869Zm-110.432,25c3.005-3.383,10.225-10.7,3.005-13.079-6.69-2.476-22.132,19.372-10.527,19.278C376.262,164.408,377.244,163.6,382.1,158.209ZM123.854,150.5c-5.519,1.531-9.337,9.45-3.326,12.436C132.076,166.979,136.876,149.874,123.854,150.5Zm44.244,4.725c-2.325,6.388,5.935,8.883,9.7,5.953C188.284,153.975,170.631,143.448,168.1,155.223Zm295.291,0c-1.7-7.276-23.757-8.448-18.163.964a8.013,8.013,0,0,0,6.52,4.555c8.467,1.663,13.079-.491,11.642-5.462Zm-270.268-13.23c-7.314.265-7.673,11.34-2.344,14.572,10.83,6.067,12.285-14.723,2.249-14.515Zm383.837,4.555c-3.686-1.89-4.46-2.551-5.916-5.292-2.778-7.957-12.077-8.807-13.438-2.174-.851,5.67,8.467,8.014,11.586,12.058,2.476,2.57,4.479,6.8,8.316,6.558,6.653-.6,7.484-8.089-.643-11.094ZM512.095,15.213c-4.706,1.474-5.519,11.775-9.677,15.347-4.158,4.063-4.366,4.782-4.782,16.575a39.934,39.934,0,0,1-2.892,16.443c-10.017,17.237,18.616,31.412,5.878,52.655-3.44,8.429-3.232,10.092,2.344,18.9,3.553,3.648,2.929,15.12,5.991,20.242,2.1,2.514,5.065,2.476,7.56,0s2.173-4.234-3.534-16.613c-10.225-15.762-.869-26.611,0-39.2-1.89-11.34-17.01-22.68-9.677-35.116,4.271-6.917,1.342-35.343,9.45-35.343C521.715,26.553,523.076,9.429,512.095,15.213ZM109.169,144.941c-3.4-1.417-11.34-.643-14.61-3.78-4.46-3.1-10.66-1.417-15.63-3.4-9.3-2.362-24.437-15.366-32.3-19.883-9.45,1.89-4.347,12.871,3.931,13.57,7.56,2.438,10.848,9.771,22.566,12.568,11.132,3.78,21.3,4.177,30.107,10.263C111.475,160.042,115.765,148.816,109.169,144.941Zm369.794-3.1c-14.761-2.57-14,17.539,1.89,11.17C484.954,150.668,483.027,143.524,478.963,141.842Zm-452.481-.68c-7.409-7.56-18.56,9.091-8.694,11.68C22.23,154.58,32.87,145.622,26.482,141.161Zm311.375,242.92c8.221-13.343-14.4-22.831,2.173-42.317,8.032-9.45-6.18-16.254-2.117-26.687.945-3.969,2.514-12.1,3.61-14.421,2.57-5.859.888-9.223-4.271-8.524-10.282.964-3.78,15.989-7.447,21.886-4.423,8.467,3.364,11.34,3.156,18.465,1.058,4.857-9.091,20.166-8.014,24.815,0,3.534.3,4.725,2.93,10.282,8.713,13.532-7.881,23.436,3.194,35.3,7.333,8.6,5.481,12.927-1.455,22.056-6.653,6.634-6.067,14.95-9.941,22.188-7.125,9-4.007,17.256,4.876,15.12,2.268-1.153,2.476-1.89,2.476-7.881-1.644-9.28,11.34-26.46,16.235-34.889C350.218,403.037,328.086,396.99,337.857,384.081ZM308.336,145.187c-4.063-8.486-23.663-.208-12.077,6.6C301.1,155.072,310.471,151.292,308.336,145.187ZM142.225,134.055c-9.015-5.179-12.039,12.757-3.78,16.613C150.144,155.336,146.137,138.742,142.225,134.055Zm123.189-7.125c-9.337,1.89,2.533,19.883-15.592,15.762-8.977-.132-14.269-7.125-21.867-7.787-5.1-1.4-9.771,4.423-6.124,8.429,1.4,1.38,2.948,2.041,7.56,2.06,10.867.151,20.79,11.34,31.638,4.574C268.211,144.45,278.134,132.392,265.414,126.93Zm270.268,21.224c2.57-4.517-6.8-11.189-8.373-16.329-6.369-11.831.246-19.5,4.687-30.674.51-2.192-2.192-4.366-5.33-3.78-6.936-.359-6.577,11.718-8.864,16.613-5.821,10.527,4.574,26.138,9.45,36.136a4.952,4.952,0,0,0,8.486-1.966ZM40.034,136.172C22.854,142.995,50.863,154.24,55.7,150.5,62.241,143.581,45.779,136.474,40.034,136.172Zm328.555,11.34c3.78-6.35-11.964-15.592-14.156-10.244-4.385,4.838-1.89,9.45,4.725,11.567C364,150.649,367.133,150.2,368.588,147.512Zm36.363-8.826c-.775-12.228-22.094-7.239-11.472,4.234,5.9,5.594,11.378,1.285,11.472-4.328Zm31.619-7.409c-8.618,3.383-.3,17.18,7.182,13s-.321-16.216-7.182-13.1ZM147.819,96.218c-3.78-8.24-11.831-.945-12.436,8.959,1.777,11.869-19.316,20.79-20.79,33.6.4,7.22,11.718,7.711,11.132-.85,0-6.1,1.89-9.148,6.539-10.395,6.426-1.739,6.766-2.173,8.146-10.338C140.07,113.019,148.519,99.506,147.819,96.218Zm31.071,37.667c-9.053-7.239-.85-14.572-4.857-21.225-7.976-4.838-12.3,7.22-7.182,15.951,1.89,3.648,3.156,11.6,5.916,13.967C179.1,146.321,186.772,140.991,178.891,133.885Zm436.076-1.21c-.4-11.794-12.209-.7-14.874,2.835-2.948,4.933,2.249,10.716,7.069,7.3C613.076,138.742,614.966,136.3,614.966,132.675Zm-156.547-1.512c-11.34,5.67-.548,18.314,6.842,7.654C480.57,129.916,469.457,123.055,458.419,131.163Zm133.565,6.35c1.361-7.409-16.008-14.5-16.329-5.254-1.058,2.381,7.711,9.715,9.847,10.3a4.838,4.838,0,0,0,6.483-5.046ZM546.87,99.582c-5.462.775-17.01,19.75-13.57,25.893,3.175,5.991,9.072,20.072,16.707,13.513,7.56-6.086-11.983-10.754-8.713-18.654.3-4.177,1.455-5.9,5.991-8.807C553.315,109.069,553.977,98.845,546.87,99.582ZM415.157,129.689c-10.017,5.67,1.7,12.455,8.165,9.922C432.356,136.7,420.752,125.777,415.157,129.689Zm-35.021.6c-5.67-2.136-7.163-11.888-12.266-13.041-5.67.661-9.015,9.866-1.758,12.644,3.459,1.777,6.388,5.84,8.618,8.335C379.947,143.014,388.887,134.7,380.136,130.294Zm-90.228-1.89c-11.926-3.478-9.45-14.477-2.986-24.249,4.725-7.938,8.921-14.269,1.058-15.951-6.35-1.436-5.311,10.47-10.433,14.723-4.007,4.687-4.971,16.027-2.759,21.338,2.8,4.139,4.536,11.34,9.677,12.531,8.732,3.8,17.123-5.783,5.443-8.354Zm338.307,9.053V122.942c-6.558,1.191-8.089,12.171-2.854,14.307a4.914,4.914,0,0,0,2.911.246ZM141.639,67.981c-.378-13.23-2.249-17.407-9.866-14.194-3.534,6.294,6.861,22.4-1.89,29.011-11.888,9.242-8.807,9.9-11.264,23.341-.321,3.289-9.62,6.861-11.756,11.34-2.514,5.065-15.5,13.665-6.294,18.163,10.489,4.177,7.2-12.7,16.632-16.481,14.685-7.768,5.972-22.415,17.841-30.561C141.469,84.443,142.168,82.251,141.639,67.981ZM321.792,96.974c-5.122,1.058-6.766,10.036-9.45,14.515-2.533,6.388-6.955,12.984-9.582,18.9-1.021,3.78,4.706,7.919,8.146,5.557,5.008-4.971,5.008-19.656,12.323-25.685C328.558,105.819,329.485,96.482,321.792,96.974ZM196.316,130.2c-1.512-4.649-4.819-18.692-11.926-13.646-5.141,3.364,2.4,17.52,6.294,18.9C193.973,137,197.261,133.942,196.316,130.2Zm51.937-7.806c-8.5-3.137-16.273,7.012-3.78,11.132C256.588,138.969,257.476,125.645,248.253,122.394Zm-213.36,2.722c-1.89-14.5-19.6,1.021-9.62,7.56C30.886,135.529,36.046,131.012,34.893,125.115ZM81.216,120.3c-6.464-2.759-13.778-5.67-17.5-12.1-1.89-2.722-3.118-4.612-4.63-5.1-23.965,3.289,20.053,27.065,23.889,27.8C95.939,134.282,95.448,123.452,81.216,120.3ZM223.7,116.043c-5.519,0-7.371,6.407-3.213,11C231.262,134.112,238.425,117.5,223.7,116.043Zm341.312,1.89c-4.819-.586-10.489-3.61-13.589,0-4.158,5.254,1.531,8.9,7.56,9.2,6.407.548,9.223.643,10.83-.151,4.649-3.175.813-8.751-4.8-9.148Zm-113.4-3.78c-11.812-2.892-11.983,8.335-4.971,12.077,8.127,3.4,16.745-8.467,4.971-12.228Zm150.953-7.39c-7.976-3.78-7.56,6.558-9.45,11.548-3.288,6.256,2.041,11.34,7.031,6.88,4.2-1.531,5.651-16.537,2.419-18.579Zm-215.779,6.256c-6.161.227-7.957,7.56-2.23,11.7C394.557,132.146,397.959,112.471,386.789,113.019Zm27.4,6.35c-3.081-12.739-21.716-3.213-10.716,6.218C407.786,127.648,414.194,123.906,414.194,119.37Zm15.781-6.01c-14.232-3.78-10.263,13.23,1.682,12.058C438.272,123.471,435.191,114.985,429.975,113.36ZM306.6,95.443c-9.45-7.069-7.239,9.7-13.116,14.137-10.282,11.17,5.084,19.864,7.995,5.2C302.533,109.712,312.248,99.166,306.6,95.443Zm312.868,8.921c-11.132-4.933-10.452,12.814-5.84,17.577C621.865,125.89,626.458,107.822,619.465,104.363ZM477.621,110.43c5.953-12.72-12.776-27.858-10.811-38.631.662-9.337-9.45-8.581-11.491-15.838-1.644-6.01-8.127-6.728-11.926-10.754-4.158-4.838-4.819-5.33-7.352-5.33-7.862.794-3.893,9.677,3.5,13.494A60.839,60.839,0,0,1,454.431,67.4c7.39,7.56,3.515,17.841,9.885,24.116,6.256,6.728,9.62,12.89,2.514,20-3.78,3.61-4.782,7.106-.378,9.11,5.254,2.325,8.108-.283,11.151-10.187ZM265.754,107.6c-7.2-5.216-18.9,5.67-7.938,12.172,7.447,4.668,11.548-6.974,7.919-12.172Zm320.73-4.479c-6.993-6.5-10.111,6.313-10.811,11.34a5.235,5.235,0,0,0,8.108,4.99c2.419-1.569,5.254-15.781,2.684-16.329ZM90.043,105.781C79.27,108.181,79.7,92.74,72.636,92.91c-3.78-.3-6.483,5.1-4.649,7.673,2,7.144,18.9,12.871,25.08,16.84C104.387,119.162,100.929,103.834,90.043,105.781Zm-75.6-1.266c-7.806,3.78-2.192,17.331,6.1,10.962,9.412-5.16,1.682-15.4-6.029-10.962Zm216.46,3.553c-.4,5.141,6.672,8.127,11.019,6.747,13.854-6.048-9.11-19.353-10.943-6.747ZM357.532,94.233c-3.44-2.438-8.221-1.134-6.634,4.857.68,3.478.416,12.058,2.4,14.477,11.7,6.086,9.129-13.986,4.29-19.335ZM40.9,97.862c-9.45,2.967-13.457,21.867,1.077,13.872C47.48,107.085,49.521,97.37,40.9,97.862Zm336.776,1.077c-4.2-6.237-3.893-19.675-12.776-14.137-2.514,2.136-2.249,5.141.794,9.072,5.67,4.5,1.89,14.723,6.275,18.125C379.04,113.492,383.217,106.82,377.679,98.939ZM218.259,96.1c-9.866-.132-5.443,21.678,3.988,12.984,5.33-4.063,2.589-12.984-3.988-12.984Zm350.8,2.911c-7.125-6.9-15.573,7.711-6.539,10.924,6.275,1.8,11.34-6.6,6.539-10.924Zm-385.765-5.33c-9.941.851-8.108,19.183,2.476,15.668C190.438,107.6,189.456,91.984,183.294,93.685Zm258.512,4.177c-8.448-12.039-18.616,9.582-3.364,11.453C443,109.315,444.131,102.322,441.806,97.862Zm-44.849-.227c-8.448-1.72-3.194-16.027-11.132-17.823-6.993-.888-7.825,3.081-3.005,11.642,4.234,6.766,3.95,12.927,10.319,16.065,9.3,4.876,14-6.747,3.874-9.885ZM417.879,95.5c-12.153,1-10.074,15.12.907,12.625,7.069-2.646,6.35-12.625-.851-12.625Zm37.611-.6c-6.294,0-7.843,9.979-1.984,12.871,11.245,5.368,10.773-12.115,2.041-12.871ZM123.344,58c-.416-4.668-8.392-8.9-9.015-14.307-2.079-6.6-4.347-7.787-8.259-4.347-10.281,9.7,15.933,17.18,10.017,32.394-.378,7.56-13,8.089-12.134,15.838,0,4.328-5.273,14.156-.586,17.01,1.739,1.625,3.648,2.079,5.311.869,6.917-6.577-1.663-16.122,10.754-23.927C129.184,75.22,124.289,67.036,123.344,58Zm142.165,30.24c-6.8,4.593-24.305-.321-17.841,10.924,2.514,2.759,6.407,1.455,9.714,0,3.478-2.74,9.7,1.247,13.362-1,5.84-4.668,5.859-16.632-5.235-9.96Zm346.4.359c-3.421-4.271-9.9,1.512-15.12,1.285-5.67.094-7.05,1.436-7.938,2.778-3.175,11,9.45,4.99,15.8,5.538C611.489,99.412,615.382,93.8,611.9,88.6Zm16.367,10.924V86.3a6.8,6.8,0,0,0-6.123,11.7,6.35,6.35,0,0,0,6.123,1.531ZM31.491,87.694c-6.539-7.106-16.046,7.333-7.125,10.849C29,100.508,37.5,92.7,31.491,87.694ZM95.2,79.6c-8.581-9.166-15.668,12.19-7.806,17.01C97.035,102.889,98.037,83.007,95.2,79.6Zm137.137,4.782c-7.56.208-7.05,11.132-.6,11.888C245.834,96.9,242.715,82.666,232.339,84.386ZM61.315,87.637c-5.84-7.163-19.656-.132-20.79-16.556-.454-15.12-20.091-17.142-11.34-3.459C34,74.483,31.566,77.2,37.766,84.443c3.874,6.161,9,5.67,14.1,9.45C58.14,99.071,64.509,94.139,61.315,87.637ZM541.238,79.17c-2.911-12.02-4.989-16.159-13.041-12.455-2.684,2.665-2.117,5.2,2.041,9.677,7.787,5.368.321,14.345,5.386,19.089C545.755,98.221,543.865,86.484,541.238,79.17ZM580.361,83.1c-8.77-5.405-16.708,4.517-6.88,10.641C580.418,98.372,587.335,87.9,580.361,83.1Zm-20.525-21.81c5.405-6.388.4-17.558-1.134-20.034-4.29-9.45-28.01-5.67-21.7-20,3.78-14.685-13.022-5.122-10.187,3.931-.094,3.78,5.008,14.761,12.965,14.685,9.563,1.531,15.233,7.881,13.835,15.479-2.192,6.483-11.642,9.866-5.405,19.051,2.627,4.328,2.665,14.024,3.912,18.125,6.936,5.046,13.381-7.371,6.823-13.721C553.769,72.026,554,68.132,559.836,61.291ZM314.7,78.565c-5.33.283-9.053,11.793-2.117,13.721C322.907,95.84,321.773,78.905,314.7,78.565Zm98.279,7.39c-3.27-11.6-23.814-6.993-11.434,5.557C405.424,94.214,412.984,90.548,412.984,85.955ZM522.093,55.413c-2.306-5.368,5.443-13.381,3.5-17.256-1.493-4.9-4.706-5.67-7.938-3.326-5.519,4.838-1.72,23.795-6.35,30.24-4.876,5.254,3.648,22.491,7.995,26.46,7.56,2.608,9.733-6.445,2.8-12.323C512.151,71.5,524.361,64.6,522.093,55.413Zm-362.745,3.78c-1.663-2.646-6.747-2.495-8.108-1.55-2.022,1.417-2.381,4.026-1.531,11.038,2.646,7.56-3.988,14.95.208,21.281,8.316,4.234,10.149-3.251,8.467-11.34-2.211-7.22,2.74-14.269.964-19.335Zm17.01,10.886c4.668-7.56-.567-11.453-6.88-8.165-4.479,2.929-4.423,24.456-.964,27.632,5.67,5.2,10.962-2.495,7.56-8.221a12.191,12.191,0,0,1,.189-11.151Zm259.23-9.507c-16.367-6.067-6.8-33.774-24.06-26.724-5.424,4.215,7.673,11.586,5.67,17.01,0,2.608.661,4.158,4.9,8.354,5.216,4.971,4.347,7.749,11.907,11.056,13.23,3.78,3.893,15.989,11.34,20.393C463.617,91.511,444.49,64.352,435.588,60.572Zm-8.77,15.555c-5.9.435-10.452,11.245-2.892,13.74,11,3.78,14.213-13.589,2.892-13.721ZM217.6,78.225c-13.457-5.273-20.639,8.146-4.007,11.226,7.2.057,10.093-8.089,4.007-11.208ZM183.37,74.2c-.643,4.838,2.589,12.36,5.859,13.608,16.14,2.268-.68-31.015-5.859-13.589ZM82.709,59.231c-1.682,0-3.515,1.172-5.67,6.048-1.663,5.235-11.529,12.1-11.151,15.706-.189,4.158,6.785,7.938,9.752,4.158,2.514-4.309,2.287-11.737,8.3-13.532C91.063,68.813,90.269,58.853,82.709,59.231Zm216.97,2.06c-1.984.51-3.081,2.892-3.78,8.278-.4,5.443-4.631,12.4-1.021,15.951,8.373,8.486,15.706-27.367,4.706-24.23ZM345.8,85.256c2.306,2.287,4.9,2.287,8.883,0C373.767,72.177,335.041,69.077,345.8,85.256ZM284.049,316.7c-2.155,5.027-3.289,6.2-3.213,13.457.151,9.715-3.024,12-6.2,21.073-7.182,17.01-10,6.067-13.419,28.35-1.569,3.515-3.591,4.423-10.017,4.423-6.993-.737-10.338,3.364-6.407,7.862,1.89,1.739,4.063,2.287,11.85.265,18.068-1.89,9.45-20.336,20.261-28.085,6.369-6.124,4.29-8.3,8.165-16.065,3.326-7.56,3.875-10.036,3.912-16.878.095-5.405,0-9.658,4.706-12.134C311.4,310.6,287.924,300.6,284.049,316.7Zm3.345-257.038c-2.079-2.306-5.859-.529-7.56,3.572s-6.086,15.63-3.118,19.221c4.347,3.478,8.675-1.436,9.337-6.766.472-4.215,4.744-13.022,1.342-15.989ZM22.8,71.459c-5.67-5.481-15.63,4.536-8.788,9.771,6.331,3.534,15.158-3.459,8.807-9.733Zm580.867-.718c-.907-3.383-26.2,2.627-15.932,9.733,3.78,3.307,8.788,1.191,13.476-.246,3.137-1.191,4.536-6.426,2.476-9.45Zm15.989-2.476c-5.991,0-10.773,8.524-7.031,12.512,7.144,6.861,18.9-10.754,7.05-12.474ZM231.886,65.883c-11.491-.435-11.189,12-1.228,11.756C242.148,78.168,241.033,65.675,231.886,65.883ZM370.951,60.44c-7.56-.17-7.428,16.651,1.153,17.01,9.544.454,5.935-16.462-1.153-17.01ZM72.579,52.389c-2.1-4.234-2.854-5.349-2.268-10.66.34-4.536.246-5.405-.794-7.106-3.043-4.971-8.581-2.23-9.45,4.706-.983,3.156,5.368,11.227,3.78,14.515-.359,14.515-18.012,8.883-15.12,18.56,2.381,4.234,7.919,6.256,11.208,1.758C65.416,66.507,74.979,59.59,72.579,52.389ZM568.756,63.162c-6.747,3.78-6.917,15.649,4.29,11.208,14.7-1.984,5.972-15.2-4.29-11.208ZM99.417,57.908c-4.007,1.436-4.536,13.23-.85,15.762C111.248,81.23,110.3,54.676,99.417,57.908Zm298.617,7.56C390.833,56.4,378.7,67,388.981,73.8c6.294,3.95,13.476-2.155,9.11-8.354Zm15.12-3.572c-6.785-.794-10.6,8.732-3.081,11.775,13.457,5.008,11.434-9.318,3.081-11.793ZM323.285,17.481c-4.555-5.235-8.051-1.682-8.788,7.012-1.191,7.843-7.56,22.377-6.6,28.463,1.191,5.405,5.84,9.015,5.254,15.725a7.163,7.163,0,0,0,1.3,4.1,4.46,4.46,0,0,0,7.56-.907c3.874-4.838-5.5-15.63-5.027-21.395-2.892-7.2,11.926-26.309,6.294-33.018ZM218.618,63.823c1.89-5.481-18.257-4.2-19.467-2.155-5.67,9.9,6.483,10.319,12.757,7.9C216.615,69.115,218.788,67.282,218.618,63.823Zm23.228-4.045c.284,4.782,5.141,9.072,10.036,6.426C264.148,56.792,244.851,44.678,241.846,59.779Zm117.33,270.929a26.27,26.27,0,0,1-3.024-9.45h0a7.9,7.9,0,0,0-6.218-6.464c-7.56-1.739-4.914,9-.17,14.175,8.316,14.269-15.63,21.073-4.9,38.329,2.173,7.125,7.862,14.666,13.627,7.069,2.892-6.539-12.153-10.433-7.428-18.314C352.712,346.773,366.509,339.477,359.176,330.708ZM614.324,62.066c5.065-1.89-2.816-22.359-6.842-22.188-5.027.85-6.653,4.99-3.251,10.036,3.289,2.854,0,11.964,2.4,14.213,1.644,1.7,4.876.85,7.617-2.06ZM592.06,50.159c-6.445-.775-10.225,9.96-4.536,13.23,9.507,4.555,15.895-11.623,4.46-13.23Zm36.288,13.8V53.277a6.01,6.01,0,0,0-5.1,6.861,5.67,5.67,0,0,0,5.027,3.818ZM186.98,43.449c-4.536,0-5.67,15.97-2.173,17.445C194.218,68.813,198.811,39.915,186.98,43.449ZM50.9,47.135c-9.091-.4-16.084,4.706-6.6,11.548,8.581,3.78,16.764-9.337,6.615-11.548Zm483.836-.6c-11.529,3.78-.7,18.768,7.919,11.34,7.05-6.029-2-11.075-7.881-11.34ZM221.188,52.578c-1.89,5.67,5.216,7.56,9.847,6.01,13.816-5.746-5.216-19.24-9.809-6.01Zm155.7,1.455c3.043,8.694,12.833,2.589,10.886-5.8-.718-6.577,3.4-9.355,9.563-10.074,21.924-3.251-11.567-26.46-20.412,15.876Zm25.893-9.318c-7.56-.529-11.34,9.809-3.5,12.455,9.922,3.761,14.855-10.527,3.534-12.455Zm68.758-1.266c-8.335-4.479-15.271,5.859-6.294,12.7,7.711,6.785,10.924-9.2,6.331-12.7ZM307.958,15.213c-3.874-7.711-11.945-.945-11.075,8.467,1.342,6.672-6.672,20.6-7.56,27.934.85,7.787,11.623,6.18,10.622-3.118C300.832,38.894,308.959,21.884,307.958,15.213ZM577.62,43.941c-4.026-6.766-.983-13.419-10.187-17.5a118.481,118.481,0,0,1-12.228-8.2c-9.639-6.88-17.275,7.012-2.967,9.337,16.462,3.912,14.818,14.912,18.673,26.63,6.01,4.952,12.058-4.328,6.709-10.206ZM165.7,42.637a6.445,6.445,0,1,0,5.67,11.491C180.592,49.025,172.975,38.913,165.7,42.637Zm208.6,279.3c-3.78-10.546-15.555-6.6-8.713,3.78,11.189,13.835-2.079,20.015-6.426,32.13,0,7.371,9.96,10.3,10.849,0C374.523,340.139,385.107,343.352,374.3,321.938ZM92.159,44.167c-3.667-1.266-9.9-8.524-12.871-4.952-6.067,8.429,5.519,14.572,14.628,14.742C99.492,52.446,97.829,46.076,92.159,44.167Zm109.449.68c-3.629,7.919,6.558,9.337,11.68,6.142,9.715-10.7-5.179-15.1-11.737-6.142ZM27.522,35.039c-8.467,0-9.242,12.984-.964,16.235C36.915,54.033,34.269,35.133,27.522,35.039ZM142.3,41.389c-4.5,4.063,2.287,12.531,7.862,9.733C160.992,45.679,149.879,34.472,142.3,41.389Zm125.155-25.5c-5.67,4.309-3.95,13.532-10.7,22.963-7.125,12.171,6.709,14.25,9.261,2.173,2.23-6.615,14.515-27.858,1.436-25.137ZM125.121,30.522c-6.8,2.816-3.931,12.266.548,16.159C137.519,54.109,134.079,29.085,125.121,30.522ZM254.244,305.855c-3.534-5.235-4.063-13.324-10.773-13.23s-7.22,7.333-1.21,11.775c5.67,4.2,6.8,5.84,7.711,11.34,1.985,10.357-5.349,19.032-9.7,28.766-3.081,5.67-3.478,8.5-1.285,10.357,4.347,3.629,7.862-.548,9.147-5.575,2.608-8.41,9.034-19.391,10.754-27.027,1.474-4.215-1.984-10.735-4.649-16.405ZM628.272,46.492V35.266c-9.45-4.5-14.288,9.318-4.045,11.831a9.072,9.072,0,0,0,4.045-.6Zm-31.808-13.91c-2.1-2.079-16.348-3.251-13.854,3.667,1.266,6.558,8.335,6.785,9.677,6.558,5.141-.85,7.522-6.8,4.177-10.225ZM445.832,30.333c-4.347,5.1,6.558,15.29,11.831,11.038C467.151,34.491,453.146,23.6,445.832,30.333ZM51.581,28.859c-10.924-1.89-19.9,15.951-1.134,10.83,4.271-1.7,5.5-8.9,1.134-10.905ZM241.827,319.5c.832-9.771-9.45-12.058-10.244-2.986,2.911,14.628-9.563,20.582-11.7,29.408.888,6.69,10.338,4.574,11.6-1.455C233.341,340.063,242.659,322.26,241.827,319.5ZM184.372,25.381c-7.069-6.5-14.8,5.481-8.637,11.718C183.767,43.071,187.925,29.237,184.372,25.381Zm28.992,300.073c.907,10.527-18.465,6.917-21.092,14.326-2.268,15.838,10.225,2.457,16.065,1.89,4.838,2.173,15.97-17.256,15.328-19.164,2-10.452-13.759-13.816-10.3,2.948ZM102.157,29.01c-1.89-8.581-15.12-2.476-11.567,4.593C95.145,40.917,104.728,36.211,102.157,29.01Zm60.272-6.086c-8.656-4.441-9.45,10.565-4.838,13.23C165.7,40.387,170.688,25.759,162.429,22.924Zm309.164-8.448c-.529,6.672-12.134,17.01-3.005,21.432,7.862,1.455,7.56-11.472,11.34-16.1,5.84-8.278-4.5-13.759-8.335-5.33Zm-328.63,7.881c-8.694,0-7.957,12.379-.416,11.85C149.482,33.394,149.69,23.056,142.962,22.357Zm294.837.6c-9.7-9.166-20.6,9.9-5.481,10.867,6.124-.057,9.488-6.861,5.557-10.867Zm166.318,7.258c3.232,4.29,6.861,3.78,11.34.34,17.237-14.1-14.458-15.347-11.359-.34ZM77.285,18.086c-4.744,1.039-6.388,8.448-2.722,11.888C83.995,39.291,90.912,13.323,77.285,18.086ZM114.14,290.7c-2.929-5.67-15.744-3.043-8.807,5.67,1.758,2.722,1.984,3.61,2.249,8.807a67.738,67.738,0,0,0,2.438,11.34c2.268,5.065-1.72,11.075-2.438,15.479,0,4.914,3.118,10.489,7.749,7.995,7.2-5.84.113-37.649-1.191-49.291ZM628.215,27.2V21.771a4.479,4.479,0,0,0,.057,5.424ZM46.1,13.965c-2.948-6.539-21.81,8.9-16.216,13.23,2.362,4.574,10.584-2.873,13.627-5.027,3.478-2.552,4.46-5.632,2.57-8.165Zm13.7-2.533c-7.012.435-8.807,9.6-2.722,13.23C66.909,30.938,70.16,11.924,59.8,11.433ZM419.391,18.8c-.378-11.056-25.76-.529-12.285,5.953,6.35,2.967,13.192-.321,12.285-5.916ZM594.46,323.469c-6.672,0-17.01,4.2-21.7-3.251-2.722-4.12-8.467-9.015-13.117-5.311-5.141,7.56,9.091,11.34,13.4,15.347,4.706,2.948,13.419,2.041,18.5,2.722,9.45,2.381,10.584-7.05,2.911-9.469ZM135.629,321.39c-1.172-11.661-7.56-25.515-2.268-38.5,10.168-25.76-17.312-23.871-30.013-36.874-4.536-4.385-10-14.855-14.421-19.523-8.108-6.01-3.591-15.895-10.3-19.448-14.78,1.89-1.512,18.9,6.275,27.48,4.933,5.141,5.443,6.086,6.728,10.773,1.436,6.558,7.881,7.258,12.3,11.926,6.728,6.237,23.568,6.653,23.247,16.859.869,4.063-4.574,10.773-4.725,14.553a100.811,100.811,0,0,0,2.665,19.939c2.778,6.8-.643,17.709,1.21,23.039C131.49,336.6,137.349,326.474,135.629,321.39Zm258.039.888c-3.931-5.046-12.587-28.047-19.977-14.175-.529,1,3.893,5.443,5.8,7.56,5.67,4.177,2.684,16.915,11.34,16.594,6.142-1.115,7.957-5.368,2.816-9.979ZM460.706,13.89c-4.46-3.043-15.8-6.993-18.9-1.172-2.287,7.56,7.711,7.447,12.663,8.392C461.065,23.907,465.242,17.859,460.706,13.89ZM164.735,303.322c-4.271-10.943,9.015-19.977,3.572-25.193-10.659-6.1-11.529,12.871-12.3,20.053.34,9.45,6.709,36.118,19.259,29.219C182.387,318.366,165.7,320.823,164.735,303.322Zm21.414,23.871c3.78,3.27,13.986.378,17.01-1.285C215.348,312.847,175.6,314.246,186.148,327.192Zm-34.776-12.512a42.034,42.034,0,0,1-3.27-17.35c-2.57-10.149,11.642-24.324-.3-27.745-6.5-.85-4.99,11.794-7.069,17.237-2,7.73-1.777,10.886,2.23,29.748.473,4.517.775,9.715,5.2,11.019,10.149,2.835,6.369-7.787,3.213-12.909ZM628.272,323V310.75c-5.916.435-9.166,4.347-9.166,6.9C619.313,325.756,624.36,324.7,628.272,323Zm-593.455-6.35c2.8-3.005.6-6.5-4.536-7.012-6.426-.548-13.589,5.84-8.165,12.512,2.287,1.644,8.259-.756,12.72-5.5Zm571.89-7.182c-11.207-3.27-11.982,11.529,1.285,13.23,8.467-2.079,4.082-11.642-1.266-13.23Zm-337.683-12.19c0-5.5,0-6.728-.983-8.108-7.957-6.35-14.666,4.063-5.953,13.91,3.61,4.555,4.5,24.229,12.928,15.328,7.258-10.244-7.938-10.149-5.972-21.13Zm310.9-10.111a14.685,14.685,0,0,1-5.065-8.013c-9.809-36.817-63.674-4.819-38.537,21.262,9.45,3.78,4.309,10.754,5.122,17.917,1.077,2.022,4.9,2.778,8.24,0s1.625-18.9-7.56-23.19a8.146,8.146,0,0,1-4.63-8.486c.907-11.019,15.63-22.68,24.853-13.684,4.649,4.819,8.013,22.831,13.23,23.492,6.086,2.608,11.359-4.026,4.366-9.3Zm-68.38,28.8c7.182-14.288-18.446-11.775-11.208.6,3.4,4.819,8.921,3.062,11.226-.6Zm13.06-10.282c-3.78,1.89-7.258,7.806-3.931,11.794,2.967,3.553,9.45-.359,9.6-.416,7.919-3.44,1.682-15.857-5.651-11.378ZM102.422,8.39H89.362a6.6,6.6,0,0,0,4.876,9.7C99.511,19.635,104.142,13.89,102.422,8.39Zm-20.2,0H67.967C71.369,12.416,80.555,10.771,82.218,8.39Zm236.985,0h-7.125a8.24,8.24,0,0,0,7.125,0Zm87.128,0h-6.691a7.862,7.862,0,0,0,6.69,0Zm-393.419,0H9v4.933A9.318,9.318,0,0,0,12.912,8.39Zm423.6,0h-15.12c.832,3.1,2.8,4.838,6.9,5.386a7.428,7.428,0,0,0,8.221-5.386Zm-98.96,0H328.71c-1.115,6.218,4.933,8.732,4.328,14.477-.661,11.642-13.7,22.68-5.084,35.1,8.713,13.513-7.881,23.436,3.194,35.3,3.61,4.215,4.536,6.18,4.536,9.544.34,8.2-12.738,17.615-13.041,26.838-.813,7.144-10.093,16.065-6.01,20.242,3.969,5.292,11.85,4.9,10.47-5.122-1.89-20.487,29.54-33.585,11.756-55.377-10.981-10.206,7.012-16.178-.869-27.8-13.646-22.4,10.773-28.2,2.759-41.428A18.9,18.9,0,0,1,337.555,8.39Zm-42.109,0H283.482a21.546,21.546,0,0,0-2.646,12.153c.265,8.467-7.05,26.233-12.814,31.657-9.6,6.483-.321,23.587-16.821,22.132-4.706,0-5.33.151-6.653,1.455-4.063,6.577,2.117,9.96,12.1,6.672C266.7,79.85,267.8,78.811,269.289,70.722c.567-11.926,9-15.29,12.4-23.341a75.949,75.949,0,0,1,3.383-9.072c4.687-8.958,3.4-15.12,4.366-23.511.567-3.27,3.156-5.122,6.01-6.407Zm59.44,0h-9.639c.113,11.34,13.57,13.759,1.247,28.709-5.5,7.371-5.67,10.036-1.625,20.62,2.173,7.125,7.862,14.666,13.627,7.069,2.892-6.539-12.153-10.433-7.428-18.314,1.644-9.318,15.441-16.632,8.108-25.382a26.272,26.272,0,0,1-3.024-9.45h0a8.056,8.056,0,0,0-.34-1.266,6.143,6.143,0,0,0-.945-1.984Zm17.01,0h-8.24c-.813,2.533.51,5.141,1.89,7.56,11.189,13.835-2.079,20.015-6.426,32.13,0,3.118,2.136,6.823,5.859,6.728,7.012-1.72,4.706-13.91,11.586-21.054,6.483-8.108-.832-15.989-3.421-23.663a10.165,10.165,0,0,0-1.266-1.7Zm-112.927,0h-8.618c.265,9.45-5.935,17.407-10.074,26.46-8.259,11.718,5.67,16.367,7.862,4.763,2.873-9.45,10.036-20.525,11.189-29.465a7.1,7.1,0,0,0-.3-1.758Zm-17.274,0H231.64c2.684,12.209-10.357,20.582-11.812,27.991,0,4.29,5.916,5.122,8.77,2.929,3.459-3.78,4.309-8.581,7.749-14.836,4.29-9.091,5.746-11.7,5.405-16.084Zm-18.219,0H213.194c.529,13.23-.6,13.91-14.043,17.312-7.995,0-8.694,8.467-5.67,11.964,4.46,1.89,10.867-6.18,14.761-5.67,5.859,1.4,16.481-17.879,15.555-21.092a6.483,6.483,0,0,0-.265-2.514ZM118,8.39h-7.617c1.531,4.63-2.325,10.168-2.8,14.08.888,12.625,12.757,11.756,10.584-4.838,0,0,.113-4.309-.113-9.242Zm452.783,0h-12.4c.926,6.218,10.319,8.524,14.61,12.285,4.177,2.173,24.57,5.179,26.138.529,1.228-2.911-.907-6.218-4.725-7.314-6.672,0-17.01,4.177-21.7-3.27.019-.057-1.833-2.155-1.871-2.23Zm-435.868,0h-8.732c-.359,6.823-2.344,20.053,6.747,13.06,3.5-3.553,3.213-8.486,2.041-13.06Zm255.96,0h-9.733c3.175,3.893,2.287,9.45,5.538,13.23,3.005,2.967,10.036,0,9.809-3.629.586-3.118-3.818-5.405-5.557-9.6Zm-219.087,0H160.8c5.386,16.367,22,11.019,14.1,2-1.115-.85-1.777-.85-3.062-2Zm31.506,0H188.359c-3.345,1.739-5.67,6.18-2.268,9.185,5.292,3.5,23.19.624,18.39-8.032a3.667,3.667,0,0,0-1.134-1.153Zm-50.406,0h-9.7c-.567,6.8,5.405,12.814,10.981,8.788,1.7-1.569.227-6.388-1.228-8.788Zm475.387,4.933V8.39h-9.166C619.465,16.12,624.492,15.043,628.272,13.323ZM33.456,8.39H20.34a4.933,4.933,0,0,0,1.89,4.12C24.12,14,29.223,12.264,33.456,8.39Zm579.015,0h-12.72a10.281,10.281,0,0,0,8.259,4.593,4.517,4.517,0,0,0,4.46-4.593ZM275.3,8.39h-7.371c.246.34.491.643.756.964C270.819,12.246,273.106,11.433,275.3,8.39ZM89.362,627.567h13.06c-1.115-4.876-8.335-4.876-11.34-2.211a8.865,8.865,0,0,0-1.72,2.211Zm-21.395,0h14.25c3.043-4.2-.6-9.922-6.407-9.45C68.327,617.607,64.433,622.653,67.967,627.567Zm244.11,0c1.058-.227,7.824.68,8.259-.926,8.278-10.867-2.835-19.675-10.47-8.259a7.409,7.409,0,0,0,2.211,9.185Zm87.563,0c5.67,1.039,13.23-2.117,16.2-6.426,6.067-7.239-3.118-14.647-8.826-6.237-3.232,4.933-13.022,5.481-8.467,11.661a3.966,3.966,0,0,0,1.1,1Zm71.819-9.45c-4.649-11.34-19.807,1.172-9.242,7.56,5.273,3.667,12.323-1.228,9.166-7.409Zm13.967-8.94c-2.986-9.129-14.194-4.385-8.24,4.1,3.78,5.424,5.67,18.125,13.324,11.793,4.914-3.175-3.024-10.735-5.235-15.743Zm101.908,6.861c-9.053-7.446-18.9,2.873-7.257,9.034C588.658,629.458,596.974,621.9,587.335,616.039Zm-526.927,3.78a5.935,5.935,0,0,0-6.861-8.316c-9.034,3.478-16.14,18.465.416,13,3.421-1.323,5.311-2.608,6.369-4.668ZM194.6,595.249c-1.418-8.732-19.3-.094-20.79,6.048-4.026,6.842.454,27.386,10.433,21.168,5.538-5.67-14.137-18.6,2-20.6,6.369-.756,9.11-2.986,8.184-6.634Zm257.038,12.7c-7.333-6.577-17.426,9.45-8.807,13.816,8.807,3.459,12.871-9.885,8.675-13.835Zm-246.378,2.476c-5.859-3.005-18.39-6.558-14.364,4.177.756,3.5,9.034,3.893,12.682,5.349,8.656,3.837,11.529-7.2,1.55-9.544Zm153.315-1.247c-10.206-.869-15.12,7.258-3.515,9.922a28.663,28.663,0,0,0,6.955.907c8.391-1.663,5.519-11.945-3.572-10.849ZM86.017,607.137c-5.67,7.352,5.122,12.965,11.34,9.45C105.2,609.5,92.821,601.826,86.017,607.137Zm131.732,1.455c-3.364,6.294,6.2,11.189,11.453,8.694,9.166-6.861-7.333-16.934-11.453-8.618Zm346.906-2.287c-3.666-3.78-4.649-5.972-5.67-12.247a6.312,6.312,0,0,0-11.812-2.306c-4.328,4.687,8.864,12.814,9.3,17.256,1.89,6.766,5.084,10.678,10.773,7.39C570.325,613.865,569.89,611.862,564.655,606.305Zm59.119-.454c-5.8-4.687-19.542,2.646-10.357,9.091,5.349,4.026,16.575-2.93,10.319-9.091ZM274.618,559.32c-3.251-1.7-6.785.907-6.785,5.027.68,9.752,17.652,3.364,15.725,17.6,0,4.442-.832,6.88-4.063,11.718-3.78,4.366-3.345,17.142.51,19.675,5.424,2.7,8.278-.472,6.653-7.768-.7-4.045-.662-4.5,1.134-10.6C297.26,569.923,293.291,574.516,274.618,559.32Zm117.444,41.674c-9.318,2.381-1.758,17.6,6.142,12.4C404.555,609.31,398.771,598.405,392.062,600.994ZM42.6,605.266c-6.086-11.038-18.3,2.287-8.788,7.9C39.41,616.454,45.42,610.369,42.6,605.266Zm261.517-25.439c-3.137,0-4.12,1.569-6.634,10.452-11.586,28.5,16.2,27.046,7.56,13.476-8.543-9.979,14.553-17.615-.926-23.927Zm129.18,20.79c-6.01-6.88-15.384,4.763-9.45,10.886,6.161,5.84,15.46-5.972,9.45-10.886Zm159.7-.265c-9.185,2.552,0,14.817,7.125,11.869C609.2,608.668,599.941,597.328,593,600.352Zm-64.259-22.037c8.732-8.354,1.984-13.116-4.574-10.282-2.306,2.325-3.78,8.486-6.672,10.905-2.476,2.495-2.551,2.721-3.024,7.919.151,5.065-5.1,21.9-1.455,23.549,5.027,3.78,11.132-.359,8.788-8.467C520.278,592.036,521.979,586.253,528.745,578.315Zm-459.266,20.9c-8.373,1.531-6.766,12.1.661,12.134C82.709,611.389,80.819,596.1,69.479,599.218Zm434.45-19.694c-6.01-2.041-10.225,2.911-6.5,10.187,1.474,5.046.907,5.575-2.155,9.847-10.565,11.038,10.7,17.426,9.072,1.89-.567-5.708,6.332-20.393-.472-22.018Zm-121.961,20.09c-3.534-11.869-21.527,1.89-10.055,7.56,5.386,1.984,11-2.287,10-7.654Zm78.907-6.143c-8.2,6.5-1.72,20.053,7.314,12.323,5.746-4.9.794-16.915-7.371-12.417Zm-143.147-1.191c-5.783,1.247-7.768,10.187-2.06,13.23,11.548,6.067,14.213-15.857,2-13.324ZM50.315,587.292c-12.644-3.005-3.78,13.589,1.039,16.518C63.243,607.855,56.382,589.276,50.315,587.292Zm354.429,6.256c-3.1,4.555,3.78,14.345,9.072,9.752C423.152,596.647,410.735,583.285,404.744,593.548Zm-197.428-2.91c-6.483.189-8.845,8.543-1.758,11.529,12.833,5.859,14.5-12.134,1.758-11.472Zm144.584.529c-10.792,8.845,1.455,14.61,8.959,8.41,5.821-6.388-2.873-13.286-8.959-8.354Zm-115.459.567c-4.423-11.869-22.377,0-9.45,6.842,6.615,3.081,11.359-.34,9.45-6.785Zm212.094-5.065c-7.409-3.912-13.872,7.427-7.314,12.379,7.258,4.271,15.706-8.9,7.314-12.323Zm27.329,3.78c-.132,5.67,7.56,10.376,11.718,6.6,9.771-9.431-9.45-18.238-11.756-6.464ZM9,589.56v9.072c6.8,1.644,3.1,11.491,5.046,15.951,3.874,5.349,11.113-.17,9.337-6.917.265-5.122-7.447-15.952-11.869-17.331h0Zm0-19.5v12.153c7.371,3.648,13.23-3.4,8.051-9.733A7.352,7.352,0,0,0,9,570.055Zm0-60.876v14.666c3.61-2.873,5.368-6.861,3.289-11.548A4.4,4.4,0,0,0,9,509.179ZM9,492.6v8.864c1.1-1.493,1.021-7.5,0-8.864Zm0-25.685v16.008c5.424-.567,10-8.637,7.825-12.587C16.069,468.809,12.553,465.256,9,466.919ZM9,432.54v14.591c4.063-1.493,6.88-4.139,6.5-8.467C15.048,433.882,12.78,431.576,9,432.54Zm0-36.647v13.23c4.763-1.115,6.35-7.692,3.307-11.227a6.275,6.275,0,0,0-3.307-2ZM9,362.97v10.7c5.1,0,10.565-.246,11.34-4.687C21.115,363.556,14.027,361.307,9,362.97Zm0-17.993v11.208a9.449,9.449,0,0,0,3.326-2c3.421-3.175.454-7.787-3.326-9.28Zm0-13.495v5.424c13.608,13.4,20.96-13.627,3.78-8.108A11.434,11.434,0,0,0,9,331.407ZM9,620.367v7.2h3.893a8.977,8.977,0,0,0,.548-2.665C13.385,621.9,11.419,619.875,9,620.367Zm619.253-21.735V589.56c-2.551-1.777-21.678-2.192-23.587.832-3.78,5.462,2.816,10.508,10.282,6.917a15.63,15.63,0,0,1,13.324,1.323Zm-530.594-1.8c8.826-10.47-17.634-14.421-17.01-4.63.17,7.919,14.5,7.106,17.029,4.63Zm145.378-8.486c0,9.828,8.221,8.014,9.355,7.56,12.153-7.012-6.01-21.924-9.337-7.56Zm-206.2-2.06c-7.711-7.2-22.283.208-9.45,9C33.022,597.687,40.317,590.713,36.839,586.29Zm306.423-2.608c-5.67-5.953-16.821,4.234-11.34,9.677C336.761,599.029,348.025,589.05,343.262,583.682Zm55.4.68c-5.405-6.974-23.114.132-12.228,8.373C390.191,594.909,403.761,592.206,398.658,584.363ZM593.8,580.318c-7.56-1.229-15.328,5.935-7.919,11.34S605.63,585.988,593.8,580.318ZM59.614,584.533a8.6,8.6,0,0,0,13.381,5.67C83.711,581.565,58.763,574.516,59.614,584.533Zm214.456-5.311c-7.787-8.108-16.14,6.691-7.806,11.548C273.087,595.438,278.19,582.832,274.07,579.222Zm149.006-.85c-5.878,5.67-1.077,16.405,6.842,12.946,6.917-3.137.246-19.278-6.842-12.89ZM110,578.56c-5.254-1.134-8.032,1-6.955,5.311a13.627,13.627,0,0,0,7.012,6.634c11.6,3.931,12.134-10.735-.057-11.945Zm286.786-13.967c-1.342-1.531-4.99-.775-10.3.416-8.581.435-14.988,5.141-18.635,14.213-3.78,5.67-2.986,8.9,1.89,9.677,14.61-2.173-2-18.9,25.156-14.855,3.326-.718,4.46-6.558,1.89-9.45ZM183.5,575.933c-5.122-5.462-13.494,4.612-9.677,9.847,4.933,5.008,15.611-3.421,9.677-9.885Zm16.122-18.9c-5.122,1.361-4.29,9.147-6.445,14.08-2.268,6.407-1.89,13.079,1.058,15.12,5.878,3.156,9.45-2.287,6.728-8.807-1.455-4.139-.813-6.067,3.383-9.658,7.05-5.027,1-12.02-4.725-10.792Zm17.01,13.8c-8.278-3.515-10.584,12.568-3.024,13.816,10.206,2.249,10.678-11.472,3.005-13.778Zm107.729,2.022c-6.142-2.589-14.685,5.878-6.6,11.756,6.048,4.007,15.422-9.015,6.5-11.85Zm148.647,2.854c.832-1.228-19.051-2.627-19.278-.189-4.29,7.768,7.862,10.848,13.854,8.486,4.838-.491,8.845-4.819,5.33-8.354Zm-106.2-14.118c-.643-8.07.151-25.571-10.036-27.443-5.991,0-6.634,4.271-2.646,8.864,7.069,9.6,5.179,20.79-1.569,29.559-10.849,11.907,5.67,14.78,8.146,3.78,1.4-4.385,6.483-10.149,6.01-14.818Zm47.476,8.618a16.538,16.538,0,0,1-.888-8.165c1.247-8.07-4.234-9.147-8.429-6.124-4.99,5.084,4.725,12.228-.095,18.692-1.777,3.874-1.588,5.84.756,7.673,6.577,4.234,11.85-5.084,8.562-12.134Zm191.474-.718c-1.89-5.519-.85-18.371-9.6-11.34-3.024,3.156-1.058,8.089.359,11.567,7.919,15.29,16.348,12.928,19.75,11.17,7.276-6.01-9.223-8.448-10.6-11.453Zm22.68,12.833V570.112a7.031,7.031,0,0,0-4.026,4.328c-1.8,3.629.718,6.464,3.856,7.768Zm-392.965-14.7c-7.843-.624-8.656,10.225-2.23,12.871,10,3.893,12.587-12.89,2.06-12.927Zm-74.995-.113c-4.971,1.417-6.124,9.771-1.436,12.077,9.355,4.328,15.951-16.67,1.266-12.134Zm315.627-15.441c-2.646-.7-7.56,5.027-9.563,5.972-7.333,3.156-18.012-7.862-24.683.113-5.972,4.744-9.185,27.291,3.629,20.28,3.081-2.287.151-7.39-.246-10.678-.4-9.6,17.577,2.552,26.932-2.06,6.709-2.854,14.232-12.228,3.761-13.721ZM50.2,568.052c-1.588-.775-2.948-.869-6.785.851-5.67,4.5-13.079-5.519-17.841-3.1-9.45,12,17.01,11.831,23.587,13.381C59.047,580.016,56.079,571.057,50.2,568.052Zm48.44,9.45c6.615-12.417-29.786-11.945-18.5.643,3.8,2.174,15.8,2.174,18.5-.586Zm382.438-8.524c-6.936,6.653,4.593,10.773,9.6,8.2C501.794,571,488.375,559.528,481.08,568.978Zm-232.6.907c0,8.3,7.56,6.577,8.713,6.1,14.8-8.014-6.747-21.092-8.713-6.143ZM586.541,565.2c-9.034-5.859-19.939,5.5-8.165,11C583.442,577.634,592.381,571.17,586.541,565.2ZM350.01,555.03c-.661-5.557-3.459-14.685-8.807-11.7-4.007,1.8,0,10.981-.189,15.006,1.418,4.593-13.438,12.512-5.67,16.518C342.979,579.675,351.238,559.793,350.01,555.03Zm-207.048,4.234c-10.735.661-5.557,12.89-.3,14.08C151.3,574.856,152.866,560.227,142.962,559.263ZM305.727,562c-5.008-2.06-9.733-7.749-14.761-10.452-5.67-3.383-7.144-5.67-6.52-10.3.756-5.5.756-20.506-.359-22.434-4.177-7.012-13.476-4.441-8.845,5.519,4.952,8.335-4.5,25.364,5.67,30.24,10.792,3.988,19.864,22.132,26.365,18.314C312.626,569.866,313.571,564.385,305.727,562Zm196.294,2.533c-3.062,6.1,7.087,12.682,11.132,7.239,8.958-7.749-7.087-16.821-11.094-7.239Zm-430.1,6.823c5.046-6.256-13.948-14.4-15.12-23.4-1.89-6.2-8.524-11.34-10.244-3.5,0,3.326,4.063,13,6.029,14.818,3.78,2.892,8.562,9.261,11.075,12.36A7.182,7.182,0,0,0,71.918,571.36ZM422,555.408c-3.289,3.591-1.7,16.613,4.215,15.5,8.2-2.438,7.22-23.417-4.215-15.5Zm-247.588.473c-6.8,6.067,4.139,14.628,10.149,11.794,8.921-5.065-4.423-17.312-10.149-11.794Zm452.046-16.386c-1.153-10.017-12.682-7.314-11.529,4.063,0,5.538-4.687,13.23-3.289,15.838.6,10.924,16.575,10.962,10.282-1.89C616.856,550.078,626.174,545.58,626.458,539.494Zm-294.516,10.83c-.132-3.043.794-8.222-2.117-10.319-6.974-5.122-11.189,1-6.917,7.352,2.306,4.9,2.041,6.1-2.211,10.055-8.392,7.012,2.344,10.055,7.258,6.955,4.234-4.385,3.837-4.177,3.988-14.043Zm-110.3,2.079c-3.478-1.644-5.443-7.39-7.749-9.639-7.125-4.082-12.379,5.67-3.78,9.885,5.67,3.44,8.051,17.407,16.443,11.226,4.063-4.46,2.173-7.22-4.914-11.472Zm368.4-4.933c-6.785-3.477-9.714-.813-19.712,3.213-17.936,8.845-24.57,6.766-41.958.813-5.5,0-19.75-17.463-21.659-5.216,0,4.271,1.569,6.086,7.56,8.278,10.792,3.194,20.072,10.962,33.264,10.13,18.257,1.512,25.458-10,39.236-8.467C591.115,556.428,592.532,550.437,590.037,547.47Zm-574.309-.888c-3.307,0-5.046,2.117-5.349,6.52-.283,4.045,1.55,8.392,4.082,9.639,12.134,5.046,8.467-17.5,1.266-16.159Zm62.955,2.778c-6.048-7.787-20.79-22.245-13.23-31.506,3.081-4.366,3.194-8.278-2.476-8.751-6.728-.17-9.355,10.168-7.56,17.766,1.72,12.474,11.548,20.7,21.187,33.434,7.995,5.8,12.852-2.022,2.079-10.943Zm-49.347-5.67c-3.61,1.89,2.079,17.388,6.161,17.634,16.726,5.764,1.115-27.424-6.161-17.558Zm215.231,5.254c-13.362-3.251-12.379,16.689,0,11.7,5.273-2.551,6.35-9.563,0-11.623Zm-120.6.3c-5.349.831-18.579-16.8-24.759-26.63-2.627-4.857,6.464-25.552,1.89-31.166-3.27-7.806-47.968-21.943-33.509-4.064h0c2.041,1.89,5.2,1.8,7.806,1.474,40.389,2.684.246,26.838,21.243,44.169,9.015,13.23,13.589,20.336,29.314,27.443,10.848,2.7,8.014-8.788-1.985-11.151Zm35.267-2.136c-11.34-.151-5.368,17.917,3.988,12.4,6.275-2.514,2.533-12.587-3.988-12.323Zm226.893.416c-2.306,1.191-10.584,1.134-11.964,3.213-1.777,2.174-2.192,6.842.964,8.656,4.347,1.89,10.017-4.706,16.9-3.78,15.762-.284,9.469-14.326-5.9-8.014Zm108.372-1.89c-13.381,2.022-5.33,19.448,3.931,11.774,4.876-3.459,1.966-11.945-3.931-11.737ZM266.926,522.144c-.359-7.068-10.168-8.94-11.189-1.682,1.172,4.857,7.39,15.12,5.424,19.826-1.361,4.234-9.45,13.438-2.7,15.838a5.859,5.859,0,0,0,8.448-2.778C269.421,545.9,269.194,529.024,266.926,522.144Zm46.607,22.793c-3.1-2.986-26.46-16.878-20.242-1.739,4.026,3.156,12.285,8.089,15.97,11.718C314.648,558.489,316.727,548.188,313.533,544.937ZM137.1,538c-16.878-7.276-23.776-19.769-18.9-34.284,2.608-6.294,1.1-10.584-4.838-11.548-3.213,0-3.931,1.569-3.931,8.77.416,6.936-3.118,15.29-1,20.374,3.988,6.086,10.225,17.955,19.2,20.79,6.464,1.21,9.847,9.79,15.007,9.9,10.263-2.325,4.574-10.773-5.538-14Zm62.01,9.6c5.67-15.12-25.779-6.483-10.848,3.27a7.56,7.56,0,0,0,10.848-3.27Zm231.353-3.081a7.106,7.106,0,0,0,10.867,5.367C454.167,541.762,432.073,531.651,430.466,544.522ZM610.733,527.4c-.491-7.428-15.12-7.56-11.34,2.419,1.285,4.479,1.247,4.838-1.134,9.733-6.747,11.793,10.867,16.518,8.77,1.436C606.575,537.245,610.468,530.763,610.733,527.4Zm-158.192,14.08c-3.194,6.747,9.166,11.132,12.984,7.144,7.428-7.5-9.412-16.972-12.984-7.125Zm-29.068,2.778c2.57-5.368-11.586-10.319-16.178-6.2-3.421,3.194-1.4,7.56,4.479,9.752s10.527.586,11.7-3.534Zm-207.331-17.35c-.964-.926-2.929-1.89-11.245-2.306-14.345-.737-18.673-.813-21.716,0-9.337,3.062-21.981,14.723-11.85,22.547,13.23,5.557-5.349-24.059,33.623-13.079,7.957,2.778,14.912-.624,11.189-7.144Zm362.348,2.646c-9.866,3.629-22.264,11.964-32.886,10.338-12.247-3.289-27.121-7.239-26.176-22.415,1.777-10-5.821-14.534-8.807-4.536-2.627,5.821,1.777,12.549,3.307,18.012,3.78,9.3,25.118,17.785,36.08,17.35,7.182,2.287,23.341-10.943,34.114-10.149,16.443.7,6.067-16.424-5.632-8.581Zm-346.925,4.479c-13.4-5.065-12.757,12.3-1.512,12.852,6.331-1.229,6.275-10.206,1.512-12.833Zm255.148,4.536c-1.323-12.3-19.561-4.574-11.548,5.027a6.936,6.936,0,0,0,11.586-5.008Zm-241.37-14.95c-8.373,1.172-4.29,14.534-.246,18.3C258.478,549.492,251.768,523.411,245.342,523.618Zm127.725,3.024c-8.864,1.89-2.022,20.563,7.069,14.534,6.861-4.574-1.455-14.742-7.069-14.553ZM22.986,527.871c-9.62-5.443-14.1,9.3-4.479,12.058a6.44,6.44,0,1,0,4.479-12.077Zm127.9-1.89c-10.376-2.608-21.659-7.466-15.914-18.56a8.826,8.826,0,0,0,1.115-5.179c-11.68-14.1-15.328,18.068-5.084,23.1,4.952,5.462,13.7,4.952,19.41,11.34,3.383,3.307,4.234,3.78,6.161,3.78,10.395-1.966,1.323-13.532-5.689-14.439Zm237.25-9.034c-6.8-3.232-12.4-16.348-18.389-13.1-5.008,3.326,0,12.02,9.922,17.01,14.723,4.479,5.424,23.1,19.467,17.312,4.423-5.1-3.95-16.745-11-21.187ZM502.3,525.074c-8.184-5.292-13.23,9.733-5.216,13.419,10.187,4.177,10.867-8.94,5.2-13.381ZM421.376,627.567H436.5c1.436-7.673-7.9-10.017-13.419-5.141a4.933,4.933,0,0,0-1.7,5.141ZM43.549,523.618c-9.45-3.081-12.965,8.543-4.9,12.247C49.03,541.176,50.882,525.981,43.549,523.618Zm289.356,0c-7.22,3.213-2.438,8.977,2.967,11.453C352.259,541.252,345.8,518.95,332.905,523.618Zm-24.192-1.455c-6.653-1.039-20.79-6.842-17.01,4.744.756,2,4.687,2.533,9.563,2.476,5.216-.813,11.151,5.764,15.12,5.764,12.19-3.043,1.607-13.551-7.673-13.041Zm116.291,0c-4.423-.643-11.548-3.572-15.422-3.893a5.1,5.1,0,0,0-3.251,9.148c4.366,3.118,13.665-.68,17.539,4.177,2.892,2.193,3.629,2.476,5.67,2.211,8.751-2.778,5.991-11.4-4.536-11.756Zm17.69-.737c-2.287,4.706-1.361,9.715,2.155,11.6,14.817,6.672,7.182-27.877-2.155-11.718Zm26.2-5.368c-.491-2.665-.907-4.8-2.306-5.67-9.714-3.78-7.031,10.036-5.538,15.687.189,5.2,4.9,7.56,8.769,4.5C473.331,527.172,469.249,521.124,468.89,516.058ZM570.382,513.9c-9.639,3.78-20.185,14.818-31.506,6.9-3.364-2.589-4.555-5.67-4.441-11.964-.567-12.757-6.369-13.57-3.553-30.656,1.361-9.337-.094-13.7-7.125-10.981-4.763,2.419-.794,13.759-1.323,18.786-.7,11.793,4.026,20.034,4.838,29.729,0,10.3,4.517,11.019,14.213,14.931,8.543,4.328,19.883-3.005,28.236-5.84,9.639-2,9.639-11.283.6-10.886Zm-210.374,1.21c-13.7,1.644-11.056,16.481.907,12.115a6.086,6.086,0,0,0-.907-12.1ZM235.8,522.447c2.1-4.555-1.134-8.524-6.936-7.787-9.828,0-10.773,9.96-2.117,11.34C231.016,526.926,234.475,525.508,235.8,522.447Zm-20.676-14.1c-.3-2-27.707.151-33.434.68-6.634-.794-32.13,11.51-16.632,17.01,14.439-6.88,6.974-10.395,32.47-9.45,17.331.113,22.491.435,17.577-8.24Zm272.158,9.809c-1.625-2.192-1.493-12.757-3.553-14.024-11.17-3.156-7.768,14.912-3.78,20.487,4.215,3.629,11-.038,7.333-6.464Zm140.993,5.67V509.16c-4.422-1.134-6.823,6.445-9.185,9.658-5.2,7.56,2.552,10.546,7.806,6.331h0ZM26.256,494.758c.926-12-1.493-14.515-8.07-8.883-4.517,8.486,2.173,20.487,2.646,29.5a6.823,6.823,0,0,0,6.388,6.35C39.24,521.842,23.477,506.382,26.256,494.758ZM592.7,507.346c-6.294-4.063-14.988,9.45-6.6,12.644C596.312,525.716,597.9,511.2,592.7,507.346ZM323.966,504.87c-5.349,1.077-8.354,10.13-2.967,13.116,10.678,7.106,13.324-14,2.967-13.117Zm179.719,5.8c-2.646-17.463-17.8-3.61-7.56,6.8,3.742,2.173,7.56-1.3,7.56-6.8Zm-346.51-10.036c-1.512,8.2-14.817,3.27-15.12,10.338-.227,4.158,3.912,6.615,7.957,6.577,6.275-.227,6.048-7.862,12.852-10.206C177.379,502.3,162.448,488.351,157.175,500.636ZM46.686,506.174c-5.557-5.424-5.953-6.936-3.478-12.8,1.89-4.593,1.89-6.709-.095-9.072-2.948-4.234-9.166-.113-9,4.385v11.7c.737,4.045,5.084,15.12,7.56,15.517,7.012,4.045,10.792-5.519,5.008-9.733Zm291.643,3.043c-3.78,6.861,4.819,10.6,8.864,4.1,2.627-3.78,5.235-5.424,8.392-5.424,15.97-1.115,4.441-21.792-17.256,1.323Zm88.187-4.139c-4.612-.983-10.111-7.276-14.5-2.268-2.495,5.859.17,8.392,9.45,9.866,4.649.132,14.931,6.955,17.445,3.345,6.275-8.354-7.239-9.677-12.4-10.943Zm-185.048-.359c-4.139,5.67,2.249,15.706,8.656,9.6C259.309,507.289,249.9,495.269,241.468,504.719Zm367.866-2.306c-10.546-1.89-9,14.78.548,13.57,6.974-1.966,6.71-10.83-.6-13.494Zm-217.972-6.445c-2.079-4.12-5.67-5.008-8.618-2.117-7.881,4.838,16.292,24.437,20.166,20.7,10.7-8.089-9.733-10-11.6-18.5Zm151.747,10.3c-4.177,7.22,4.252,11.434,11.793,7.05,18.049-9.129-3.723-14.666-11.85-6.974ZM302.42,503.585c-4.593,4.423-14.572-5.991-18.5-2.778-3.081,3.081-1.323,8.826,3.686,10.716,4.574,2.192,9.45-1.493,14.288.926,14.4,7.39,12.757-15.29.472-8.788ZM273.6,508.858c11.038-16.783-26.006-10.641-8.6.907C268.929,511.541,271.2,511.3,273.6,508.858ZM76.265,496.63c-11.718,1.89-2.23,16.67,6.1,13.022C89.457,505.285,84.732,494.758,76.265,496.63ZM455.339,499.6c-1.493-2.457-1.89-2.646-13.022-6.558-18.56-5.764-14.723-7.371-19.335-18.352a8.807,8.807,0,0,0-10.6-2.457c-6.124,4.309,3.78,8.959,5.953,12.89,2.1,9.45,6.029,11.794,17.01,13.721,7.73.113,10.206,6.955,13.967,11.056C454.469,511.938,458.57,504.926,455.339,499.6ZM232.7,497.934c-5.9-6.067-20.487,1.8-10.962,8.259C227.86,509.481,239.351,504.53,232.7,497.934Zm348.1-2.174c-5.311-5.764-18.786,5.538-10.584,10.716,6.766,3.421,15.838-5.764,10.584-10.716ZM54,490.09c-4.668,1.89-4.687,10.017.548,12.7C69.234,508.177,65.7,485.668,54,490.052Zm412.376.851c-6.275,3.5-4.12,14.25,3.27,12.115,10.206-4.668,9.355-17.482-3.27-12.153Zm48.78,4.649c-1.039-3.024-.7-20.582-2.627-22.056-4.99-4.063-11.094,2.4-7.73,8.637,3.78,6.067-3.478,15.838,3.667,20.091,5.538,2.948,8.354-.567,6.691-6.709Zm113.115,5.916v-8.864c-2.7-6.067-13.4-3.667-14.515,1.625.68,5.67,8.448,10.962,13.778,8.089a2.928,2.928,0,0,0,.737-.888ZM196.845,491.186c-7.05,5.386-15.838-1.89-21.414,1.644-5.67,8.07,2.57,10.489,11.926,8.165,5.5-1.1,25.628-1.89,25.118-3.629,5.651-8.978-9.45-10.584-15.63-6.218Zm139.689-1.777c-6.653-3.61-10,9.015-5.254,11.68,6.577,3.837,14.137-8.033,5.254-11.718Zm-13.23-1.739c-5.481-12.172-18.2,8.6-7.428,11.926,5.594,1.342,7.9-7.957,7.352-11.888Zm268.378-.718c-5.273,5.424-3.289,12.323,3,13.117,16.424-2.325,3.478-20.658-3.118-13.154Zm-439.535.548c-5.481-6.653-16.424,4.479-10.886,10.471,4.328,4.989,16.405-4.706,10.773-10.508ZM552.37,456.978c-8.108-3.289-12.209,5.859-12.89,13.23,0,4.46-2.7,26.252.907,27.254,6.407,4.9,9.11-1.153,7.56-6.823a98.279,98.279,0,0,1-.208-20.79c1.455-3.667,9.714-10.49,4.517-12.909ZM398.526,485.819c-3.685,4.5,1.418,9.733,5.67,11.434C421.224,501.109,406.35,473.685,398.526,485.819Zm98.563-2.079c-3.043-6.955-13.967,4.5-13.362,8.713,1.8,15.252,18.2,1.248,13.362-8.694Zm-205.177,6.18c-.68,5.67,7.39,7.787,10.886,5.519,9.185-10.7-8.108-18.087-10.886-5.5Zm272.857-13.8c4.347-7.031-.851-12.852-6.577-9.091-6.142,5.368-4.555,25.4-1.285,28.236,5.481,3.478,10.943-4.555,7.258-10.489-1.569-3.5-1.4-4.63.6-8.637Zm-195.16,4.536c-6.407,0-8.618,8.826-3.44,13.627,10.206,7.825,13.4-13.8,3.44-13.608Zm-97.6.926a122.388,122.388,0,0,1-20.506,3.893c-4.347.265-13.419-3.553-15.706-.586-2.23,2.211-.983,6.936,2.287,8.713,1.607.775,3.156.851,6.539.265,5.2-1.361,11.189,1.89,16.254-1.153,6.048-3.345,9-4.045,14.515-.851,17.407,9.072,8.467-15.5-3.383-10.263Zm-138.989-.378c-5.67-5.878-16.462,3.27-9.166,9.847,5.594,5.878,14.666-4.8,9.166-9.828Zm221.941,9.185c8.6-11.7-20.79-15.252-8.977.359a6.653,6.653,0,0,0,8.977-.34Zm98.6-11.661c-13.117,1.153-14.874-9.9-19.788-18.408-4.971-4.2-12.247-2.476-18.012-4.215-7.012-2.684-10.527,3.364-5.935,7.654.888,1.285,4.271,1.228,8.618.813,13.23-2.816,10.811,13.948,19.2,18.257,3.988,1.89,10.905,3.78,14.326,5.311,11,5.235,15.441-10.867,1.588-9.393Zm-280.719,3.024c-4.971-11.094-23.247-1.021-11.189,6.521,6.1,2.646,13.249-1.531,11.189-6.5Zm48.195-5.084c-5.67,2.022-7.692,13.135.775,12.455,12.493.265,8.2-13.23-.775-12.436Zm357.207-2.816c-6.369-1.172-9.45,12.852-1.72,13.589,10.319,2.041,11.718-14.25,1.7-13.57ZM115.2,481.094c1.89-8.354-12.531-7.125-18.087-11.529-6.086-4.8-17.237-4.517-25.1-7.976s-13.06-2.4-9.79,5.046c6.048,7.806,12.757,1.89,24.06,7.465,14.439,4.158,14.25,6.483,21.886,11.907,3.062,1.229,6.445-1.153,7.05-4.895Zm279.982-17.18a21.168,21.168,0,0,0-2.986,4.517c-1.474,4.139-14.61,11.529-8.921,16.462,7.182,6.218,8.543-7.239,15.12-9.45,11.548-3.213,3.818-16.915-3.194-11.51Zm226.477-11.661c-1.342-.095-13.57,6.52-12.833,13.419.189,6.294-7.56,14.024-2.117,18.371a4.952,4.952,0,0,0,5.821,1.1c7.995-4.4-3.78-16.1,9.091-21.735,6.426-2.457,6.275-10.3.057-11.132ZM191.591,474.309c-5.67-4.234-18.276,6.823-8.108,10.338C191.724,488.332,200.512,480.149,191.591,474.309Zm280.341,7.881a8.826,8.826,0,0,0,7.56,0c19.013-16.2-28.236-13.173-7.56,0Zm156.339.737V466.919c-4.347,1.436-8.637,14.78-1.266,15.895a4.8,4.8,0,0,0,1.266.113ZM50.58,468c-5.386,0-6.18,9.715-1.1,13.23C63.091,487.558,61.523,468.9,50.58,468Zm288.033,6.634a17.728,17.728,0,0,0-7.447-6.955c-6.785-1.682-9.053,11.794-1.89,13.986,4.9,2.268,11.189-2.495,9.318-7.031Zm-126.1-27.5c-.907-2.7-.529-10.263-1.4-15.951-.624-6.388-8.959-13.4-5.878-20.015,1.512-5.557.832-8.089-2.06-9.45-6.861-1.4-7.56,0-6.88,10.66a25.288,25.288,0,0,0,3.213,13.665c7.22,9.45,3.156,14.477,4.9,23.965,1.7,2.627,3.969,6.5,4.063,9.034,3.043,8.014-12.474,15.12-6.218,21.338,3.78,2.136,6.88,1.039,9.45-4.479,8.977-12.606,6.369-16.537.794-28.766ZM286,468.393c-5.122,2.684-4.479,9.6,1.455,10.395,13.683,2.249,11.264-17.218-1.474-10.395Zm19.542,1.115c-5.67,4.763.68,13.23,8.713,8.769,8.486-5.481-.85-17.274-8.732-8.769ZM35.252,463.139c-4.593.132-15.687,10.716-7.919,15.12C34.212,481.7,48.028,463.971,35.252,463.139Zm116.5-45.681c-9.828,18.768,1.417,22.3,2.362,37.157.51,17.01-10.716,10.168-16.8,17.218-2.457,6.256,4.914,8.732,10.678,5.821,36.722-20.2-9.015-45.36,16.689-62.2,12.776-8.543-5.689-19.467-12.927,2.022Zm124.739,36.118c-6.388,15.12-25.269,19.883-39.69,11.737-8.581-4.309-12.8-3.78-12.4,1.7,4.687,10.678,30.24,11.434,39.69,8.883,13.948-3.78,9.752-7.692,18.711-14.326,8.694-3.988-.85-12.549-6.294-7.881Zm315.23,5.519c-4.706,3.194-2.419,23.209,5.424,17.01,3.421-4.933,7.5-24.135-5.405-16.991Zm-232.468,7.352c-11.34-3.081-15.819-5.67-15.838-13.457-1.663-8.108,10.867-13.23,11.491-19.164-4.612-21.111-24.116,19.41-19.3,25.742,6.728,10.244,18.522,15.12,24.381,16.84,6.218-.454,6.218-9.034-.718-9.941Zm133.263-23.568c-9.45-15.384,13.23-23.625-2.608-45.36-13.041-20.3-1.663-19.9-.246-37.441-.548-10.414.359-18.049,5.273-23.492,12.3-12.266-3.213-21.527-6.728-7.069-5.462,15.857-9.11,15.12-6.728,33.112-.416,2.722-1.04,3.78-4.952,9.45-6.218,10.319,4.952,25.5,9.45,35.135,6.426,9.733-13.135,27.991-1.285,38.631,11.34,9.6-.737,25.76,8.165,29.068,3.931,1.455,7.9-2.608,7.05-9.072-2.06-15.139-2.4-15.441-7.371-22.944ZM382.083,467.826c3.062-3.383,10.225-10.716,3.005-13.1-6.69-2.476-22.132,19.391-10.527,19.278,1.7.019,2.684-.794,7.541-6.161Zm-258.228-7.711c-5.519,1.55-9.337,9.45-3.326,12.436C132.076,476.6,136.876,459.491,123.854,460.115ZM168.1,464.84c-2.325,6.407,5.935,8.9,9.7,5.972C188.284,463.611,170.631,453.084,168.1,464.84Zm295.291,0c-1.7-7.276-23.757-8.467-18.163.964a7.976,7.976,0,0,0,6.52,4.46c8.467,1.758,13.079-.4,11.642-5.349ZM193.122,451.61c-7.314.283-7.673,11.34-2.344,14.572,10.83,6.142,12.285-14.7,2.249-14.515Zm383.837,4.555c-3.686-1.89-4.46-2.533-5.916-5.273-2.778-7.957-12.077-8.826-13.438-2.173-.851,5.67,8.467,7.995,11.586,12.058,2.476,2.57,4.479,6.785,8.316,6.558,6.653-.6,7.484-8.108-.643-11.113Zm-64.77-131.392c-4.706,1.474-5.519,11.775-9.677,15.366-4.158,4.045-4.366,4.782-4.782,16.575a39.9,39.9,0,0,1-2.892,16.424c-10.017,17.237,18.616,31.43,5.878,52.655-3.44,8.448-3.232,10.092,2.344,18.9,3.572,3.648,2.929,15.214,5.991,20.261,2.1,2.495,5.065,2.476,7.56,0s2.173-4.234-3.534-16.632c-10.225-15.762-.869-26.592,0-39.2-1.89-11.34-17.01-22.68-9.677-35.116,4.271-6.917,1.342-35.324,9.45-35.324,8.864-2.589,10.225-19.637-.756-13.854ZM109.169,454.558c-3.4-1.418-11.34-.643-14.61-3.78-4.517-3.27-10.716-1.493-15.63-3.459-9.3-2.381-24.437-15.384-32.3-19.883-9.45,1.89-4.347,12.852,3.931,13.57,7.56,2.419,10.848,9.771,22.566,12.549,11.132,3.78,21.3,4.177,30.107,10.263C111.475,469.659,115.765,458.433,109.169,454.558ZM478.907,451.4c-14.761-2.552-14,17.558,1.89,11.17,4.158-2.287,2.23-9.412-1.833-11.17Zm-452.481-.6c-7.409-7.56-18.56,9.072-8.694,11.661,4.5,1.739,15.139-7.182,8.751-11.661ZM328.71,627.567h8.845a110.5,110.5,0,0,1,4.045-17.35c5.67-14.307-14.137-10.036-10.565,4.29C332.187,621.331,329.674,622.427,328.71,627.567ZM308.336,454.729c-4.063-8.467-23.663-.208-12.077,6.615,4.838,3.345,14.213-.416,12.077-6.539ZM142.225,443.615c-9.015-5.2-12.039,12.757-3.78,16.613,11.7,4.8,7.692-11.85,3.78-16.537Zm123.189-7.144c-9.337,1.89,2.533,19.9-15.592,15.762-8.977-.113-14.269-7.106-21.867-7.768-5.1-1.417-9.771,4.423-6.124,8.41,1.4,1.38,2.948,2.041,7.56,2.06,10.867.17,20.79,11.34,31.638,4.574,7.182-5.443,17.1-17.407,4.385-22.963ZM535.682,457.7c2.57-4.517-6.8-11.189-8.373-16.311-6.369-11.831.246-19.523,4.687-30.674.51-2.192-2.192-4.385-5.33-3.78-6.936-.359-6.577,11.718-8.864,16.632-5.821,10.508,4.574,26.138,9.45,36.136a4.952,4.952,0,0,0,8.486-1.928ZM40.034,445.732c-17.18,6.8,10.83,18.068,15.668,14.307C62.241,453.217,45.779,446.129,40.034,445.732Zm328.555,11.34c3.78-6.35-11.964-15.611-14.156-10.263-4.385,4.857-1.89,9.45,4.725,11.586q7.258,2.854,9.431-1.342Zm36.363-8.826c-.775-12.228-22.094-7.239-11.472,4.234,5.9,5.651,11.378,1.342,11.472-4.252Zm31.619-7.428c-8.618,3.4-.3,17.18,7.182,13.022s-.321-16.159-7.182-13.041ZM147.819,405.854c-3.78-8.24-11.831-.964-12.436,8.94,1.777,11.869-19.316,20.79-20.79,33.6.4,7.239,11.718,7.711,11.132-.832,0-6.1,1.89-9.166,6.539-10.395,6.426-1.739,6.766-2.192,8.146-10.357C140.07,422.637,148.519,409.123,147.819,405.854ZM178.891,443.5c-9.053-7.22-.85-14.572-4.857-21.206-7.976-4.933-12.3,7.2-7.182,16.008,1.89,3.648,3.156,11.6,5.916,13.986C179.1,455.938,186.772,450.608,178.891,443.5Zm436.076-1.153c-.4-11.793-12.209-.68-14.874,2.854-2.948,4.933,2.249,10.7,7.069,7.277C613.076,448.359,614.966,445.921,614.966,442.349Zm-156.547-1.493c-11.34,5.67-.548,18.314,6.842,7.56,15.309-8.883,4.2-15.725-6.842-7.617Zm133.565,6.331c1.361-7.39-16.008-14.477-16.329-5.254-1.058,2.381,7.711,9.714,9.847,10.3a4.819,4.819,0,0,0,6.483-5.1ZM546.87,409.274c-5.462.756-17.01,19.75-13.57,25.893,3.175,5.972,9.072,20.053,16.707,13.513,7.56-6.086-11.983-10.773-8.713-18.654.3-4.2,1.455-5.9,5.991-8.826,6.029-2.495,6.691-12.72-.416-11.983ZM415.157,439.306c-10.017,5.67,1.7,12.455,8.165,9.941C432.356,446.337,420.752,435.394,415.157,439.306Zm-35.021.624c-5.67-2.136-7.163-11.888-12.266-13.041-5.67.662-9.015,9.866-1.758,12.644,3.459,1.777,6.388,5.821,8.618,8.335C379.947,452.631,388.887,444.239,380.136,439.93Zm-90.228-1.89c-11.926-3.5-9.45-14.477-2.986-24.248,4.725-7.957,8.921-14.269,1.058-15.97-6.35-1.436-5.311,10.489-10.433,14.723-4.007,4.706-4.971,16.027-2.759,21.338,2.8,4.158,4.536,11.434,9.677,12.549,8.732,3.78,17.123-5.783,5.443-8.354Zm338.307,9.053V432.5c-6.558,1.191-8.089,12.153-2.854,14.288a4.762,4.762,0,0,0,2.911.34ZM141.639,377.617c-.378-13.23-2.249-17.407-9.866-14.213-3.534,6.294,6.861,22.415-1.89,29.03-11.831,9.242-8.751,9.828-11.34,23.322-.321,3.289-9.62,6.861-11.756,11.34-2.514,5.046-15.5,13.665-6.294,18.144,10.489,4.12,7.258-12.8,16.689-16.594,14.685-7.749,5.972-22.4,17.841-30.561C141.469,394.06,142.168,391.887,141.639,377.617ZM321.792,406.61c-5.122,1.04-6.766,10.036-9.45,14.5-2.533,6.407-6.955,12.984-9.582,18.9-1.021,3.78,4.706,7.919,8.146,5.557,5.008-4.952,5.008-19.637,12.323-25.666C328.558,415.436,329.485,406.08,321.792,406.61ZM196.316,439.817c-1.512-4.649-4.819-18.673-11.926-13.646-5.141,3.364,2.4,17.52,6.294,18.9a4.177,4.177,0,0,0,5.632-5.254Zm51.937-7.806c-8.5-3.118-16.273,7.031-3.78,11.132C256.588,448.586,257.476,435.281,248.253,432.011Zm-213.36,2.778c-1.89-14.515-19.6,1-9.62,7.56C30.886,445.146,36.046,440.648,34.893,434.789Zm46.323-4.838c-6.464-2.759-13.778-5.67-17.5-12.1-1.89-2.722-3.118-4.593-4.63-5.084-23.965,3.251,20.053,27.008,23.889,27.688,12.965,3.383,12.474-7.371-1.758-10.546ZM223.7,425.717c-5.519,0-7.371,6.407-3.213,11,10.773,7.012,17.936-9.6,3.213-11.038Zm341.312,1.777c-4.819-.567-10.489-3.591-13.589,0-4.158,5.273,1.531,8.921,7.56,9.2,6.407.548,9.223.662,10.83-.151,4.649-3.118.813-8.694-4.8-9.091Zm-113.4-3.78c-11.812-2.911-11.983,8.316-4.971,12.077,8.127,3.459,16.745-8.41,4.971-12.153Zm150.953-7.409c-7.976-3.78-7.56,6.558-9.45,11.567-3.288,6.256,2.041,11.34,7.031,6.88,4.2-1.455,5.651-16.462,2.419-18.522Zm-215.779,6.426c-6.161.227-7.957,7.465-2.23,11.7,10,7.333,13.4-12.342,2.23-11.775Zm27.4,6.35c-3.081-12.757-21.716-3.232-10.716,6.2,4.309,2,10.716-1.739,10.716-6.275Zm15.781-6.01c-14.232-3.78-10.263,13.23,1.682,12.058,6.615-2.041,3.534-10.527-1.682-12.134ZM306.6,405.135c-9.45-7.05-7.239,9.7-13.116,14.137-10.282,11.17,5.084,19.883,7.995,5.216,1.058-5.235,10.773-15.706,5.122-19.429ZM619.465,414c-11.132-4.914-10.452,12.833-5.84,17.577C621.865,435.507,626.458,417.42,619.465,414Zm-141.843,6.067c5.953-12.7-12.776-27.858-10.811-38.631.662-9.337-9.45-8.581-11.491-15.838-1.644-5.991-8.127-6.728-11.926-10.754-4.158-4.838-4.819-5.311-7.352-5.311-7.862.775-3.893,9.658,3.5,13.476a61.2,61.2,0,0,1,14.893,14.024c7.39,7.56,3.515,17.86,9.885,24.116,6.256,6.728,9.62,12.89,2.514,20.015-3.78,3.591-4.782,7.106-.378,9.11,5.254,2.287,8.108-.3,11.151-10.225Zm-211.867-2.835c-7.2-5.216-18.9,5.67-7.938,12.19,7.447,4.649,11.548-7.012,7.919-12.209Zm320.73-4.479a4.857,4.857,0,0,0-6.842-.416c-3.61,4.914-7.56,21.584,4.139,16.821,2.419-1.663,5.254-15.857,2.684-16.424ZM90.043,415.4C79.27,417.8,79.7,402.376,72.636,402.527c-3.78-.3-6.483,5.122-4.649,7.673,2,7.163,18.9,12.89,25.08,16.84C104.387,428.8,100.929,413.47,90.043,415.4Zm-75.6-1.266c-7.806,3.78-2.192,17.35,6.1,10.981,9.412-5.179,1.682-15.422-6.029-10.981Zm216.535,3.648c-.4,5.122,6.672,8.108,11.019,6.747C255.775,418.4,232.812,405.1,230.979,417.779Zm126.629-13.854c-3.44-2.419-8.221-1.134-6.634,4.876.68,3.478.416,12.058,2.4,14.477,11.623,6.01,9.053-14.08,4.215-19.429ZM40.9,407.5c-9.45,2.948-13.457,21.867,1.077,13.873C47.48,416.721,49.521,406.988,40.9,407.5Zm336.776,1.077c-4.2-6.256-3.893-19.675-12.776-14.156-2.514,2.155-2.249,5.141.794,9.072,5.67,4.5,1.89,14.742,6.275,18.125C379.04,423.109,383.217,416.456,377.679,408.575Zm-159.42-2.854c-9.866-.132-5.443,21.7,3.988,12.984,5.33-4.064,2.589-12.984-3.988-12.984Zm350.8,2.929c-7.125-6.9-15.573,7.711-6.539,10.905,6.275,1.8,11.34-6.6,6.539-10.905ZM183.294,403.3c-9.941.85-8.108,19.183,2.476,15.668,4.668-1.758,3.685-17.369-2.476-15.668Zm258.512,4.177c-8.448-12.039-18.616,9.6-3.364,11.453C443,418.932,444.131,411.958,441.806,407.479Zm-44.849-.208c-8.448-1.72-3.194-16.046-11.132-17.822-6.993-.888-7.825,3.062-3.005,11.623,4.234,6.766,3.95,12.946,10.319,16.065,9.3,4.895,14-6.747,3.874-9.866Zm20.922-2.155c-12.153,1.021-10.074,15.12.907,12.625,7.069-2.646,6.35-12.625-.851-12.625Zm37.611-.6c-6.294,0-7.843,10-1.984,12.871,11.245,5.368,10.773-12.115,2.041-12.833ZM123.344,367.638c-.416-4.687-8.392-8.921-9.015-14.326-2.079-6.577-4.347-7.768-8.259-4.328-10.281,9.677,15.933,17.161,10.017,32.375-.378,7.56-13,8.089-12.134,15.838,0,4.328-5.273,14.156-.586,17.01a3.95,3.95,0,0,0,5.311.869c6.917-6.577-1.663-16.1,10.754-23.927C129.184,384.837,124.289,376.672,123.344,367.638Zm142.165,30.24c-6.8,4.574-24.305-.321-17.841,10.905,2.514,2.759,6.407,1.474,9.714,0,3.478-2.722,9.7,1.247,13.362-1,5.84-4.668,5.859-16.632-5.235-9.941Zm346.4.4c-3.421-4.271-9.9,1.493-15.12,1.266-5.67,0-7.05,1.455-7.938,2.778-3.175,11.019,9.45,4.99,15.8,5.557,6.842,1.172,10.735-4.441,7.258-9.639ZM628.272,409.2v-13.23a6.8,6.8,0,0,0-6.123,11.7,6.351,6.351,0,0,0,6.123,1.493ZM31.491,397.33c-6.539-7.125-16.046,7.333-7.125,10.848C29,410.219,37.5,402.263,31.491,397.33ZM95.2,389.222c-8.581-9.148-15.668,12.209-7.806,17.01C97.035,412.525,98.037,392.643,95.2,389.222ZM232.339,394c-7.56.208-7.05,11.132-.6,11.907C245.834,406.534,242.715,392.3,232.339,394ZM61.315,397.254c-5.84-7.163-19.656-.132-20.79-16.556-.454-15.12-20.091-17.123-11.34-3.44,4.819,6.861,2.381,9.582,8.581,16.8,3.874,6.18,9,5.67,14.1,9.45C58.14,408.689,64.509,403.775,61.315,397.254Zm479.923-8.448c-2.911-12.02-4.989-16.159-13.041-12.455-2.684,2.665-2.117,5.2,2.041,9.677,7.787,5.368.321,14.345,5.386,19.089C545.755,407.838,543.865,396.12,541.238,388.806Zm39.123,3.912c-8.77-5.405-16.708,4.536-6.88,10.659C580.418,407.914,587.335,397.519,580.361,392.718Zm-20.525-21.81c5.405-6.369.4-17.539-1.134-20.015-4.29-9.45-28.01-5.67-21.7-20,3.78-14.7-13.022-5.141-10.187,3.912-.094,3.78,5.008,14.78,12.965,14.685,9.563,1.55,15.233,7.9,13.835,15.479-2.287,6.5-11.623,9.866-5.405,19.051,2.627,4.347,2.665,14.043,3.912,18.144,6.936,5.027,13.381-7.39,6.823-13.74C553.769,381.643,554,377.806,559.836,370.908ZM314.7,388.2c-5.33.265-9.053,11.775-2.117,13.7,10.319,3.572,9.185-13.381,2.117-13.7Zm98.279,7.371c-3.27-11.6-23.814-6.974-11.434,5.557,3.874,2.7,11.434-.964,11.434-5.557Zm109.109-30.523c-2.306-5.387,5.443-13.4,3.5-17.274-1.493-4.9-4.706-5.67-7.938-3.326-5.519,4.857-1.72,23.795-6.35,30.24-4.876,5.254,3.648,22.491,7.995,26.46,7.56,2.608,9.733-6.445,2.8-12.3-9.941-7.711,2.268-14.534,0-23.795Zm-362.745,3.78c-1.663-2.646-6.747-2.495-8.108-1.55-2.022,1.417-2.381,4.045-1.531,11.056,2.646,7.56-3.988,14.95.208,21.262,8.316,4.252,10.149-3.251,8.467-11.34-2.211-7.22,2.74-14.383.964-19.353Zm17.01,10.886c4.668-7.56-.567-11.434-6.88-8.146-4.479,2.929-4.423,24.437-.964,27.613,5.67,5.216,10.962-2.495,7.56-8.221a12.19,12.19,0,0,1,.189-11.17Zm259.325-9.563c-16.367-6.086-6.8-33.793-24.059-26.724-5.424,4.2,7.673,11.567,5.67,17.01,0,2.608.661,4.158,4.895,8.335,5.216,4.99,4.347,7.749,11.907,11.056,13.23,3.78,3.893,16.008,11.34,20.412,18.182.888-.945-26.365-9.847-30.013Zm-8.77,15.555c-5.9.435-10.452,11.227-2.892,13.721,10.905,3.856,14.118-13.513,2.8-13.646Zm-209.221,2.079c-13.457-5.273-20.639,8.146-4.007,11.227,7.106.113,10-7.995,3.912-11.151ZM183.37,383.76c-.643,4.838,2.589,12.36,5.859,13.608C205.369,399.692,188.548,366.334,183.37,383.76ZM82.709,368.848c-1.682,0-3.515,1.191-5.67,6.048-1.663,5.235-11.529,12.1-11.151,15.725-.17,4.177,6.823,8.014,9.79,4.234,2.514-4.328,2.287-11.756,8.3-13.551C91.063,378.43,90.269,368.489,82.709,368.848Zm216.97,2.079c-1.984.51-3.081,2.873-3.78,8.259-.4,5.443-4.631,12.4-1.021,15.97,8.373,8.467,15.706-27.367,4.706-24.23Zm46.21,23.946c2.306,2.306,4.9,2.287,8.883,0,18.994-13-19.731-16.178-8.977,0ZM283.482,627.567c32.357,3.137,9.45-23.285.661-1.569Zm3.912-258.3c-2.079-2.325-5.859-.548-7.56,3.553s-6.086,15.63-3.118,19.24c4.347,3.478,8.675-1.436,9.337-6.785.472-4.177,4.744-12.984,1.342-15.933ZM22.8,381.057c-5.67-5.481-15.63,4.536-8.788,9.752,6.331,3.591,15.158-3.4,8.807-9.677Zm580.867-.737c-.907-3.364-26.2,2.627-15.932,9.752,3.78,3.289,8.788,1.172,13.476-.265,3.137-1.153,4.536-6.445,2.476-9.412Zm15.989-2.476c-5.991,0-10.773,8.524-7.031,12.512,7.144,6.917,18.9-10.716,7.05-12.436Zm-387.787-2.419c-11.491-.416-11.189,12.02-1.229,11.775,11.51.6,10.395-11.907,1.247-11.7Zm139.065-5.443c-7.56-.17-7.428,16.67,1.153,17.01,9.563.548,5.953-16.462-1.134-16.934ZM72.579,362.025c-2.1-4.234-2.854-5.368-2.268-10.678.34-4.536.246-5.405-.794-7.106-3.043-4.971-8.581-2.23-9.45,4.725-.983,3.156,5.368,11.208,3.78,14.515-.359,14.5-18.012,8.864-15.12,18.541,2.381,4.234,7.919,6.256,11.208,1.758C65.416,376.2,74.979,369.207,72.579,362.025ZM568.756,372.8c-6.747,3.78-6.917,15.63,4.29,11.189,14.7-1.984,5.972-15.2-4.29-11.189Zm-469.34-5.273c-4.007,1.436-4.536,13.343-.85,15.762C111.248,390.847,110.3,364.312,99.417,367.525Zm298.617,7.56c-7.2-9.072-19.335,1.531-9.053,8.335,6.294,3.95,13.476-2.136,9.11-8.335Zm15.12-3.591c-6.785-.794-10.6,8.732-3.081,11.793,13.457,5.008,11.434-9.223,3.081-11.794ZM323.285,327.06c-4.555-5.235-8.051-1.682-8.788,7.012-1.191,7.843-7.56,22.377-6.6,28.482,1.191,5.386,5.84,9,5.254,15.706a7.219,7.219,0,0,0,1.3,4.12,4.46,4.46,0,0,0,7.56-.907c3.875-4.838-5.5-15.63-5.027-21.414C314.1,352.9,328.918,333.807,323.285,327.06ZM218.618,373.421c1.89-5.481-18.257-4.2-19.467-2.136-5.67,9.885,6.483,10.319,12.757,7.881,4.706-.416,6.88-2.249,6.709-5.727Zm23.228-4.045c.283,4.8,5.141,9.072,10.036,6.445,12.266-9.318-7.031-21.508-10.036-6.426Zm103.4,258.191h9.62a9.45,9.45,0,0,0-4.952-3.175C346.967,623.126,345.587,625.489,345.247,627.567Zm269-255.885c5.065-1.89-2.816-22.358-6.842-22.169-5.027.832-6.653,4.971-3.251,10.036,3.289,2.835,0,11.964,2.4,14.194C608.276,375.463,611.508,374.593,614.248,371.683Zm-22.264-11.907c-6.445-.775-10.225,9.979-4.536,13.23C597.031,377.579,603.419,361.4,591.984,359.776Zm36.288,13.816V362.97a6.01,6.01,0,0,0-5.1,6.861,5.67,5.67,0,0,0,5.1,3.761ZM186.98,353.085c-4.536,0-5.67,15.97-2.173,17.445C194.218,378.449,198.811,349.532,186.98,353.085ZM50.9,356.771c-9.091-.416-16.084,4.687-6.6,11.548,8.581,3.818,16.764-9.337,6.615-11.548Zm483.836-.624c-11.529,3.78-.7,18.768,7.919,11.34,7.05-6.029-2-11.056-7.881-11.34Zm-313.548,6.048c-1.89,5.67,5.216,7.56,9.847,6.029,13.816-5.764-5.216-19.24-9.809-6.029Zm155.7,1.455c3.043,8.713,12.833,2.589,10.886-5.8-.718-6.577,3.4-9.337,9.563-10.055,21.924-3.27-11.567-26.4-20.412,15.857Zm25.893-9.3c-7.56-.548-11.34,9.79-3.5,12.436,9.922,3.742,14.855-10.527,3.534-12.436Zm68.758-1.285c-8.335-4.46-15.271,5.878-6.294,12.7,7.711,6.785,10.924-9.2,6.331-12.7ZM307.92,324.906c-3.874-7.711-11.945-.964-11.075,8.467,1.342,6.653-6.672,20.582-7.56,27.915.85,7.806,11.623,6.18,10.622-3.1.926-9.677,9.053-26.668,8.051-33.283Zm269.663,28.709c-4.026-6.747-.983-13.4-10.187-17.5a118.474,118.474,0,0,1-12.228-8.24c-9.639-6.9-17.274,6.993-2.967,9.318,16.462,3.931,14.817,14.931,18.673,26.649,6.048,4.933,12.1-4.328,6.747-10.225Zm-411.922-1.361a6.445,6.445,0,1,0,5.67,11.51c9.261-5.1,1.644-15.233-5.632-11.51ZM363.712,627.567h8.165a9.172,9.172,0,0,0-1.3-1.266,4.385,4.385,0,0,0-6.861,1.266ZM92.159,353.785c-3.667-1.247-9.9-8.524-12.871-4.952-6.067,8.448,5.519,14.591,14.628,14.761C99.492,362.082,97.829,355.712,92.159,353.785Zm109.449.68c-3.629,7.919,6.558,9.336,11.68,6.142,9.715-10.7-5.179-15.082-11.737-6.142Zm-174.086-9.79c-8.467,0-9.242,12.984-.964,16.235C36.915,363.669,34.269,344.769,27.522,344.675Zm114.779,6.35c-4.5,4.1,2.287,12.512,7.862,9.733,10.83-5.462-.283-16.689-7.862-9.733ZM267.455,325.51c-5.67,4.309-3.95,13.532-10.7,22.963-7.125,12.171,6.709,14.269,9.261,2.173,2.23-6.577,14.515-27.858,1.436-25.137ZM125.121,340.139c-6.8,2.816-3.931,12.285.548,16.178,11.85,7.409,8.41-17.6-.548-16.178Zm125.23,287.429h8.675c-1.191-5.953-6.2-14.364-8.448-19.6-3.78-12.058-19.958-2.948-8.316,5.916C248.763,618.5,249.519,621.2,250.351,627.567Zm378-271.534V344.826c-9.45-4.517-14.288,9.318-4.045,11.812a8.826,8.826,0,0,0,3.969-.529ZM596.464,342.18c-2.1-2.079-16.348-3.27-13.853,3.667,1.266,6.558,8.335,6.766,9.677,6.539C597.427,351.63,599.809,345.563,596.464,342.18Zm-150.632-2.344c-4.347,5.122,6.558,15.29,11.831,11.037,9.488-6.8-4.517-17.652-11.831-11ZM51.581,338.4c-10.924-1.89-19.9,15.97-1.134,10.83C54.719,347.6,55.947,340.4,51.581,338.4ZM231.7,627.567h10.055c0-8.24-8.392-9.7-10.149-2.438a15.13,15.13,0,0,0,.094,2.438Zm-47.25-292.626c-7.069-6.52-14.8,5.481-8.637,11.718,7.957,6.029,12.115-7.806,8.562-11.642Zm28.8,292.626h10.282a6.6,6.6,0,0,0-5.16-4.1,4.215,4.215,0,0,0-5.122,4.1ZM102.157,338.627c-1.89-8.562-15.12-2.476-11.567,4.593C95.145,350.553,104.728,345.847,102.157,338.627Zm60.272-6.086c-8.656-4.423-9.45,10.584-4.838,13.23C165.7,350,170.688,335.376,162.429,332.541Zm309.164-8.448c-.529,6.672-12.134,17.01-3.005,21.451,7.862,1.436,7.56-11.472,11.34-16.122C485.767,321.163,475.429,315.72,471.592,324.093Zm-328.63,7.881c-8.694,0-7.957,12.4-.416,11.869C149.482,343.012,149.69,332.73,142.962,331.974Zm294.837.6c-9.7-9.148-20.6,9.922-5.481,10.867,6.124-.038,9.488-6.842,5.557-10.867Zm166.318,7.258c3.232,4.309,6.861,3.78,11.34.34,17.237-14.1-14.458-15.309-11.359-.34ZM77.285,327.7c-4.744,1.058-6.388,8.448-2.722,11.888C83.995,348.927,90.912,322.864,77.285,327.7Zm33.094,299.865h7.673c-.624-8.826-3.062-19.278-3.912-27.329-2.929-5.67-15.744-3.043-8.807,5.67,1.758,2.722,1.984,3.591,2.249,8.788A83.308,83.308,0,0,0,110.379,627.567ZM628.234,336.756v-5.349a4.479,4.479,0,0,0,.038,5.424ZM46.119,323.526c-2.948-6.539-21.81,8.9-16.216,13.23,2.362,4.593,10.584-2.873,13.627-5.008,3.459-2.514,4.441-5.594,2.551-8.108Zm13.74-2.551c-7.031.435-8.826,9.62-2.74,13.23,9.79,6.369,13.041-12.644,2.7-13.117Zm359.569,7.39c-.378-11.056-25.76-.529-12.285,5.935,6.312,3.043,13.154-.227,12.247-5.821Zm139.008,299.2h12.4c-2.287-4.46-11.34-6.653-12.361-.68C558.456,627.19,558.437,627.416,558.437,627.567Zm-432.258,0h8.713c-1.021-10.149-6.691-23.568-1.625-35.135,10.187-25.685-17.293-23.946-29.994-36.855-4.536-4.4-10-14.855-14.421-19.542-4.612-5.1-5.67-7.56-6.2-12.153-1.361-15.8-23.833-5.67,2.173,20.2,4.933,5.141,5.443,6.067,6.728,10.754,1.436,6.577,7.881,7.257,12.3,11.945,6.747,6.256,23.549,6.615,23.247,16.84.869,4.082-4.574,10.773-4.725,14.553a101,101,0,0,0,2.665,19.958,25.515,25.515,0,0,1,1.134,9.431Zm254.94,0h9.733c-3.95-6.18-5.84-13.721-11.7-13.967-6.728.907-7.276,4.725-1.474,9.7a38.688,38.688,0,0,1,3.515,4.271Zm79.587-304.042c-4.46-3.062-15.8-6.993-18.9-1.172-2.287,7.56,7.711,7.428,12.663,8.392C461.065,333.543,465.242,327.476,460.706,323.526ZM160.8,627.567h11.038c-5.8-3.27-11.094-23.247-4.649-30.353,7.333-8.845-2.7-14.647-7.276-7.806a45.87,45.87,0,0,0,.888,38.159Zm27.613,0h14.931C201.778,626.131,190.684,626.018,188.416,627.567Zm-45.227,0h9.771c-7.56-12.171-5.027-30.693,0-42.978a6.237,6.237,0,0,0-5.141-5.443c-6.5-.869-4.99,11.793-7.069,17.218C138.445,603.47,139.56,609.877,143.189,627.567Zm485.1,0v-7.276c-6.1.548-9.318,4.385-9.167,7.276Zm-607.951,0H33.57c4.1-2.948,3.289-7.768-3.156-8.373a8.77,8.77,0,0,0-10.074,8.373Zm579.469,0h12.72c1.512-6.331-8.675-12.02-13.23-7.314-1.833,2.06-1.588,4.649.454,7.314Zm-331.881,0h7.409c6.6-9.885-8.24-9.922-6.256-20.79,0-5.5,0-6.728-.983-8.127-7.957-6.35-14.666,4.063-5.953,13.929C264.7,615.812,265.49,625.035,267.928,627.567ZM550.064,8.39h-8.713c.907,2.419,4.914,3.137,8.354.378a3.4,3.4,0,0,0,.359-.378Zm-39.425,0h-9.828a5.935,5.935,0,0,0,8.883.926,8.734,8.734,0,0,0,.945-.926Zm19.618,0h-9.866a5.328,5.328,0,0,0,.832,1C523.775,11.622,528.1,9.694,530.257,8.39Zm11.094,619.177h8.713c2.911-3.629.926-18.616-7.881-22.812a8.165,8.165,0,0,1-4.631-8.5c.907-11,15.63-22.68,24.853-13.664,4.649,4.8,8.013,22.812,13.23,23.474,5.916,2.57,11.227-4.063,4.234-9.45a14.665,14.665,0,0,1-5.065-7.995c-9.809-36.817-63.674-4.838-38.537,21.243,7.56,3.043,5.67,8.392,5.178,14.383a9.129,9.129,0,0,0-.094,3.326Zm-40.54,0h9.828c5.67-6.464-1-15.838-8.221-10.584a6.936,6.936,0,0,0-1.607,10.584Zm19.58,0h9.866c7.711-3.421,2.079-17.01-5.67-12.247C521.053,617.362,517.595,623.372,520.392,627.567Z" transform="translate(-9 -8.39)" fill="#eb5b49"/>
</svg>
