<svg xmlns="http://www.w3.org/2000/svg" width="102.417" height="102.474" viewBox="0 0 102.417 102.474">
  <path id="Path_71" data-name="Path 71" d="M204.69,498.486h0l-.052-.042h-.031l-.042-.026-.057-.036h-.119a1.244,1.244,0,0,0-.275-.062H204v2.47l3,3h2.9l-5.189-5.188Zm20.474,0h0l-.057-.042h-.031l-.042-.026a.211.211,0,0,0-.057-.036h-.119a1.2,1.2,0,0,0-.27-.062h-.649a.98.98,0,0,0-.161.13l-5.189,5.189h2.9l3-3h0l3,3h2.9L225.2,498.45Zm-11.638-90.649h0a1.021,1.021,0,0,0,1.427.01l.036-.031.706-.711,5.79-5.785h-2.9l-4.338,4.338-4.338-4.338h-2.9l5.806,5.8Zm73.065,90.649h0l-.052-.042h-.031l-.042-.026-.057-.036h-.119a1.262,1.262,0,0,0-.27-.062h-.649a.984.984,0,0,0-.161.13l-5.189,5.189h2.9l3-3h0l3,3h2.9l-5.189-5.189Zm-40.953,0h0l-.057-.042h-.031l-.036-.026-.062-.036h-.119a1.2,1.2,0,0,0-.27-.062h-.628a1.247,1.247,0,0,0-.161.13l-5.189,5.189h2.9l3-3h0l3,3h2.9l-5.189-5.189Zm-32.107-96.663a1.038,1.038,0,0,0,1.427,0h0l.472-.472h-2.423l.483.488Zm52.581,96.663h0l-.057-.042a.051.051,0,0,0-.026,0l-.041-.026-.062-.036h-.114a1.244,1.244,0,0,0-.275-.062h-.664a1.246,1.246,0,0,0-.161.13l-5.189,5.189h2.9l3-3h0l3,3h2.9l-5.189-5.189Zm-11.628-96.663a1.028,1.028,0,0,0,1.427.016h0l.467-.472h-2.423l.483.488ZM234,407.837h0a1.021,1.021,0,0,0,1.427.01h0l.711-.711,5.785-5.785h-2.9l-4.343,4.338-4.338-4.338h-2.9l5.785,5.785Zm40.953,0h0a1.021,1.021,0,0,0,1.427.01h0l.706-.711,5.785-5.785h-2.9l-4.338,4.338-4.338-4.338h-2.9l5.785,5.785Zm20.479-6.014a1.034,1.034,0,0,0,1.432.016h0l.472-.472h-2.423l.483.488Zm-20.474,0a1.038,1.038,0,0,0,1.427,0h0l.472-.472h-2.428l.488.488Zm-40.948,0a1.028,1.028,0,0,0,1.427.016h0l.472-.472h-2.423l.483.488Zm72.318,96.414h-.472a.98.98,0,0,0-.161.13l-5.189,5.189h2.9l3-3v-2.47h-.062Zm-51.854-90.4h0a1.038,1.038,0,0,0,1.427,0h0l.706-.711,5.785-5.785h-2.9l-4.338,4.338-4.343-4.338h-2.9l5.79,5.785Zm40.953,0h0a1.038,1.038,0,0,0,1.432,0h0l.706-.711,5.79-5.785h-2.849l-4.338,4.338-4.338-4.338h-2.9l5.785,5.785Zm10.9,24.153h-.342l-.041.026h-.047l-.042.031a.767.767,0,0,0-.161.13l-9.516,9.516-9.531-9.407-.052-.047h0l-.052-.047h-.073l-.057-.031-.047-.026h-.073a1,1,0,0,0-.27-.057H285.5l-.047.026h-.041l-.042.031a.767.767,0,0,0-.161.13L275.7,441.78l-9.531-9.5-.052-.047h0l-.057-.047h-.067l-.062-.031-.042-.026h-.073a1,1,0,0,0-.275-.057h-.529l-.047.026h-.042l-.047.031a.929.929,0,0,0-.161.13L255.2,441.78l-9.511-9.5-.052-.047h0l-.057-.047h-.067l-.062-.031-.042-.026h-.078a.963.963,0,0,0-.27-.057h-.493l-.047.026h-.047l-.041.031a.93.93,0,0,0-.161.13l-9.516,9.516-9.542-9.5-.052-.047h0l-.057-.047h-.073l-.057-.031-.042-.026h-.078a.963.963,0,0,0-.27-.057h-.519l-.042.026h-.047l-.042.031a.767.767,0,0,0-.161.13l-9.516,9.516-9.521-9.5-.052-.047h0l-.052-.047h-.073l-.057-.031-.047-.026h-.073a1,1,0,0,0-.275-.057H204v2.47l8.821,8.7.721.721h0a1.021,1.021,0,0,0,1.427.01h0l.706-.711,8.789-8.784h0l8.789,8.795.721.716h0a1.021,1.021,0,0,0,1.427.01h0l.711-.706,8.878-8.836h0l8.789,8.795.716.716h0a1.038,1.038,0,0,0,1.427,0l.036-.031.706-.706,8.789-8.789h0l8.789,8.795.721.716h0a1.021,1.021,0,0,0,1.427.01h0l.706-.706,8.789-8.789h0l8.789,8.795.721.716h0a1.038,1.038,0,0,0,1.432,0h0l.706-.706,8.789-8.789v-2.475h-.062Zm0-6.019h-.379L305.9,426h-.042a.982.982,0,0,0-.161.13l-9.516,9.516-9.537-9.376-.052-.047h0l-.052-.041h-.031l-.042-.026-.057-.036h-.119a1.037,1.037,0,0,0-.27-.062h-.566l-.042.026h-.042a.982.982,0,0,0-.161.13l-9.516,9.516-9.531-9.459-.052-.047h0l-.057-.041a.052.052,0,0,0-.026,0l-.041-.026-.062-.036a.1.1,0,0,0-.042,0h-.073a1.007,1.007,0,0,0-.275-.062H265.1a.1.1,0,0,0-.042,0h-.083l-.042.026h-.047a1.258,1.258,0,0,0-.161.13l-9.511,9.516-9.526-9.459-.052-.047h0l-.057-.041h-.031l-.036-.026-.062-.036a.1.1,0,0,0-.041,0h-.078a.971.971,0,0,0-.27-.062h-.54l-.047.026h-.041a1.254,1.254,0,0,0-.161.13l-9.516,9.516-9.542-9.459-.052-.047h0l-.057-.041h-.031l-.042-.026a.213.213,0,0,0-.057-.036h-.119a.97.97,0,0,0-.27-.062h-.519a.1.1,0,0,0-.042,0l-.047.026h-.042a.978.978,0,0,0-.161.13l-9.516,9.516-9.521-9.459-.052-.047h0l-.052-.041h-.031l-.042-.026-.057-.036h-.119a.846.846,0,0,0-.275-.062H204v2.475l8.821,8.7.721.721h0a1.038,1.038,0,0,0,1.427,0h0l.706-.706,8.789-8.789h0l8.789,8.789.721.721h0a1.028,1.028,0,0,0,1.427.016l.031-.036.711-.706,8.846-8.8h0l8.789,8.789.716.721h0a1.028,1.028,0,0,0,1.427.016h0l.706-.706,8.789-8.789h0l8.789,8.789.721.721h0a1.038,1.038,0,0,0,1.427,0l.036-.036.706-.706,8.789-8.789h0l8.789,8.789.721.721h0a1.115,1.115,0,0,0,1.479.031h0l.706-.706,8.789-8.789v-2.475h-.062Zm0-6.024h-.384l-.047.026-.042.026a.793.793,0,0,0-.161.135l-9.516,9.511-9.531-9.4-.052-.052h0a.423.423,0,0,0-.052-.047h-.031l-.042-.026-.057-.036h-.119a1.266,1.266,0,0,0-.27-.062h-.566l-.041.026-.042.026a.8.8,0,0,0-.161.135l-9.516,9.511-9.531-9.474-.052-.052h0a.25.25,0,0,0-.057-.047.053.053,0,0,0-.026,0l-.041-.026-.062-.036h-.114a1.246,1.246,0,0,0-.275-.062h-.576l-.042.026-.047.026a.96.96,0,0,0-.161.135l-9.511,9.511-9.511-9.474-.052-.052h0l-.057-.047h-.031l-.036-.026-.062-.036h-.119a1.2,1.2,0,0,0-.27-.062h-.54l-.047.026-.041.026a.966.966,0,0,0-.161.135l-9.516,9.511-9.542-9.474a.492.492,0,0,0-.052-.052h0l-.057-.047h-.031l-.042-.026a.212.212,0,0,0-.057-.036h-.119a1.2,1.2,0,0,0-.27-.062h-.56l-.047.026-.042.026a.8.8,0,0,0-.161.135l-9.516,9.511-9.521-9.474-.052-.052h0a.42.42,0,0,0-.052-.047h-.031l-.042-.026-.057-.036h-.119a1.246,1.246,0,0,0-.275-.062H204v2.4l8.821,8.779.721.721h0a1.038,1.038,0,0,0,1.427,0l.036-.036.706-.706,8.779-8.758h0l8.789,8.789.721.721h0a1,1,0,0,0,.716.3,1.037,1.037,0,0,0,.711-.285h0l.711-.706,8.852-8.821h0l8.789,8.789.716.721h0a1.015,1.015,0,0,0,1.427.016h0l.706-.706,8.815-8.821h0l8.789,8.789.721.721h0a1.038,1.038,0,0,0,1.427,0l.036-.036.706-.706,8.795-8.769h0l8.789,8.789.721.721h0a1.021,1.021,0,0,0,1.432.016h0l.706-.706,8.826-8.821v-2.47h-.062Zm0,18.067h-.384l-.047.026-.042.026a.8.8,0,0,0-.161.135l-9.537,9.651-9.511-9.511-.052-.052h0l-.052-.047h-.031l-.042-.026-.057-.036h-.119a1.266,1.266,0,0,0-.27-.062h-.566l-.041.026-.042.026a.8.8,0,0,0-.161.135l-9.531,9.547-9.516-9.511-.052-.052h0a.251.251,0,0,0-.057-.047h-.026l-.041-.026-.062-.036h-.114a1.244,1.244,0,0,0-.275-.062h-.576l-.042.026-.047.026a.965.965,0,0,0-.161.135l-9.505,9.547-9.516-9.511-.052-.052h0l-.057-.047h-.031l-.036-.026-.062-.036h-.119a1.2,1.2,0,0,0-.27-.062h-.54l-.047.026-.041.026a.966.966,0,0,0-.161.135l-9.547,9.547-9.511-9.511a.484.484,0,0,0-.052-.052h0l-.057-.047h-.031l-.042-.026-.057-.036h-.119a1.2,1.2,0,0,0-.27-.062h-.56l-.047.026-.042.026a.8.8,0,0,0-.161.135l-9.526,9.547-9.511-9.511-.052-.052h0a.417.417,0,0,0-.052-.047h-.031l-.042-.026-.057-.036h-.119a1.244,1.244,0,0,0-.275-.062H204v2.47l8.821,8.686.721.721h0a1.021,1.021,0,0,0,1.427.01h0l.706-.706,8.789-8.789h0l8.789,8.789.721.721h0a1.021,1.021,0,0,0,1.427.01h0l.711-.706,8.878-8.841h0l8.789,8.789.716.721h0a1.038,1.038,0,0,0,1.427,0l.036-.036.706-.706,8.789-8.789h0l8.789,8.789.721.721h0a1.021,1.021,0,0,0,1.427.01h0l.706-.706,8.789-8.789h0l8.789,8.789.721.721h0a1.038,1.038,0,0,0,1.432,0h0l.706-.706,8.789-8.789v-2.511h-.062Zm0-24.09h-.431l-.042.026a1,1,0,0,0-.161.135l-9.516,9.511-9.511-9.511-.052-.047h0l-.052-.047h-.031l-.041-.026-.057-.036h-.119a1,1,0,0,0-.27-.057h-.607l-.041.026a1.008,1.008,0,0,0-.161.135l-9.516,9.511-9.516-9.511-.052-.047-.057-.047h-.026l-.042-.026-.062-.036h-.114a1,1,0,0,0-.275-.057h-.654l-.047.026a1.3,1.3,0,0,0-.161.135l-9.511,9.511-9.516-9.511-.052-.047h0l-.057-.047h-.031l-.036-.026-.062-.036h-.119a.967.967,0,0,0-.27-.057h-.586l-.042.026a1.306,1.306,0,0,0-.161.135l-9.516,9.511-9.511-9.511-.052-.047h0l-.057-.047H225.1l-.042-.026-.057-.036h-.119a.964.964,0,0,0-.27-.057h-.607l-.041.026a1.009,1.009,0,0,0-.161.135l-9.516,9.511-9.511-9.511-.052-.047h0l-.052-.047h-.031l-.042-.026-.057-.036h-.119a1,1,0,0,0-.275-.057H204v2.47l8.821,9.049.721.721h0a1.021,1.021,0,0,0,1.427.01h0l.706-.711,8.789-8.789h0l8.789,8.789.721.721h0a1.021,1.021,0,0,0,1.427.01h0l.711-.711,8.878-8.831h0l8.789,8.789.716.721h0a1.038,1.038,0,0,0,1.427,0l.036-.031.706-.711,8.789-8.789h0l8.789,8.789.721.721h0a1.021,1.021,0,0,0,1.427.01h0l.706-.711,8.789-8.789h0l8.789,8.789.721.721h0a1.038,1.038,0,0,0,1.432,0h0l.706-.711,8.789-8.789v-2.47h-.062Zm0,30.094h-.379l-.047.026-.042.026a.978.978,0,0,0-.161.13l-9.516,9.516-9.511-9.516-.052-.047h0l-.052-.042h-.031l-.041-.026-.057-.036h-.119a1.036,1.036,0,0,0-.27-.062h-.566l-.042.026-.042.026a.986.986,0,0,0-.161.13l-9.516,9.516-9.516-9.516-.052-.047h0l-.057-.041a.052.052,0,0,0-.026,0l-.042-.026-.062-.036h-.114a1,1,0,0,0-.275-.062h-.56l-.042.026-.047.026a1.258,1.258,0,0,0-.161.13l-9.511,9.516-9.516-9.516-.052-.047h0l-.057-.042H245.6l-.036-.026-.062-.036h-.119a.969.969,0,0,0-.27-.062h-.54l-.047.026-.042.026a1.256,1.256,0,0,0-.161.13l-9.516,9.516L225.3,444.1l-.052-.047h0l-.057-.042h-.031l-.042-.026a.211.211,0,0,0-.057-.036h-.119a.971.971,0,0,0-.27-.062h-.56l-.047.026-.042.026a.981.981,0,0,0-.161.13l-9.516,9.516-9.511-9.516-.052-.047h0l-.052-.042H204.7l-.041-.026-.057-.036h-.119a1.006,1.006,0,0,0-.275-.062H204v2.475l8.821,8.961.721.721h0a1.038,1.038,0,0,0,.721.3,1.007,1.007,0,0,0,.706-.28h0l.706-.706,8.789-8.789h0l8.789,8.789.721.721h0a1.028,1.028,0,0,0,1.427.016h0l.711-.706,8.878-8.852h0l8.789,8.789.716.721h0a1.038,1.038,0,0,0,1.427,0h0l.706-.706,8.789-8.789h0l8.789,8.789.721.721h0a1.038,1.038,0,0,0,.721.3,1.007,1.007,0,0,0,.706-.28l.036-.036.706-.706,8.789-8.789h0l8.789,8.789.721.721h0a1.038,1.038,0,0,0,1.432,0h0l.706-.706,8.789-8.789v-2.475h-.062Zm.041-42.157h-.425l-.047.026-.042.026a.982.982,0,0,0-.161.13l-9.516,9.516-9.531-9.365-.052-.047h0l-.052-.041h-.031l-.042-.026-.057-.036h-.119a1.27,1.27,0,0,0-.27-.062h-.566l-.041.026-.042.026a.985.985,0,0,0-.161.13l-9.516,9.516-9.531-9.485-.052-.047h0l-.057-.041a.052.052,0,0,0-.026,0l-.041-.026-.062-.036h-.114a1.251,1.251,0,0,0-.275-.062h-.576l-.042.026-.047.026a1.254,1.254,0,0,0-.161.13l-9.511,9.516-9.511-9.485-.052-.047h0l-.057-.041h-.031l-.036-.026-.062-.036h-.119a1.2,1.2,0,0,0-.27-.062h-.54l-.047.026-.041.026a1.255,1.255,0,0,0-.161.13l-9.516,9.516-9.542-9.485-.052-.047h0l-.057-.041h-.031l-.042-.026a.214.214,0,0,0-.057-.036h-.119a1.2,1.2,0,0,0-.27-.062h-.56l-.047.026-.042.026a.982.982,0,0,0-.161.13l-9.516,9.516-9.521-9.485-.052-.047h0l-.052-.041h-.031l-.042-.026-.057-.036h-.119a1.251,1.251,0,0,0-.275-.062H204v2.47l8.821,8.691.721.721h0a1.038,1.038,0,0,0,1.427,0l.036-.036.706-.706,8.789-8.789h0l8.789,8.789.721.721h0a.991.991,0,0,0,.716.3,1.038,1.038,0,0,0,.711-.28h0l.732-.716,8.821-8.789h0l8.769,8.789.716.721h0a1.028,1.028,0,0,0,1.427.016h0l.706-.706,8.789-8.789h0l8.789,8.789.721.721h0a1.038,1.038,0,0,0,1.427,0h0l.706-.706,8.789-8.789h0l8.789,8.789.721.721h0a1.034,1.034,0,0,0,1.432.016h0l.706-.706,8.789-8.789V401.88Zm-.041,90.333h-.431l-.042.026a1,1,0,0,0-.161.135l-9.516,9.511-9.511-9.511-.052-.047h0l-.052-.047h-.031l-.041-.026-.057-.036h-.119a1,1,0,0,0-.27-.057h-.607l-.041.026a1.009,1.009,0,0,0-.161.135l-9.516,9.511L266.2,492.3a.221.221,0,0,0-.052-.047h0l-.057-.047h-.026l-.042-.026-.062-.036h-.114a1,1,0,0,0-.275-.057h-.654l-.047.026a1.3,1.3,0,0,0-.161.135L255.2,501.76l-9.516-9.511a.225.225,0,0,0-.052-.047h0l-.057-.047h-.031l-.036-.026-.062-.036h-.119a.968.968,0,0,0-.27-.057h-.586l-.042.026a1.3,1.3,0,0,0-.161.135l-9.516,9.511-9.511-9.511-.052-.047h0l-.057-.047H225.1l-.042-.026-.057-.036a.105.105,0,0,1-.042,0h-.078a.967.967,0,0,0-.27-.057h-.607l-.041.026a1.008,1.008,0,0,0-.161.135l-9.516,9.511-9.511-9.511-.052-.047h0l-.052-.047h-.031l-.042-.026-.057-.036h-.119a1,1,0,0,0-.275-.057H204v2.47l8.821,9.07.239.239h2.423l.233-.239,8.789-8.789h0l8.789,8.789.239.239h2.423l.239-.239,8.795-8.789h0l8.769,8.789.233.239H256.4l.239-.239,8.789-8.789h0l8.789,8.789.233.239h2.428l.234-.239,8.789-8.789h0l8.789,8.789.239.239h2.459l.233-.239,8.789-8.789v-2.47h-.062Zm0-84.309H305.9l-.042.026a.98.98,0,0,0-.161.13l-9.516,9.516-9.511-9.516-.052-.047h0l-.052-.042-.031-.026h-.041l-.057-.031h-.119a.846.846,0,0,0-.27-.062h-.607l-.042.026a.983.983,0,0,0-.161.13l-9.516,9.516-9.516-9.516-.052-.047h0l-.057-.042-.026-.026h-.042l-.062-.031a.1.1,0,0,0-.042,0h-.073a.844.844,0,0,0-.275-.062h-.436a.1.1,0,0,0-.042,0h-.124l-.047.026a1.261,1.261,0,0,0-.161.13l-9.511,9.516-9.516-9.516-.052-.047h0l-.057-.042-.031-.026h-.036l-.062-.031a.1.1,0,0,0-.041,0h-.078a.818.818,0,0,0-.27-.062h-.586l-.042.026a1.26,1.26,0,0,0-.161.13L234.81,417.4l-9.511-9.516-.052-.047h0l-.057-.041-.031-.026h-.042l-.057-.031h-.119a.82.82,0,0,0-.27-.062h-.519a.1.1,0,0,0-.042,0h-.047l-.042.026a.982.982,0,0,0-.161.13l-9.516,9.516-9.511-9.516-.052-.047h0l-.052-.041-.031-.026h-.041l-.057-.031h-.119a.847.847,0,0,0-.275-.062H204V410.1l8.821,9.064.721.721h0a1.038,1.038,0,0,0,1.427,0h0l.706-.706,8.789-8.789h0l8.789,8.789.721.721h0a1.028,1.028,0,0,0,1.427.016l.031-.036.711-.706,8.846-8.8h0l8.789,8.789.716.721h0a1.028,1.028,0,0,0,1.427.016h0l.706-.706,8.789-8.789h0l8.789,8.789.721.721h0a1.038,1.038,0,0,0,1.427,0h0l.706-.706,8.789-8.789h0l8.789,8.789.721.721h0a1.034,1.034,0,0,0,1.432.016h0l.706-.706,8.789-8.789V407.9h-.062Zm0,72.266h-.431l-.042.026a.979.979,0,0,0-.161.13l-9.537,9.677-9.511-9.516-.052-.047h0l-.052-.042h-.073l-.057-.036h-.119a1.268,1.268,0,0,0-.27-.062h-.607l-.042.026a.982.982,0,0,0-.161.13l-9.531,9.547-9.516-9.516-.052-.047h0l-.057-.042a.051.051,0,0,0-.026,0h-.041l-.062-.036h-.114a1.241,1.241,0,0,0-.275-.062h-.6l-.047.026a1.253,1.253,0,0,0-.161.13l-9.521,9.547-9.516-9.516-.052-.047h0l-.057-.042h-.067l-.062-.036h-.119a1.2,1.2,0,0,0-.27-.062h-.586l-.041.026a1.249,1.249,0,0,0-.161.13l-9.547,9.547-9.511-9.516-.052-.047h0l-.057-.042h-.073a.212.212,0,0,0-.057-.036h-.119a1.192,1.192,0,0,0-.27-.062h-.607l-.042.026a.98.98,0,0,0-.161.13l-9.526,9.547-9.511-9.516-.052-.047h0l-.052-.042h-.073l-.057-.036h-.119a1.241,1.241,0,0,0-.275-.062H204v2.47l8.821,8.686.721.721h0a1.038,1.038,0,0,0,1.427,0l.036-.036.706-.706,8.789-8.789h0l8.779,8.81.721.721h0a.991.991,0,0,0,.716.3,1.038,1.038,0,0,0,.711-.28l.031-.036.711-.7,8.821-8.795h0l8.769,8.795.716.721h0a1.028,1.028,0,0,0,1.427.016h0l.706-.706,8.789-8.789h0l8.836,8.758.721.721h0a1.038,1.038,0,0,0,1.427,0l.036-.036.706-.706,8.789-8.789h0l8.795,8.81.721.721h0a1.034,1.034,0,0,0,1.432.016h0l.742-.737,8.789-8.789v-2.47h-.062Zm0,6.024H305.9l-.042.026a.768.768,0,0,0-.161.13l-9.516,9.516-9.511-9.516-.052-.047h0l-.052-.047h-.031l-.041-.026-.057-.031h-.119a.845.845,0,0,0-.27-.062h-.607l-.042.026a.772.772,0,0,0-.161.13l-9.516,9.516-9.516-9.516-.052-.047h0l-.057-.047h-.026l-.042-.026-.062-.031h-.114a.85.85,0,0,0-.275-.062h-.6l-.047.026a.933.933,0,0,0-.161.13l-9.511,9.516-9.516-9.516-.052-.047h0l-.057-.047H245.6l-.036-.026-.062-.031h-.119a.818.818,0,0,0-.27-.062h-.586l-.042.026a.929.929,0,0,0-.161.13l-9.516,9.516-9.511-9.516-.052-.047h0l-.057-.047h-.031l-.042-.026-.057-.031h-.119a.82.82,0,0,0-.27-.062h-.607l-.042.026a.767.767,0,0,0-.161.13l-9.516,9.516-9.511-9.516-.052-.047h0l-.052-.047H204.7l-.041-.026-.057-.031h-.119a.844.844,0,0,0-.275-.062H204v2.475l8.821,9.09.721.721h0a1.038,1.038,0,0,0,1.427,0h0l.706-.706,8.789-8.789h0l8.789,8.789.721.721h0a1.028,1.028,0,0,0,1.427.016l.031-.036.737-.716,8.821-8.789h0l8.769,8.789.716.721h0a1.028,1.028,0,0,0,1.427.016h0l.706-.706L265.4,488.7h0l8.789,8.789.721.721h0a1.038,1.038,0,0,0,1.427,0h0l.706-.706,8.789-8.789h0l8.789,8.789.721.721h0a1.038,1.038,0,0,0,1.427,0h0l.706-.706,8.789-8.789v-2.475H306.2Zm0-36.138h-.342l-.041.026h-.047l-.042.031a.768.768,0,0,0-.161.13l-9.516,9.516-9.511-9.516-.052-.047h0l-.052-.047h-.073l-.057-.031h-.119a.844.844,0,0,0-.27-.062h-.519l-.047.026h-.042l-.041.031a.768.768,0,0,0-.161.13l-9.516,9.516-9.516-9.516-.052-.047h0l-.057-.047h-.067l-.062-.031a.1.1,0,0,0-.041,0h-.073a.845.845,0,0,0-.275-.062h-.566l-.047.026h-.042l-.047.031a.929.929,0,0,0-.161.13l-9.511,9.516-9.516-9.516-.052-.047h0l-.057-.047h-.067l-.062-.031a.1.1,0,0,0-.042,0h-.078a.819.819,0,0,0-.27-.062h-.493l-.047.026h-.047l-.042.031a.931.931,0,0,0-.161.13l-9.516,9.516-9.511-9.516-.052-.047h0l-.057-.047h-.073L225,450.1h-.119a.819.819,0,0,0-.27-.062H224.1l-.042.026h-.047l-.041.031a.769.769,0,0,0-.161.13l-9.516,9.516-9.511-9.516-.052-.047h0l-.052-.047H204.6l-.057-.031h-.119a.845.845,0,0,0-.275-.062H204v2.485l8.821,8.821.721.716h0a1.038,1.038,0,0,0,1.427,0h0l.706-.706,8.815-8.831h0l8.789,8.821.721.716h0a1.028,1.028,0,0,0,1.427.016h0l.742-.732,8.821-8.821h0l8.789,8.821.716.716h0a1.028,1.028,0,0,0,1.427.016h0l.706-.706,8.815-8.847h0l8.789,8.821.721.716h0a1.038,1.038,0,0,0,1.427,0h0l.706-.706,8.831-8.831h0l8.789,8.821.721.716h0a1.034,1.034,0,0,0,1.432.016l.031-.036.711-.7,8.789-8.821v-2.475h-.062Zm0,24.09h-.384l-.047.026h-.042a1,1,0,0,0-.161.135l-9.516,9.511-9.511-9.511-.052-.052h0l-.052-.047h-.073l-.057-.036h-.119a1,1,0,0,0-.27-.057h-.565l-.042.026h-.041a1.006,1.006,0,0,0-.161.135l-9.516,9.511-9.516-9.511-.052-.052h0l-.057-.047h-.067l-.062-.036h-.114a1,1,0,0,0-.275-.057h-.612l-.042.026h-.047a1.3,1.3,0,0,0-.161.135l-9.511,9.511-9.516-9.511-.052-.052h0l-.057-.047h-.067l-.062-.036h-.119a.965.965,0,0,0-.27-.057h-.54l-.047.28h-.042a1.308,1.308,0,0,0-.161.135l-9.516,9.511-9.511-9.511-.052-.052h0l-.057-.047h-.073l-.057-.036h-.119a.966.966,0,0,0-.27-.057h-.56l-.047.026h-.041a1.01,1.01,0,0,0-.161.135l-9.516,9.511-9.511-9.511-.052-.052h0l-.052-.047H204.6l-.057-.036h-.119a1,1,0,0,0-.275-.057H204v2.47l8.821,8.712.721.721h0a1.021,1.021,0,0,0,1.427.01l.036-.031.706-.711,8.789-8.789h0l8.789,8.789.721.721h0a1.021,1.021,0,0,0,1.427.01h0l.711-.711,8.841-8.8h0l8.789,8.789.716.721h0a1.038,1.038,0,0,0,1.427,0l.036-.031.706-.711,8.789-8.789h0l8.789,8.789.721.721h0a1.021,1.021,0,0,0,1.427.01l.036-.031.706-.711,8.789-8.789h0l8.789,8.789.721.721h0a1.038,1.038,0,0,0,1.432,0h0l.706-.711,8.789-8.789v-2.47H306.3Zm0-18.067h-.384l-.047.026-.042.026a1.008,1.008,0,0,0-.161.135l-9.516,9.511-9.511-9.511-.052-.052h0l-.052-.047h-.031l-.041-.026-.057-.036h-.119a1,1,0,0,0-.27-.057h-.565l-.042.026-.041.026a1.009,1.009,0,0,0-.161.135l-9.516,9.511-9.516-9.511-.052-.052h0l-.057-.047h-.026l-.042-.026-.062-.036h-.114a1,1,0,0,0-.275-.057h-.612l-.042.026-.047.026a1.3,1.3,0,0,0-.161.135l-9.511,9.511-9.516-9.511-.052-.052h0l-.057-.047h-.031l-.036-.026-.062-.036h-.119a.965.965,0,0,0-.27-.057h-.54l-.047.026-.042.026a1.3,1.3,0,0,0-.161.135l-9.516,9.511-9.511-9.511a.488.488,0,0,0-.052-.052h0l-.057-.047H225.1l-.042-.026-.057-.036h-.119a.965.965,0,0,0-.27-.057h-.56l-.047.026-.041.026a1.01,1.01,0,0,0-.161.135l-9.516,9.511-9.511-9.511-.052-.052h0l-.052-.047h-.031L204.6,456l-.057-.036h-.119a1,1,0,0,0-.275-.057H204v2.47l8.821,8.966.721.721h0a1.021,1.021,0,0,0,1.427.01l.036-.031.706-.711,8.789-8.789h0l8.789,8.789.721.721h0a1.021,1.021,0,0,0,1.427.01h0l.711-.711,8.841-8.8h0l8.789,8.789.716.721h0a1.038,1.038,0,0,0,1.427,0h0l.706-.711,8.789-8.789h0l8.789,8.789.721.721h0a1.021,1.021,0,0,0,1.427.01h0l.706-.711,8.789-8.789h0l8.789,8.789.721.721h0a1.038,1.038,0,0,0,1.432,0h0l.706-.711,8.789-8.789v-2.47h-.062Zm0,12.043H305.9l-.042.031a.766.766,0,0,0-.161.13l-9.542,9.682-9.511-9.516-.052-.047h0l-.052-.047h-.073l-.057-.031h-.119a.846.846,0,0,0-.27-.062h-.607l-.042.031a.768.768,0,0,0-.161.13l-9.531,9.542-9.516-9.516-.052-.047h0l-.057-.047h-.067l-.062-.031h-.114a.846.846,0,0,0-.275-.062h-.6l-.047.031a.926.926,0,0,0-.161.13l-9.521,9.542-9.516-9.516-.052-.047h0l-.057-.047h-.067l-.062-.031h-.119a.819.819,0,0,0-.27-.062h-.586l-.041.031a.927.927,0,0,0-.161.13l-9.547,9.542-9.511-9.516-.052-.047h0l-.057-.047h-.073l-.057-.031h-.119a.819.819,0,0,0-.27-.062h-.607l-.042.031a.768.768,0,0,0-.161.13l-9.526,9.542-9.511-9.516-.052-.047h0l-.052-.047h-.073l-.057-.031h-.119a.846.846,0,0,0-.275-.062H204v2.47l8.821,8.675.721.721h0a1.038,1.038,0,0,0,1.427,0h0l.706-.706,8.789-8.789h0l8.789,8.795.721.721h0a1.028,1.028,0,0,0,1.427.016h0l.711-.706,8.878-8.841h0l8.789,8.795.716.721h0a1.028,1.028,0,0,0,1.427.016h0l.706-.706,8.789-8.789h0l8.789,8.795.721.721h0a1.038,1.038,0,0,0,1.427,0h0l.706-.706,8.789-8.789h0l8.789,8.795.721.721h0a1.034,1.034,0,0,0,1.432.016h0l.706-.706,8.789-8.789v-2.475h-.062Zm0-6.019h-.467a.98.98,0,0,0-.161.13l-9.516,9.516-9.537-9.35-.052-.047h0l-.052-.042h-.073l-.057-.036h-.119a1.27,1.27,0,0,0-.27-.062h-.649a.981.981,0,0,0-.161.13l-9.516,9.516-9.531-9.459-.052-.047h0l-.057-.042a.052.052,0,0,0-.026,0h-.041l-.062-.036h-.114a1.244,1.244,0,0,0-.275-.062h-.649a1.253,1.253,0,0,0-.161.13l-9.511,9.516-9.526-9.459-.052-.047h0l-.057-.042h-.067l-.062-.036h-.119a1.2,1.2,0,0,0-.27-.062h-.628a1.249,1.249,0,0,0-.161.13l-9.516,9.516-9.542-9.459-.052-.047h0l-.057-.042h-.073a.212.212,0,0,0-.057-.036h-.119a1.2,1.2,0,0,0-.27-.062h-.649a.979.979,0,0,0-.161.13l-9.516,9.516-9.521-9.459-.052-.047h0l-.052-.042h-.073l-.057-.036h-.119a1.244,1.244,0,0,0-.275-.062H204v2.47l8.821,8.7.721.721h0a1.038,1.038,0,0,0,.721.3,1.007,1.007,0,0,0,.706-.28h0l.706-.706,8.789-8.789h0l8.789,8.789.721.721h0a1.028,1.028,0,0,0,1.427.016l.031-.036.711-.706,8.846-8.815h0l8.789,8.789.716.721h0a1.038,1.038,0,0,0,1.427,0h0l.706-.706,8.789-8.789h0l8.789,8.789.721.721h0a1.038,1.038,0,0,0,.721.3,1.006,1.006,0,0,0,.706-.28h0l.706-.706,8.789-8.789h0l8.789,8.789.721.721h0a1.038,1.038,0,0,0,1.432,0h0l.706-.706,8.789-8.789v-2.47h-.062Z" transform="translate(-204 -401.32)" fill="#65a532"/>
</svg>
